<svg width="61" height="60" viewBox="0 0 61 60" fill="none" xmlns="http://www.w3.org/2000/svg">
<g clip-path="url(#clip0_44_430)">
<path d="M59.5595 38.0038C58.0867 37.1378 56.2424 36.9977 54.5966 37.7235C54.5966 37.7235 54.5902 37.73 54.5646 37.7362C54.5582 37.7426 54.5453 37.7426 54.5389 37.749C54.5452 37.749 54.5389 37.749 54.5196 37.7554L54.5068 37.7617L54.5004 37.768C54.4749 37.7743 54.4492 37.7871 54.4172 37.7999C53.8153 38.0672 51.4651 39.1051 43.4734 42.6197V42.6069C41.6804 40.0793 38.5234 41.9447 34.2458 42.3139C27.6117 38.9332 21.3489 35.6224 14.4778 35.8324V49.3622H15.6177L29.885 54.9652C32.216 55.8819 34.8606 55.6465 36.9994 54.3412L59.5722 40.4932C60.5007 39.9202 60.5072 38.5576 59.5595 38.0038ZM11.8627 34.1664H10.7175V33.3146C10.7175 32.6489 10.1749 32.1094 9.50532 32.1094H1.28839C0.618813 32.1094 0.0761719 32.6489 0.0761719 33.3146V52.6203C0.0761719 53.2861 0.618813 53.8256 1.28839 53.8256H9.50532C10.1749 53.8256 10.7175 53.2861 10.7175 52.6203V51.7686H11.8627C12.6009 51.7686 13.1993 51.1736 13.1993 50.4396V35.4954C13.1994 34.7614 12.6009 34.1664 11.8627 34.1664ZM7.00934 51.977C6.18548 51.977 5.5106 51.3061 5.5106 50.487C5.5106 49.6679 6.18548 48.9969 7.00934 48.9969C7.83308 48.9969 8.50797 49.6679 8.50797 50.487C8.50797 51.3061 7.83308 51.977 7.00934 51.977Z" fill="black"/>
<path d="M22.8057 22.9021L25.3663 23.1948C25.6736 24.5187 26.1984 25.7917 26.9282 26.9374L25.315 28.9487C24.8926 29.4833 24.9438 30.2344 25.4175 30.7054L27.1842 32.462C27.6579 32.933 28.4133 32.9839 28.951 32.5638L30.9739 30.96C32.1261 31.6856 33.4063 32.2075 34.7379 32.5129L35.0324 35.0589C35.233 36.8211 37.5595 36.0601 38.8349 36.2299C39.5134 36.2299 40.0768 35.7334 40.1536 35.0589L40.448 32.5129C41.7797 32.2075 43.0599 31.6854 44.2121 30.9598L46.235 32.5638C46.7727 32.9838 47.5281 32.933 48.0018 32.462L49.7685 30.7054C50.2422 30.2344 50.2935 29.4833 49.8711 28.9486L48.2579 26.9373C48.9877 25.7917 49.5125 24.5188 49.8198 23.1949L52.3804 22.9021C53.0589 22.8258 53.5582 22.2657 53.5582 21.5909V19.1214C53.5582 18.4467 53.0589 17.8867 52.3804 17.8102L49.8198 17.5173C49.5125 16.1936 48.9877 14.9204 48.2579 13.7749L49.8711 11.7636C50.2935 11.229 50.2423 10.478 49.7685 10.007L48.0018 8.25035C47.5281 7.77938 46.7727 7.7284 46.235 8.14852L44.2121 9.75234C43.0599 9.02672 41.7797 8.50488 40.448 8.19949L40.1536 5.65348C40.0768 4.97871 39.5135 4.48242 38.8349 4.48242H36.3511C35.6726 4.48242 35.1092 4.97895 35.0324 5.65348L34.7379 8.19949C33.4063 8.50488 32.1261 9.02672 30.9739 9.75234L28.951 8.14852C28.4133 7.72852 27.6579 7.77949 27.1842 8.25047L25.4175 10.0071C24.9438 10.4781 24.8926 11.229 25.315 11.7638L26.9282 13.7749C26.1984 14.9207 25.6736 16.1936 25.3663 17.5175L22.8057 17.8104C22.1272 17.8867 21.6279 18.447 21.6279 19.1216V21.5911C21.6279 22.2657 22.1272 22.8258 22.8057 22.9021ZM33.473 16.2727C35.7479 14.0108 39.4275 14.0108 41.7023 16.2727C43.9619 18.5193 43.9619 22.1929 41.7023 24.4396C39.4275 26.7014 35.7479 26.7014 33.473 24.4396C31.1982 22.193 31.1982 18.5193 33.473 16.2727Z" fill="black"/>
</g>
<defs>
<clipPath id="clip0_44_430">
<rect width="60.3458" height="60" fill="white"/>
</clipPath>
</defs>
</svg>
