<svg width="54" height="58" viewBox="0 0 54 58" fill="none" xmlns="http://www.w3.org/2000/svg">
<path d="M21.7722 47.4072L14.1389 57.5375C14.0756 57.6213 13.9894 57.6851 13.8907 57.7213C13.7921 57.7574 13.6851 57.7644 13.5825 57.7413C13.48 57.7182 13.3863 57.6661 13.3126 57.5911C13.239 57.5162 13.1885 57.4216 13.1671 57.3187L11.1404 47.6544L1.28518 48.3691C1.18112 48.374 1.07774 48.35 0.986452 48.2998C0.895161 48.2496 0.819508 48.1752 0.767836 48.0847C0.717532 47.9924 0.694904 47.8876 0.702664 47.7827C0.710423 47.6779 0.74824 47.5775 0.811586 47.4936L7.21002 39.0006L9.92362 40.5663C10.028 40.6268 10.1147 40.7135 10.1752 40.8179L11.8803 43.7655C12.4214 44.6998 13.1982 45.4757 14.1331 46.0157C15.068 46.5556 16.1283 46.8406 17.208 46.8422H20.615C20.7347 46.8453 20.8527 46.8717 20.9623 46.9199C21.2429 47.064 21.5134 47.2268 21.7722 47.4072ZM53.1874 47.4936L46.7775 38.9875L44.0431 40.5679C43.9398 40.6276 43.8539 40.7134 43.7943 40.8168L42.0892 43.7699C41.548 44.704 40.7711 45.4796 39.8362 46.0194C38.9012 46.5591 37.841 46.844 36.7615 46.8455H33.3545C33.2345 46.8455 33.1166 46.8769 33.0127 46.9369L32.2203 47.3946L39.8634 57.538C39.9273 57.6212 40.0135 57.6845 40.1119 57.7207C40.2103 57.7569 40.317 57.7645 40.4196 57.7426C40.5221 57.7197 40.6159 57.6677 40.6897 57.593C40.7635 57.5182 40.8142 57.4238 40.8357 57.3209L42.8592 47.6544L52.7401 48.3697C52.8423 48.3711 52.9429 48.3439 53.0304 48.291C53.1179 48.2382 53.1889 48.1619 53.2352 48.0708C53.2816 47.9797 53.3015 47.8774 53.2926 47.7756C53.2838 47.6738 53.2466 47.5764 53.1853 47.4947L53.1874 47.4936ZM42.5124 23.7608C42.5124 26.8326 41.6016 29.8354 39.895 32.3895C38.1884 34.9436 35.7627 36.9343 32.9248 38.1098C30.0868 39.2854 26.964 39.5929 23.9512 38.9937C20.9384 38.3944 18.171 36.9152 15.9989 34.7431C13.8269 32.571 12.3477 29.8036 11.7484 26.7908C11.1491 23.7781 11.4567 20.6553 12.6322 17.8173C13.8077 14.9793 15.7984 12.5537 18.3525 10.8471C20.9066 9.14048 23.9094 8.22959 26.9812 8.22959C31.0991 8.23364 35.0472 9.87127 37.959 12.7831C40.8708 15.6949 42.5084 19.6429 42.5124 23.7608ZM37.6092 20.4397C37.4535 19.9573 37.1663 19.5279 36.7798 19.1998C36.3933 18.8718 35.923 18.6582 35.4217 18.583L31.3108 17.953L29.4427 14.2343C29.2151 13.7814 28.8661 13.4007 28.4347 13.1347C28.0032 12.8687 27.5064 12.7278 26.9995 12.7278C26.4927 12.7278 25.9958 12.8687 25.5644 13.1347C25.133 13.4007 24.784 13.7814 24.5564 14.2343L22.6882 17.953L18.5779 18.583C18.0767 18.6595 17.6067 18.8739 17.2203 19.2022C16.8339 19.5304 16.5463 19.9597 16.3898 20.4419C16.2333 20.9241 16.2139 21.4404 16.3339 21.933C16.4538 22.4256 16.7084 22.8752 17.0691 23.2315L20.0244 26.1562L19.3506 30.2577C19.2671 30.7583 19.3253 31.2723 19.5186 31.7416C19.7118 32.2109 20.0325 32.6168 20.4444 32.9133C20.8552 33.2091 21.3396 33.3859 21.8443 33.4245C22.349 33.4631 22.8546 33.3619 23.3056 33.1321L26.9998 31.2229L30.6917 33.1304C31.1432 33.3613 31.6496 33.4633 32.1552 33.4252C32.6608 33.3871 33.1462 33.2103 33.5579 32.9144C33.9694 32.6174 34.2897 32.2112 34.4824 31.7417C34.6752 31.2723 34.7329 30.7582 34.6489 30.2577L33.9752 26.1562L36.9332 23.2309C37.2947 22.8748 37.5495 22.4248 37.6689 21.9316C37.7884 21.4384 37.7677 20.9217 37.6092 20.4397ZM32.4904 30.6143L31.634 25.3944L35.3949 21.6756C35.467 21.6043 35.5179 21.5144 35.5419 21.4159C35.5659 21.3174 35.562 21.2141 35.5307 21.1176C35.4994 21.0212 35.4419 20.9354 35.3646 20.8697C35.2873 20.8041 35.1932 20.7612 35.093 20.7459L29.8638 19.9475L27.4887 15.2186C27.4432 15.1281 27.3734 15.0519 27.2871 14.9987C27.2008 14.9455 27.1014 14.9174 27.0001 14.9174C26.8987 14.9174 26.7993 14.9455 26.713 14.9987C26.6268 15.0519 26.557 15.1281 26.5114 15.2186L24.1364 19.9453L18.906 20.7454C18.8058 20.7607 18.7118 20.8035 18.6345 20.8692C18.5572 20.9348 18.4997 21.0207 18.4683 21.1171C18.437 21.2136 18.4331 21.3168 18.4571 21.4153C18.4811 21.5139 18.532 21.6038 18.6042 21.6751L22.365 25.3938L21.5092 30.6143C21.4928 30.7144 21.5046 30.817 21.5432 30.9108C21.5819 31.0046 21.6458 31.0858 21.7279 31.1453C21.8102 31.2046 21.9072 31.2401 22.0083 31.2478C22.1094 31.2555 22.2107 31.2352 22.301 31.189L26.9998 28.7609L31.6991 31.1874C31.7767 31.2273 31.8628 31.248 31.9501 31.2476C32.029 31.2469 32.1069 31.2292 32.1784 31.1959C32.2499 31.1625 32.3134 31.1142 32.3647 31.0541C32.4159 30.9941 32.4536 30.9237 32.4753 30.8479C32.497 30.772 32.5022 30.6923 32.4904 30.6143ZM49.9685 25.7433L48.265 28.6964C48.0139 29.1331 47.8819 29.6281 47.8822 30.1319V33.5384C47.881 34.2341 47.6973 34.9173 47.3494 35.5197C47.0015 36.1222 46.5017 36.6229 45.8998 36.9717L42.9467 38.6752C42.5101 38.9273 42.1478 39.2901 41.8961 39.7268L40.1921 42.6772C39.8433 43.2793 39.3427 43.7792 38.7402 44.1271C38.1377 44.475 37.4545 44.6586 36.7588 44.6597H33.3517C32.8479 44.6593 32.3529 44.7913 31.9162 45.0425L28.9631 46.7465C28.3599 47.0933 27.6764 47.2759 26.9806 47.2759C26.2849 47.2759 25.6014 47.0933 24.9982 46.7465L22.0451 45.043C21.6085 44.7916 21.1134 44.6596 20.6096 44.6602H17.2025C16.5068 44.6592 15.8236 44.4755 15.2211 44.1276C14.6186 43.7797 14.118 43.2798 13.7692 42.6778L12.0701 39.7241C11.8179 39.2876 11.4554 38.9249 11.019 38.6725L8.06588 36.9701C7.46402 36.621 6.96421 36.1203 6.61636 35.5177C6.2685 34.9152 6.08476 34.232 6.08346 33.5362V30.1292C6.08394 29.6254 5.95192 29.1303 5.70065 28.6936L3.99768 25.7405C3.65076 25.1374 3.46818 24.4539 3.46818 23.7581C3.46818 23.0623 3.65076 22.3788 3.99768 21.7757L5.7012 18.8226C5.95231 18.386 6.08432 17.8912 6.08401 17.3876V13.9805C6.08512 13.2848 6.2688 12.6016 6.61668 11.9991C6.96456 11.3966 7.46446 10.896 8.06643 10.5472L11.0196 8.84373C11.4555 8.59297 11.8177 8.23199 12.0701 7.79701L13.7736 4.84717C14.1223 4.24516 14.623 3.74523 15.2254 3.39734C15.8279 3.04946 16.5112 2.8658 17.2069 2.86474H20.6139C21.1175 2.865 21.6124 2.733 22.0489 2.48193L25.0021 0.777869C25.6052 0.431055 26.2887 0.248535 26.9845 0.248535C27.6802 0.248535 28.3638 0.431055 28.9669 0.777869L31.92 2.48138C32.3567 2.73268 32.8518 2.86471 33.3556 2.8642H36.7626C37.4583 2.86526 38.1416 3.04891 38.7441 3.39679C39.3465 3.74468 39.8472 4.24461 40.1959 4.84662L41.8994 7.79701C42.1516 8.23355 42.5141 8.59619 42.9505 8.84865L45.9036 10.5516C46.5056 10.9004 47.0055 11.401 47.3534 12.0035C47.7012 12.606 47.8849 13.2892 47.886 13.9849V17.3919C47.8856 17.8956 48.0176 18.3904 48.2688 18.8269L49.9718 21.7801C50.3179 22.3832 50.4998 23.0667 50.4992 23.7621C50.4986 24.4575 50.3157 25.1406 49.9685 25.7433ZM44.6999 23.7608C44.6999 20.2564 43.6608 16.8307 41.7138 13.9168C39.7668 11.003 36.9995 8.73194 33.7619 7.39085C30.5242 6.04976 26.9615 5.69887 23.5244 6.38255C20.0873 7.06623 16.9302 8.75378 14.4521 11.2318C11.9741 13.7098 10.2866 16.867 9.60291 20.3041C8.91922 23.7412 9.27011 27.3038 10.6112 30.5415C11.9523 33.7792 14.2234 36.5465 17.1372 38.4934C20.051 40.4404 23.4768 41.4796 26.9812 41.4796C31.6791 41.475 36.1832 39.6067 39.5051 36.2848C42.827 32.9629 44.6953 28.4587 44.6999 23.7608Z" fill="black"/>
</svg>
