<svg width="68" height="50" viewBox="0 0 68 50" fill="none" xmlns="http://www.w3.org/2000/svg">
<path fill-rule="evenodd" clip-rule="evenodd" d="M50.0918 41.4316H65.9328C66.7153 41.4316 67.3594 40.7876 67.3594 40.005V38.1546C67.3594 37.3722 66.7153 36.728 65.9328 36.728H50.0918C49.3093 36.728 48.6651 37.3721 48.6651 38.1546V40.005C48.6651 40.7876 49.3093 41.4316 50.0918 41.4316ZM50.0918 34.5406H65.9328C66.7153 34.5406 67.3594 33.8965 67.3594 33.1139V31.2636C67.3594 30.481 66.7153 29.8369 65.9328 29.8369H50.0918C49.3093 29.8369 48.6651 30.481 48.6651 31.2636V33.1139C48.6651 33.8965 49.3093 34.5406 50.0918 34.5406ZM50.0918 48.3227H65.9328C66.7153 48.3227 67.3594 47.6786 67.3594 46.896V45.0457C67.3594 44.2632 66.7153 43.619 65.9328 43.619H50.0918C49.3093 43.619 48.6651 44.2631 48.6651 45.0457V46.896C48.6651 47.6785 49.3093 48.3227 50.0918 48.3227ZM50.0918 20.7585H65.9328C66.7153 20.7585 67.3594 20.1145 67.3594 19.332V17.4817C67.3594 16.6992 66.7153 16.055 65.9328 16.055H50.0918C49.3093 16.055 48.6651 16.6992 48.6651 17.4817V19.332C48.6651 20.1145 49.3093 20.7585 50.0918 20.7585ZM50.0918 22.946C49.3093 22.946 48.6651 23.5901 48.6651 24.3726V26.2229C48.6651 27.0054 49.3092 27.6496 50.0918 27.6496H65.9328C66.7153 27.6496 67.3594 27.0055 67.3594 26.2229V24.3726C67.3594 23.59 66.7153 22.946 65.9328 22.946H50.0918ZM23.1386 17.0081C24.6512 18.6613 26.0038 20.2207 27.1967 21.6989C24.1689 24.8758 22.31 29.1767 22.31 33.9114C22.31 38.736 24.241 43.1092 27.371 46.3027C24.5563 48.302 20.9701 49.4797 17.0527 49.4137C5.28439 49.6121 -3.50294 38.5961 2.67402 27.7502C4.45902 24.6162 7.22347 21.0997 10.967 17.0081C11.1898 17.0527 11.4201 17.0763 11.6558 17.0763H22.4498C22.6855 17.0763 22.9158 17.0527 23.1386 17.0081ZM12.4482 10.0499L9.5805 7.18238C8.61363 6.21551 8.61363 4.63312 9.5805 3.66611C10.4029 2.84361 11.7048 2.70471 12.6835 3.33279C13.047 3.56617 13.4645 3.60336 13.8634 3.4382C14.2622 3.27291 14.5311 2.95162 14.6232 2.52957C14.8669 1.4134 15.8663 0.571074 17.0529 0.570801C18.218 0.570801 19.2342 1.39207 19.4826 2.52957C19.5748 2.95162 19.8437 3.27291 20.2425 3.4382C20.6416 3.60349 21.0589 3.56617 21.4223 3.33279C22.3837 2.71578 23.6862 2.82693 24.5252 3.66584C25.4921 4.63285 25.4921 6.21523 24.5252 7.18224L21.6577 10.0498L12.4482 10.0499ZM16.9286 38.0357C16.2015 38.0167 15.4956 37.8198 14.9329 37.4451C14.4236 37.1059 14.0345 36.6098 13.8721 35.9581C13.7985 35.6801 13.6186 35.4421 13.3712 35.2953C13.1238 35.1486 12.8287 35.1049 12.5494 35.1736C12.2701 35.2423 12.029 35.4179 11.8779 35.6627C11.7268 35.9074 11.6779 36.2017 11.7416 36.4822C12.0486 37.7132 12.7743 38.6438 13.7216 39.2749C14.3687 39.7058 15.1201 39.9908 15.907 40.1295V40.9831C15.907 41.2747 16.0229 41.5544 16.2291 41.7606C16.4353 41.9668 16.715 42.0827 17.0067 42.0827C17.2983 42.0827 17.578 41.9668 17.7842 41.7606C17.9904 41.5544 18.1063 41.2747 18.1063 40.9831V40.1505C19.0626 40.0047 20.0369 39.6557 20.8018 39.0752C21.7213 38.3776 22.3327 37.3788 22.3008 36.0382C22.2984 35.9033 22.2896 35.7685 22.2744 35.6344C22.0962 34.1655 21.3014 33.2094 20.2477 32.5732C19.3221 32.0145 18.2122 31.7361 17.1946 31.569C16.4607 31.4486 15.6877 31.2446 15.1214 30.8749C14.6828 30.5886 14.3681 30.174 14.3387 29.5677C14.3069 28.9118 14.5932 28.3825 15.0445 28.0156C15.398 27.7282 15.8489 27.5286 16.3377 27.43C16.5365 27.3901 16.7384 27.3675 16.9412 27.3622C16.9892 27.3652 17.0373 27.3649 17.0853 27.3614C17.358 27.365 17.6293 27.4006 17.8937 27.4673C18.7111 27.6746 19.4553 28.2133 19.8473 29.1466C19.96 29.4155 20.175 29.6285 20.4449 29.7389C20.7147 29.8492 21.0174 29.8479 21.2862 29.7351C21.5551 29.6223 21.7681 29.4073 21.8785 29.1375C21.9888 28.8676 21.9875 28.565 21.8747 28.2961C21.1845 26.6525 19.8706 25.7028 18.4263 25.3368C18.3205 25.31 18.2138 25.2864 18.1064 25.266V24.414C18.1064 24.2696 18.078 24.1266 18.0227 23.9932C17.9675 23.8598 17.8865 23.7386 17.7843 23.6365C17.6822 23.5344 17.561 23.4534 17.4276 23.3982C17.2942 23.3429 17.1512 23.3145 17.0068 23.3145C16.7152 23.3145 16.4355 23.4303 16.2293 23.6365C16.0231 23.8427 15.9072 24.1224 15.9072 24.414V25.2826C15.074 25.4505 14.2917 25.8022 13.6616 26.3145C12.693 27.102 12.079 28.2451 12.1482 29.6707C12.2177 31.103 12.9324 32.0637 13.9275 32.7132C14.7948 33.2795 15.8601 33.5725 16.8426 33.7337C17.6316 33.8633 18.4739 34.068 19.114 34.4543C19.6259 34.7635 20.0105 35.215 20.0925 35.8919C20.1035 35.9822 20.1094 36.0477 20.1103 36.0896C20.123 36.6278 19.8656 37.0378 19.4791 37.3312C18.9951 37.6984 18.3155 37.915 17.6357 37.9974C17.4752 38.0179 17.3137 38.0307 17.152 38.0358L17.0996 38.0368C17.0427 38.032 16.9855 38.0316 16.9286 38.0357ZM11.6559 14.8888H22.45C23.1769 14.8888 23.7757 14.2901 23.7757 13.5632C23.7757 12.8361 23.177 12.2374 22.45 12.2374H11.6559C10.9288 12.2374 10.3301 12.836 10.3301 13.563C10.3301 14.2901 10.9287 14.8888 11.6559 14.8888ZM40.0151 18.3937C31.445 18.3937 24.4975 25.3412 24.4975 33.9113C24.4975 42.4814 31.445 49.4289 40.0151 49.4289C42.3832 49.4289 44.6269 48.8976 46.6348 47.949C46.5305 47.6078 46.4775 47.2529 46.4776 46.896V45.1277C44.5759 46.2258 42.3688 46.8543 40.0151 46.8543C36.4411 46.8543 33.2052 45.4056 30.863 43.0634C28.5207 40.7211 27.0719 37.4854 27.0719 33.9114C27.0719 30.3375 28.5206 27.1016 30.863 24.7595C33.2052 22.4172 36.441 20.9684 40.0151 20.9684C42.5025 20.9684 44.8259 21.6703 46.7985 22.8867C46.9726 22.5036 47.212 22.1536 47.506 21.8524C46.9768 21.3097 46.6161 20.602 46.5102 19.8156C44.5342 18.9034 42.3342 18.3937 40.0151 18.3937ZM46.4778 25.3132V26.2229C46.4778 27.2013 46.8704 28.0913 47.5062 28.7433C46.8704 29.3953 46.4778 30.2854 46.4778 31.2637V33.1141C46.4778 34.0924 46.8704 34.9825 47.5062 35.6345C46.8704 36.2865 46.4778 37.1764 46.4778 38.1549V40.0053C46.4778 40.7471 46.7036 41.4381 47.0898 42.013C45.1989 43.6656 42.724 44.6671 40.0152 44.6671C37.045 44.6671 34.3561 43.4633 32.4098 41.517C30.4635 39.5706 29.2597 36.8816 29.2597 33.9116C29.2597 30.9415 30.4635 28.2525 32.4098 26.3062C34.3561 24.3599 37.045 23.156 40.0152 23.156C42.4406 23.1558 44.6785 23.9587 46.4778 25.3132ZM44.5331 29.8799C44.5898 30.0151 44.6193 30.1601 44.62 30.3067C44.6206 30.4533 44.5924 30.5986 44.5369 30.7343C44.4814 30.87 44.3997 30.9934 44.2965 31.0975C44.1933 31.2016 44.0707 31.2844 43.9355 31.3411C43.8003 31.3978 43.6553 31.4274 43.5087 31.428C43.3621 31.4287 43.2168 31.4004 43.0811 31.345C42.9454 31.2895 42.822 31.2078 42.7178 31.1046C42.6137 31.0014 42.5309 30.8787 42.4742 30.7435C42.136 29.938 41.4938 29.473 40.7886 29.2942C40.3449 29.1827 39.882 29.1715 39.4335 29.2614C39.01 29.3467 38.6203 29.5189 38.3155 29.7667C37.9357 30.0755 37.6945 30.5205 37.7213 31.0718C37.7457 31.5749 38.0084 31.92 38.3747 32.1591C38.8706 32.4829 39.5542 32.6625 40.2047 32.7693C41.1383 32.9225 42.1577 33.1786 43.0112 33.6938C43.9948 34.2877 44.7368 35.1809 44.9034 36.5541C44.9163 36.6599 44.9244 36.7858 44.9278 36.9309C44.9577 38.1884 44.3846 39.1251 43.5231 39.7789C42.8409 40.2965 41.9819 40.6154 41.1318 40.7591V41.4094C41.1318 41.556 41.1029 41.7012 41.0468 41.8367C40.9906 41.9722 40.9084 42.0953 40.8047 42.1989C40.701 42.3026 40.5779 42.3849 40.4424 42.441C40.3069 42.4971 40.1617 42.526 40.0151 42.5259C39.7189 42.5259 39.4349 42.4083 39.2255 42.1989C39.016 41.9895 38.8984 41.7055 38.8983 41.4094V40.7374C38.2064 40.603 37.5467 40.3453 36.9747 39.9644C36.0931 39.3772 35.4176 38.5108 35.1319 37.3645C35.0969 37.2225 35.0903 37.0749 35.1124 36.9303C35.1345 36.7857 35.1848 36.6468 35.2605 36.5216C35.3363 36.3965 35.4359 36.2875 35.5538 36.2008C35.6717 36.1142 35.8055 36.0516 35.9475 36.0166C36.0896 35.9817 36.2372 35.9751 36.3818 35.9971C36.5264 36.0192 36.6653 36.0696 36.7904 36.1453C36.9156 36.221 37.0246 36.3207 37.1113 36.4386C37.1979 36.5564 37.2605 36.6902 37.2954 36.8323C37.4345 37.3902 37.7681 37.8152 38.2048 38.106C38.7453 38.4659 39.4393 38.6377 40.1437 38.6208C40.2614 38.6181 40.4039 38.6066 40.5699 38.5865C41.1662 38.5142 41.7601 38.3259 42.1796 38.0078C42.5002 37.7646 42.7136 37.4258 42.7031 36.9831C42.7002 36.9271 42.695 36.8712 42.6875 36.8156C42.6185 36.2467 42.2931 35.8658 41.8597 35.6041C41.2961 35.264 40.5485 35.0827 39.847 34.9676C38.9441 34.8192 37.9639 34.5494 37.162 34.0259C36.2307 33.4179 35.5617 32.5183 35.4966 31.1762C35.432 29.8435 36.0058 28.7749 36.9109 28.039C37.4718 27.5829 38.1618 27.264 38.8983 27.1009V26.4127C38.8983 26.1165 39.016 25.8325 39.2254 25.623C39.4348 25.4136 39.7189 25.296 40.0151 25.296C40.3112 25.296 40.5953 25.4136 40.8047 25.623C41.0141 25.8325 41.1318 26.1165 41.1318 26.4127V27.0845C41.1979 27.0985 41.2638 27.1136 41.3295 27.1303C42.6714 27.4709 43.892 28.353 44.5331 29.8799Z" fill="black"/>
</svg>
