<svg width="55" height="55" viewBox="0 0 55 55" fill="none" xmlns="http://www.w3.org/2000/svg">
<g clip-path="url(#clip0_27_361)">
<path d="M51.9922 4.29688H3.00781C2.21036 4.29776 1.44582 4.61493 0.881941 5.17882C0.318058 5.7427 0.000881429 6.50724 0 7.30469L0 47.6953C0.000881429 48.4928 0.318058 49.2573 0.881941 49.8212C1.44582 50.3851 2.21036 50.7022 3.00781 50.7031H51.9922C52.7896 50.7022 53.5542 50.3851 54.1181 49.8212C54.6819 49.2573 54.9991 48.4928 55 47.6953V7.30469C54.9991 6.50724 54.6819 5.7427 54.1181 5.17882C53.5542 4.61493 52.7896 4.29776 51.9922 4.29688ZM53.2812 47.6953C53.281 48.0371 53.1451 48.3648 52.9034 48.6065C52.6617 48.8482 52.334 48.9841 51.9922 48.9844H3.00781C2.66602 48.9841 2.33831 48.8482 2.09662 48.6065C1.85494 48.3648 1.71903 48.0371 1.71875 47.6953V12.8906H53.2812V47.6953ZM53.2812 11.1719H1.71875V7.30469C1.71903 6.96289 1.85494 6.63518 2.09662 6.3935C2.33831 6.15181 2.66602 6.01591 3.00781 6.01562H51.9922C52.334 6.01591 52.6617 6.15181 52.9034 6.3935C53.1451 6.63518 53.281 6.96289 53.2812 7.30469V11.1719Z" fill="#FFC629"/>
<path d="M5.15625 7.73438H4.29688C4.06895 7.73438 3.85037 7.82492 3.68921 7.98608C3.52804 8.14724 3.4375 8.36583 3.4375 8.59375C3.4375 8.82167 3.52804 9.04026 3.68921 9.20142C3.85037 9.36258 4.06895 9.45312 4.29688 9.45312H5.15625C5.38417 9.45312 5.60276 9.36258 5.76392 9.20142C5.92508 9.04026 6.01562 8.82167 6.01562 8.59375C6.01562 8.36583 5.92508 8.14724 5.76392 7.98608C5.60276 7.82492 5.38417 7.73438 5.15625 7.73438ZM8.59375 7.73438H7.73438C7.50645 7.73438 7.28787 7.82492 7.12671 7.98608C6.96554 8.14724 6.875 8.36583 6.875 8.59375C6.875 8.82167 6.96554 9.04026 7.12671 9.20142C7.28787 9.36258 7.50645 9.45312 7.73438 9.45312H8.59375C8.82167 9.45312 9.04026 9.36258 9.20142 9.20142C9.36258 9.04026 9.45312 8.82167 9.45312 8.59375C9.45312 8.36583 9.36258 8.14724 9.20142 7.98608C9.04026 7.82492 8.82167 7.73438 8.59375 7.73438ZM12.0312 7.73438H11.1719C10.944 7.73438 10.7254 7.82492 10.5642 7.98608C10.403 8.14724 10.3125 8.36583 10.3125 8.59375C10.3125 8.82167 10.403 9.04026 10.5642 9.20142C10.7254 9.36258 10.944 9.45312 11.1719 9.45312H12.0312C12.2592 9.45312 12.4778 9.36258 12.6389 9.20142C12.8001 9.04026 12.8906 8.82167 12.8906 8.59375C12.8906 8.36583 12.8001 8.14724 12.6389 7.98608C12.4778 7.82492 12.2592 7.73438 12.0312 7.73438ZM35.6641 15.4688H19.3359C18.5385 15.4696 17.7739 15.7868 17.2101 16.3507C16.6462 16.9146 16.329 17.6791 16.3281 18.4766V34.8047C16.329 35.6021 16.6462 36.3667 17.2101 36.9306C17.7739 37.4944 18.5385 37.8116 19.3359 37.8125H35.6641C36.4615 37.8116 37.226 37.4944 37.7899 36.9306C38.3538 36.3667 38.671 35.6021 38.6719 34.8047V18.4766C38.671 17.6791 38.3538 16.9146 37.7899 16.3507C37.226 15.7868 36.4615 15.4696 35.6641 15.4688ZM36.9531 34.8047C36.9528 35.1465 36.8169 35.4742 36.5753 35.7159C36.3336 35.9576 36.0059 36.0935 35.6641 36.0938H19.3359C18.9941 36.0935 18.6664 35.9576 18.4247 35.7159C18.1831 35.4742 18.0472 35.1465 18.0469 34.8047V18.4766C18.0472 18.1348 18.1831 17.8071 18.4247 17.5654C18.6664 17.3237 18.9941 17.1878 19.3359 17.1875H35.6641C36.0059 17.1878 36.3336 17.3237 36.5753 17.5654C36.8169 17.8071 36.9528 18.1348 36.9531 18.4766V34.8047Z" fill="#FFC629"/>
<path d="M21.9158 33.4015C22.0469 33.4768 22.1955 33.5161 22.3467 33.5156C22.4978 33.5151 22.6462 33.4747 22.7768 33.3985L33.0893 27.3829C33.219 27.3072 33.3266 27.1988 33.4014 27.0686C33.4762 26.9384 33.5156 26.7908 33.5156 26.6406C33.5156 26.4904 33.4762 26.3428 33.4014 26.2126C33.3266 26.0824 33.219 25.974 33.0893 25.8983L22.7768 19.8827C22.6462 19.8065 22.4978 19.7661 22.3466 19.7656C22.1955 19.7651 22.0468 19.8045 21.9157 19.8798C21.7846 19.9551 21.6757 20.0636 21.6 20.1945C21.5243 20.3253 21.4844 20.4738 21.4844 20.625V32.6562C21.4844 32.8074 21.5242 32.956 21.6 33.0868C21.6757 33.2177 21.7847 33.3262 21.9158 33.4015ZM23.2031 22.1213L30.9507 26.6406L23.2031 31.1599V22.1213ZM6.01562 43.8281H11.1719V45.5469C11.1719 45.7748 11.2624 45.9934 11.4236 46.1545C11.5847 46.3157 11.8033 46.4062 12.0312 46.4062H15.4688C15.6967 46.4062 15.9153 46.3157 16.0764 46.1545C16.2376 45.9934 16.3281 45.7748 16.3281 45.5469V43.8281H48.9844C49.2123 43.8281 49.4309 43.7376 49.592 43.5764C49.7532 43.4152 49.8438 43.1966 49.8438 42.9687C49.8438 42.7408 49.7532 42.5222 49.592 42.3611C49.4309 42.1999 49.2123 42.1094 48.9844 42.1094H16.3281V40.3906C16.3281 40.1627 16.2376 39.9441 16.0764 39.7829C15.9153 39.6218 15.6967 39.5312 15.4688 39.5312H12.0312C11.8033 39.5312 11.5847 39.6218 11.4236 39.7829C11.2624 39.9441 11.1719 40.1627 11.1719 40.3906V42.1094H6.01562C5.7877 42.1094 5.56912 42.1999 5.40796 42.3611C5.24679 42.5222 5.15625 42.7408 5.15625 42.9687C5.15625 43.1966 5.24679 43.4152 5.40796 43.5764C5.56912 43.7376 5.7877 43.8281 6.01562 43.8281ZM12.8906 41.25H14.6094V44.6875H12.8906V41.25Z" fill="#FFC629"/>
</g>
<defs>
<clipPath id="clip0_27_361">
<rect width="55" height="55" fill="white"/>
</clipPath>
</defs>
</svg>
