<svg width="60" height="61" viewBox="0 0 60 61" fill="none" xmlns="http://www.w3.org/2000/svg">
<path fill-rule="evenodd" clip-rule="evenodd" d="M12.5 15.9683C13.5355 15.9683 14.375 16.8077 14.375 17.8433V42.8433C14.375 44.5693 15.7741 45.9683 17.5 45.9683H25C26.0355 45.9683 26.875 46.8078 26.875 47.8433C26.875 48.8788 26.0355 49.7183 25 49.7183H17.5C13.7031 49.7183 10.625 46.6403 10.625 42.8433V17.8433C10.625 16.8077 11.4645 15.9683 12.5 15.9683ZM47.5 15.9683C48.5355 15.9683 49.375 16.8077 49.375 17.8433V25.3433C49.375 26.3788 48.5355 27.2183 47.5 27.2183C46.4645 27.2183 45.625 26.3788 45.625 25.3433V17.8433C45.625 16.8077 46.4645 15.9683 47.5 15.9683Z" fill="#F7C74F"/>
<path fill-rule="evenodd" clip-rule="evenodd" d="M31.7923 8.88641C30.7163 8.13321 29.284 8.13321 28.208 8.88641L6.07541 24.3793C5.22706 24.9731 4.05796 24.7668 3.46411 23.9185C2.87026 23.0701 3.07658 21.901 3.92493 21.3072L26.0575 5.81432C28.4248 4.15727 31.5755 4.15727 33.9428 5.81432L56.0755 21.3072C56.9238 21.901 57.13 23.0701 56.5363 23.9185C55.9425 24.7668 54.7733 24.9731 53.925 24.3793L31.7923 8.88641ZM37.5 29.7183C33.0128 29.7183 29.375 33.356 29.375 37.8433C29.375 42.3305 33.0128 45.9683 37.5 45.9683C41.9873 45.9683 45.625 42.3305 45.625 37.8433C45.625 33.356 41.9873 29.7183 37.5 29.7183ZM25.625 37.8433C25.625 31.2848 30.9415 25.9683 37.5 25.9683C44.0585 25.9683 49.375 31.2848 49.375 37.8433C49.375 44.4018 44.0585 49.7183 37.5 49.7183C30.9415 49.7183 25.625 44.4018 25.625 37.8433Z" fill="#F7C74F"/>
<path fill-rule="evenodd" clip-rule="evenodd" d="M42.8504 44.3751C43.5856 43.6459 44.7729 43.6506 45.5021 44.3859L52.5816 51.5229C53.3109 52.2581 53.3059 53.4454 52.5709 54.1746C51.8356 54.9039 50.6484 54.8991 49.9191 54.1639L42.8396 47.0266C42.1104 46.2914 42.1154 45.1044 42.8504 44.3751Z" fill="#F7C74F"/>
</svg>
