<svg width="64" height="64" viewBox="0 0 64 64" fill="none" xmlns="http://www.w3.org/2000/svg">
<path d="M59 11.03H9.1C7.45 11.03 6.1 12.38 6.1 14.03V16.45H5.55C4.60848 16.45 3.70552 16.824 3.03977 17.4898C2.37402 18.1556 2 19.0585 2 20C2 20.9415 2.37402 21.8445 3.03977 22.5103C3.70552 23.176 4.60848 23.55 5.55 23.55H6.1V28.45H5.55C4.60848 28.45 3.70552 28.824 3.03977 29.4898C2.37402 30.1556 2 31.0585 2 32C2 32.9415 2.37402 33.8445 3.03977 34.5103C3.70552 35.176 4.60848 35.55 5.55 35.55H6.1V40.45H5.55C4.60848 40.45 3.70552 40.824 3.03977 41.4898C2.37402 42.1556 2 43.0585 2 44C2 44.9415 2.37402 45.8445 3.03977 46.5103C3.70552 47.176 4.60848 47.55 5.55 47.55H6.1V49.97C6.1 51.62 7.45 52.97 9.1 52.97H59C60.65 52.97 62 51.62 62 49.97V14.03C62 12.38 60.65 11.03 59 11.03ZM4 20C4 19.15 4.69 18.45 5.55 18.45H8.65C9.5 18.45 10.2 19.14 10.2 20C10.2 20.86 9.5 21.55 8.65 21.55H5.55C4.69 21.55 4 20.85 4 20ZM4 32C4 31.15 4.69 30.45 5.55 30.45H8.65C9.5 30.45 10.2 31.14 10.2 32C10.2 32.86 9.5 33.55 8.65 33.55H5.55C4.69 33.55 4 32.85 4 32ZM4 44C4 43.15 4.69 42.45 5.55 42.45H8.65C9.5 42.45 10.2 43.14 10.2 44C10.2 44.86 9.5 45.55 8.65 45.55H5.55C4.69 45.55 4 44.85 4 44ZM8.1 49.97V47.55H8.65C9.59152 47.55 10.4945 47.176 11.1602 46.5103C11.826 45.8445 12.2 44.9415 12.2 44C12.2 43.0585 11.826 42.1556 11.1602 41.4898C10.4945 40.824 9.59152 40.45 8.65 40.45H8.1V35.55H8.65C9.59152 35.55 10.4945 35.176 11.1602 34.5103C11.826 33.8445 12.2 32.9415 12.2 32C12.2 31.0585 11.826 30.1556 11.1602 29.4898C10.4945 28.824 9.59152 28.45 8.65 28.45H8.1V23.55H8.65C9.59152 23.55 10.4945 23.176 11.1602 22.5103C11.826 21.8445 12.2 20.9415 12.2 20C12.2 19.0585 11.826 18.1556 11.1602 17.4898C10.4945 16.824 9.59152 16.45 8.65 16.45H8.1V14.03C8.1 13.48 8.55 13.03 9.1 13.03H53C53.55 13.03 54 13.48 54 14.03V49.97C54 50.52 53.55 50.97 53 50.97H9.1C8.55 50.97 8.1 50.52 8.1 49.97ZM60 49.97C60 50.52 59.55 50.97 59 50.97H55.82C55.93 50.66 56 50.32 56 49.97V14.03C56 13.68 55.93 13.34 55.82 13.03H59C59.55 13.03 60 13.48 60 14.03V49.97Z" fill="#FFC629"/>
<path d="M47.24 19H18.96C17.31 19 15.96 20.35 15.96 22V42C15.96 43.65 17.31 45 18.96 45H47.24C48.89 45 50.24 43.65 50.24 42V22C50.24 20.35 48.89 19 47.24 19ZM18.96 21H47.24C47.79 21 48.24 21.45 48.24 22V31.7L44.63 28.09C44.5374 27.9973 44.4276 27.9237 44.3066 27.8736C44.1856 27.8234 44.0559 27.7976 43.925 27.7976C43.794 27.7976 43.6643 27.8234 43.5433 27.8736C43.4224 27.9237 43.3125 27.9973 43.22 28.09L36.38 34.93L29.54 28.09C29.4474 27.9973 29.3376 27.9237 29.2166 27.8736C29.0956 27.8234 28.9659 27.7976 28.835 27.7976C28.704 27.7976 28.5743 27.8234 28.4533 27.8736C28.3324 27.9237 28.2225 27.9973 28.13 28.09L17.96 38.24V22C17.96 21.45 18.41 21 18.96 21ZM17.96 42V41.07L28.82 30.21L41.62 43H18.96C18.41 43 17.96 42.55 17.96 42ZM47.24 43H44.45L37.79 36.34L43.92 30.21L48.24 34.53V42C48.24 42.55 47.79 43 47.24 43Z" fill="#FFC629"/>
<path d="M36.3701 29.01C38.0201 29.01 39.3701 27.66 39.3701 26.01C39.3701 24.36 38.0201 23.01 36.3701 23.01C34.7201 23.01 33.3701 24.36 33.3701 26.01C33.3701 27.66 34.7101 29.01 36.3701 29.01ZM36.3701 25.01C36.9201 25.01 37.3701 25.46 37.3701 26.01C37.3701 26.56 36.9201 27.01 36.3701 27.01C35.8201 27.01 35.3701 26.56 35.3701 26.01C35.3701 25.46 35.8201 25.01 36.3701 25.01Z" fill="#FFC629"/>
</svg>
