<svg width="80" height="80" viewBox="0 0 80 80" fill="none" xmlns="http://www.w3.org/2000/svg">
<g id="24-hours 1">
<path id="Vector" d="M55.3272 62.5985C55.158 60.8862 53.818 59.5539 52.0688 59.3585L36.738 57.6678C36.2581 57.629 35.777 57.728 35.3514 57.9531C34.9257 58.1782 34.5731 58.5201 34.3349 58.9385C34.3334 58.9401 32.9195 61.4647 32.2165 62.6739C32.0116 63.0269 31.9554 63.4467 32.0601 63.8411C32.1649 64.2355 32.422 64.5722 32.7749 64.777C33.1279 64.9818 33.5477 65.0381 33.9421 64.9333C34.3365 64.8286 34.6732 64.5715 34.878 64.2185C35.4334 63.2601 36.4319 61.4893 36.8334 60.7739L51.7303 62.417C51.878 62.4339 52.2257 62.5124 52.2595 62.8247L52.2795 63.1447C52.3195 63.6216 52.3165 64.097 52.2749 64.5601C51.8149 69.417 47.3749 73.5632 42.3795 73.8001C31.8919 74.3109 22.4134 70.7909 15.6472 63.9293C8.94416 57.1324 5.59801 47.717 6.22878 37.4185C6.53185 32.4678 10.758 28.1155 15.6472 27.7185C16.1134 27.6832 16.5934 27.6847 17.0765 27.7309L17.3195 27.7478C17.6995 27.7893 17.7872 28.097 17.8042 28.2739L19.2626 43.0616C18.5303 43.4509 16.758 44.3924 15.7826 44.9185C15.4321 45.117 15.1733 45.445 15.062 45.8322C14.9507 46.2193 14.9956 46.6347 15.1872 46.989C15.3788 47.3434 15.7017 47.6085 16.0866 47.7273C16.4715 47.8462 16.8877 47.8093 17.2457 47.6247C18.4872 46.9524 21.0334 45.6047 21.0395 45.6016C21.9195 45.1309 22.4426 44.1955 22.3657 43.1832L20.8642 27.9678C20.6888 26.2232 19.3672 24.8755 17.6503 24.6878L17.3595 24.6647C16.7073 24.605 16.0511 24.5999 15.398 24.6493C9.04108 25.1662 3.55031 30.8093 3.15647 37.2278C2.47185 48.4124 6.13032 58.6616 13.4549 66.0893C20.3888 73.117 29.9026 76.9232 40.4288 76.9232C41.1226 76.9232 41.8211 76.9062 42.5242 76.8739C48.9903 76.5662 54.7365 71.1724 55.3365 64.8478C55.3965 64.2062 55.3995 63.5478 55.3426 62.8462L55.3272 62.5985Z" fill="#FFC629"/>
<path id="Vector_2" d="M16.7482 49.3831C16.566 49.4706 16.4028 49.5932 16.268 49.7438C16.1333 49.8944 16.0295 50.0701 15.9626 50.2608C15.8957 50.4515 15.8671 50.6536 15.8784 50.8554C15.8896 51.0572 15.9405 51.2548 16.0282 51.4369C17.318 54.1264 19.0485 56.5813 21.1482 58.7C23.2989 60.8703 25.8067 62.6547 28.562 63.9754C28.9292 64.1527 29.3518 64.1768 29.7369 64.0425C30.1219 63.9082 30.4378 63.6264 30.6151 63.2592C30.7924 62.892 30.8165 62.4694 30.6822 62.0844C30.5479 61.6993 30.2661 61.3834 29.8989 61.2061C25.0403 58.8815 21.1238 54.9638 18.8005 50.1046C18.7135 49.9221 18.5914 49.7585 18.441 49.6234C18.2907 49.4882 18.1151 49.3841 17.9244 49.317C17.7336 49.25 17.5315 49.2213 17.3297 49.2326C17.1278 49.244 16.9302 49.2951 16.7482 49.3831ZM44.6158 3.0769C33.1174 3.0769 22.3958 9.2646 16.6328 19.2277C16.5248 19.4027 16.453 19.5976 16.4216 19.8008C16.3903 20.004 16.4 20.2115 16.4501 20.4109C16.5003 20.6103 16.59 20.7977 16.7138 20.9618C16.8376 21.126 16.9931 21.2637 17.171 21.3668C17.349 21.4698 17.5458 21.5362 17.7498 21.5619C17.9538 21.5876 18.1609 21.5721 18.3589 21.5164C18.5568 21.4607 18.7416 21.3659 18.9023 21.2375C19.0629 21.1092 19.1962 20.95 19.2943 20.7692C24.5112 11.7538 34.2112 6.15383 44.6158 6.15383C60.7343 6.15383 73.8466 19.2661 73.8466 35.3846C73.8466 45.7877 68.2451 55.4892 59.2297 60.7046C59.049 60.8027 58.8897 60.936 58.7614 61.0967C58.633 61.2573 58.5382 61.4421 58.4825 61.64C58.4268 61.838 58.4113 62.0451 58.437 62.2491C58.4627 62.4531 58.5291 62.6499 58.6321 62.8279C58.7352 63.0058 58.8729 63.1613 59.0371 63.2851C59.2013 63.4089 59.3886 63.4986 59.588 63.5488C59.7874 63.5989 59.9949 63.6086 60.1981 63.5773C60.4013 63.5459 60.5962 63.4741 60.7712 63.3661C70.7343 57.6046 76.9235 46.8831 76.9235 35.3846C76.9235 17.5708 62.4297 3.0769 44.6158 3.0769Z" fill="#FFC629"/>
<path id="Vector_3" d="M43.6419 31.0032C44.1342 30.0462 44.3804 29.1309 44.3804 28.257C44.3804 26.7509 43.8896 25.5709 42.9081 24.717C41.9265 23.8632 40.5865 23.437 38.8881 23.437C37.7096 23.437 36.6711 23.6739 35.7696 24.1462C34.8681 24.6201 34.1758 25.2816 33.6896 26.1355C33.2035 26.9893 32.9619 27.9493 32.9619 29.0139H35.8819C35.8819 28.0124 36.1419 27.2232 36.6635 26.6462C37.185 26.0693 37.9173 25.7816 38.8635 25.7816C39.6573 25.7816 40.2881 26.0385 40.7558 26.5509C41.225 27.0632 41.4588 27.737 41.4588 28.5693C41.4588 29.2032 41.2804 29.8339 40.9235 30.4616C40.5681 31.0909 39.9681 31.8739 39.1265 32.8109L33.2973 39.1693V41.177H45.0635V38.8462H36.9388L41.2173 34.2662C42.3435 33.0478 43.1496 31.9601 43.6419 31.0032ZM59.345 34.9385H57.1696V23.677H54.1527L46.605 35.5047L46.6896 37.2832H54.2496V41.177H57.1696V37.2832H59.345V34.9385ZM54.2496 34.9385H49.6696L54.0327 28.0155L54.2496 27.6309V34.9385Z" fill="#FFC629"/>
</g>
</svg>
