<svg width="20" height="21" viewBox="0 0 20 21" fill="none" xmlns="http://www.w3.org/2000/svg">
<path d="M3.12511 9.5492C2.95935 9.5492 2.80038 9.61504 2.68317 9.73225C2.56596 9.84946 2.50011 10.0084 2.50011 10.1742C2.50011 10.34 2.56596 10.4989 2.68317 10.6161C2.80038 10.7333 2.95935 10.7992 3.12511 10.7992L15.2464 10.7992L10.2076 15.3342C10.0872 15.4457 10.0155 15.6001 10.008 15.764C10.0004 15.9279 10.0576 16.0882 10.1673 16.2103C10.2769 16.3324 10.4301 16.4065 10.5939 16.4165C10.7577 16.4266 10.9188 16.3719 11.0426 16.2642L17.2926 10.6392C17.3579 10.5806 17.4101 10.5089 17.4458 10.4288C17.4815 10.3487 17.5 10.2619 17.5 10.1742C17.5 10.0865 17.4815 9.99974 17.4458 9.91962C17.4101 9.83951 17.3579 9.76781 17.2926 9.7092L11.0426 4.0842C10.9188 3.97648 10.7577 3.92176 10.5939 3.93185C10.4301 3.94193 10.2769 4.01602 10.1673 4.13811C10.0576 4.26021 10.0004 4.42051 10.008 4.58442C10.0155 4.74833 10.0872 4.9027 10.2076 5.0142L15.2464 9.5492L3.12511 9.5492Z" fill="#1E1E1E"/>
</svg>
