<svg width="90" height="90" viewBox="0 0 90 90" fill="none" xmlns="http://www.w3.org/2000/svg">
<g id="cancel 1" clip-path="url(#clip0_57_1035)">
<path id="Vector" d="M44.9998 10.8C26.0998 10.8 10.7998 26.1 10.7998 45C10.7998 63.9 26.0998 79.2 44.9998 79.2C63.8998 79.2 79.1998 63.9 79.1998 45C79.1998 26.1 63.8998 10.8 44.9998 10.8ZM44.9998 75.6C28.0798 75.6 14.3998 61.92 14.3998 45C14.3998 28.08 28.0798 14.4 44.9998 14.4C61.9198 14.4 75.5998 28.08 75.5998 45C75.5998 61.92 61.9198 75.6 44.9998 75.6ZM47.5198 45L58.8598 33.66C59.5798 32.94 59.5798 31.86 58.8598 31.14C58.1398 30.42 57.0598 30.42 56.3398 31.14L44.9998 42.48L33.6598 31.14C32.9398 30.42 31.8598 30.42 31.1398 31.14C30.4198 31.86 30.4198 32.94 31.1398 33.66L42.4798 45L31.1398 56.34C30.4198 57.06 30.4198 58.14 31.1398 58.86C31.8598 59.58 32.9398 59.58 33.6598 58.86L44.9998 47.52L56.3398 58.86C57.0598 59.58 58.1398 59.58 58.8598 58.86C59.5798 58.14 59.5798 57.06 58.8598 56.34L47.5198 45Z" fill="#FFC629"/>
<path id="Vector_2" d="M219.6 -963V552.6H-1386V-963H219.6ZM226.8 -970.2H-1393.2V559.8H226.8V-970.2Z" fill="#0000FF"/>
</g>
<defs>
<clipPath id="clip0_57_1035">
<rect width="90" height="90" fill="white"/>
</clipPath>
</defs>
</svg>
