<svg width="73" height="63" viewBox="0 0 73 63" fill="none" xmlns="http://www.w3.org/2000/svg">
<g id="credit-score 1">
<path id="Vector" d="M4.5625 13.2194C4.5625 13.4743 4.68267 13.7187 4.89658 13.899C5.11049 14.0792 5.40061 14.1805 5.70312 14.1805H11.4062V57.4319C11.4062 58.4515 11.8869 59.4294 12.7426 60.1504C13.5982 60.8714 14.7587 61.2764 15.9688 61.2764H63.875C65.085 61.2764 66.2455 60.8714 67.1012 60.1504C67.9568 59.4294 68.4375 58.4515 68.4375 57.4319V53.5873C68.4375 53.3324 68.3173 53.0879 68.1034 52.9077C67.8895 52.7274 67.5994 52.6262 67.2969 52.6262H63.875V5.53024C63.875 4.51059 63.3943 3.53271 62.5387 2.81172C61.683 2.09072 60.5225 1.68567 59.3125 1.68567H9.125C7.91495 1.68567 6.75446 2.09072 5.89883 2.81172C5.04319 3.53271 4.5625 4.51059 4.5625 5.53024V13.2194ZM66.1562 57.4319C66.1562 57.9417 65.9159 58.4306 65.4881 58.7911C65.0603 59.1516 64.48 59.3542 63.875 59.3542H19.9187C20.3211 58.7703 20.5325 58.107 20.5312 57.4319V54.5485H66.1562V57.4319ZM61.5938 5.53024V52.6262H19.3906C19.0881 52.6262 18.798 52.7274 18.5841 52.9077C18.3702 53.0879 18.25 53.3324 18.25 53.5873V57.4319C18.25 57.9417 18.0097 58.4306 17.5818 58.7911C17.154 59.1516 16.5738 59.3542 15.9688 59.3542C15.3637 59.3542 14.7835 59.1516 14.3557 58.7911C13.9278 58.4306 13.6875 57.9417 13.6875 57.4319V5.53024C13.6828 4.85335 13.4639 4.18978 13.0533 3.60795H59.3125C59.9175 3.60795 60.4978 3.81048 60.9256 4.17098C61.3534 4.53147 61.5938 5.02041 61.5938 5.53024ZM6.84375 5.53024C6.84375 5.02041 7.0841 4.53147 7.51191 4.17098C7.93973 3.81048 8.51997 3.60795 9.125 3.60795C9.73003 3.60795 10.3103 3.81048 10.7381 4.17098C11.1659 4.53147 11.4062 5.02041 11.4062 5.53024V12.2582H6.84375V5.53024Z" fill="#FFC107"/>
<path id="Vector_2" d="M17.1094 24.753H26.2344C26.5369 24.753 26.827 24.6517 27.0409 24.4715C27.2548 24.2912 27.375 24.0467 27.375 23.7918C27.3738 21.9483 28.072 20.1527 29.3677 18.6673C30.6634 17.1819 32.4888 16.0844 34.5772 15.5351C36.6656 14.9858 38.9077 15.0135 40.9761 15.6141C43.0446 16.2148 44.8309 17.3569 46.0744 18.8737L39.9276 21.661C39.3037 21.1669 38.4915 20.8761 37.6364 20.8404C36.7813 20.8048 35.9391 21.0268 35.2604 21.4666C34.5817 21.9064 34.1109 22.5353 33.9323 23.2409C33.7536 23.9464 33.8787 24.6825 34.2852 25.3175C34.6917 25.9524 35.3531 26.4447 36.151 26.7063C36.9489 26.9679 37.8312 26.9817 38.6401 26.7452C39.449 26.5088 40.1316 26.0375 40.5658 25.4157C41 24.794 41.1575 24.0623 41.01 23.3516L47.158 20.5643C47.6512 21.5897 47.9053 22.6855 47.9062 23.7918C47.9062 24.0467 48.0264 24.2912 48.2403 24.4715C48.4542 24.6517 48.7444 24.753 49.0469 24.753H58.1719C58.4744 24.753 58.7645 24.6517 58.9784 24.4715C59.1923 24.2912 59.3125 24.0467 59.3125 23.7918C59.3125 18.9485 57.0292 14.3036 52.965 10.8789C48.9007 7.45414 43.3884 5.53015 37.6406 5.53015C31.8929 5.53015 26.3806 7.45414 22.3163 10.8789C18.252 14.3036 15.9688 18.9485 15.9688 23.7918C15.9687 24.0467 16.0889 24.2912 16.3028 24.4715C16.5167 24.6517 16.8069 24.753 17.1094 24.753ZM37.6406 24.753C37.415 24.753 37.1945 24.6966 37.0069 24.591C36.8194 24.4854 36.6732 24.3353 36.5868 24.1597C36.5005 23.984 36.4779 23.7908 36.5219 23.6043C36.5659 23.4179 36.6746 23.2466 36.8341 23.1122C36.9936 22.9778 37.1968 22.8863 37.4181 22.8492C37.6394 22.8121 37.8687 22.8311 38.0771 22.9039C38.2855 22.9766 38.4637 23.0998 38.589 23.2579C38.7144 23.4159 38.7812 23.6017 38.7812 23.7918C38.7812 24.0467 38.6611 24.2912 38.4472 24.4715C38.2333 24.6517 37.9431 24.753 37.6406 24.753ZM29.6255 15.6779L24.7789 11.595C28.0259 9.15485 32.1566 7.71155 36.5 7.49953V13.2664C33.9706 13.4619 31.5723 14.3032 29.6255 15.6779ZM38.7812 13.2654V7.49857C43.1248 7.71086 47.2555 9.1545 50.5023 11.595L45.6558 15.6779C43.7091 14.3028 41.3108 13.4612 38.7812 13.2654ZM50.1362 22.8307C50.015 21.7348 49.6897 20.6618 49.1723 19.6512L53.0094 17.9097L51.9281 16.218L48.0887 17.9596C47.8355 17.64 47.5621 17.332 47.2698 17.0369L52.1266 12.9463C55.0266 15.684 56.7434 19.1673 56.9982 22.8307H50.1362ZM23.1547 12.9463L28.0092 17.0369C26.3773 18.6778 25.3782 20.6989 25.1451 22.8307H18.2831C18.5373 19.1672 20.2542 15.6838 23.1547 12.9463ZM17.1094 43.9758H33.0781C33.3806 43.9758 33.6708 43.8745 33.8847 43.6943C34.0986 43.514 34.2188 43.2696 34.2188 43.0147V29.5587C34.2188 29.3038 34.0986 29.0593 33.8847 28.8791C33.6708 28.6988 33.3806 28.5975 33.0781 28.5975H17.1094C16.8069 28.5975 16.5167 28.6988 16.3028 28.8791C16.0889 29.0593 15.9688 29.3038 15.9688 29.5587V43.0147C15.9688 43.2696 16.0889 43.514 16.3028 43.6943C16.5167 43.8745 16.8069 43.9758 17.1094 43.9758ZM23.3828 35.8061C23.3828 35.521 23.4832 35.2422 23.6712 35.0051C23.8592 34.768 24.1264 34.5833 24.439 34.4741C24.7516 34.365 25.0956 34.3365 25.4275 34.3921C25.7594 34.4477 26.0643 34.585 26.3036 34.7867C26.5428 34.9883 26.7058 35.2452 26.7718 35.5248C26.8378 35.8045 26.8039 36.0944 26.6744 36.3578C26.545 36.6213 26.3257 36.8464 26.0443 37.0048C25.7629 37.1633 25.4321 37.2478 25.0938 37.2478C24.64 37.2478 24.2048 37.0959 23.8839 36.8256C23.5631 36.5552 23.3828 36.1885 23.3828 35.8061ZM25.0938 39.1701C26.0013 39.1701 26.8717 39.4739 27.5134 40.0146C28.1551 40.5554 28.5156 41.2888 28.5156 42.0535H21.6719C21.6719 41.2888 22.0324 40.5554 22.6741 40.0146C23.3158 39.4739 24.1862 39.1701 25.0938 39.1701ZM18.25 30.5198H31.9375V42.0535H30.7969C30.7946 41.2393 30.5463 40.4389 30.0754 39.728C29.6044 39.017 28.9263 38.4188 28.105 37.9898C28.7339 37.3855 29.0823 36.6099 29.0859 35.8061C29.0859 34.9139 28.6653 34.0583 27.9167 33.4274C27.168 32.7965 26.1525 32.4421 25.0938 32.4421C24.035 32.4421 23.0195 32.7965 22.2708 33.4274C21.5222 34.0583 21.1016 34.9139 21.1016 35.8061C21.1052 36.6099 21.4536 37.3855 22.0825 37.9898C21.2612 38.4188 20.5831 39.017 20.1121 39.728C19.6412 40.4389 19.3929 41.2393 19.3906 42.0535H18.25V30.5198ZM58.1719 28.5975H37.6406C37.3381 28.5975 37.048 28.6988 36.8341 28.8791C36.6202 29.0593 36.5 29.3038 36.5 29.5587V33.4033C36.5 33.6582 36.6202 33.9026 36.8341 34.0829C37.048 34.2631 37.3381 34.3644 37.6406 34.3644H58.1719C58.4744 34.3644 58.7645 34.2631 58.9784 34.0829C59.1923 33.9026 59.3125 33.6582 59.3125 33.4033V29.5587C59.3125 29.3038 59.1923 29.0593 58.9784 28.8791C58.7645 28.6988 58.4744 28.5975 58.1719 28.5975ZM57.0312 32.4421H38.7812V30.5198H57.0312V32.4421Z" fill="#FFC107"/>
<path id="Vector_3" d="M59.3125 36.2867H41.0625V38.209H59.3125V36.2867Z" fill="#FFC107"/>
<path id="Vector_4" d="M59.3125 40.1313H36.5V42.0536H59.3125V40.1313Z" fill="#FFC107"/>
<path id="Vector_5" d="M59.3125 43.9758H36.5V45.8981H59.3125V43.9758Z" fill="#FFC107"/>
<path id="Vector_6" d="M59.3125 47.8204H17.1094V49.7427H59.3125V47.8204Z" fill="#FFC107"/>
</g>
</svg>
