<svg width="26" height="26" viewBox="0 0 26 26" fill="none" xmlns="http://www.w3.org/2000/svg">
<g clip-path="url(#clip0_57_122)">
<path d="M4.74744 0.000488281C2.11757 0.000488281 0 2.11806 0 4.74793V21.2531C0 23.8829 2.11757 26.0005 4.74744 26.0005H13.6931V15.8361H11.0053V12.1766H13.6931V9.05013C13.6931 6.59378 15.2811 4.33843 18.9394 4.33843C20.4206 4.33843 21.5158 4.48063 21.5158 4.48063L21.4297 7.89801C21.4297 7.89801 20.3127 7.88746 19.0938 7.88746C17.7745 7.88746 17.563 8.49529 17.563 9.50435V12.1767H21.5345L21.3614 15.8362H17.563V26.0005H21.2526C23.8824 26.0005 26 23.883 26 21.2531V4.74796C26 2.11808 23.8824 0.000514281 21.2526 0.000514281L4.74744 0.000488281Z" fill="white"/>
</g>
<defs>
<clipPath id="clip0_57_122">
<rect width="26" height="26" fill="white" transform="translate(0 0.000488281)"/>
</clipPath>
</defs>
</svg>
