<svg width="18" height="13" viewBox="0 0 18 13" fill="none" xmlns="http://www.w3.org/2000/svg">
<path d="M17.7839 4.04743L9.50265 12.3449C9.36128 12.4867 9.19387 12.5576 9.00042 12.5576C8.80697 12.5576 8.63956 12.4867 8.49819 12.3449L0.216936 4.04743C0.0755673 3.90559 0.00488281 3.73576 0.00488281 3.53793C0.00488281 3.34011 0.0755673 3.17028 0.216936 3.02844L2.06961 1.18083C2.21098 1.039 2.37839 0.968079 2.57185 0.968079C2.7653 0.968079 2.93271 1.039 3.07408 1.18083L9.00042 7.12678L14.9268 1.18083C15.0681 1.039 15.2355 0.968079 15.429 0.968079C15.6224 0.968079 15.7899 1.039 15.9312 1.18083L17.7839 3.02844C17.9253 3.17028 17.996 3.34011 17.996 3.53793C17.996 3.73576 17.9253 3.90559 17.7839 4.04743Z" fill="#FFC629"/>
</svg>
