<svg width="18" height="13" viewBox="0 0 18 13" fill="none" xmlns="http://www.w3.org/2000/svg">
<path d="M0.216099 9.01825L8.49735 0.720803C8.63872 0.578966 8.80613 0.508048 8.99958 0.508048C9.19303 0.508048 9.36044 0.578966 9.50181 0.720803L17.7831 9.01825C17.9244 9.16008 17.9951 9.32991 17.9951 9.52774C17.9951 9.72556 17.9244 9.89539 17.7831 10.0372L15.9304 11.8848C15.789 12.0267 15.6216 12.0976 15.4282 12.0976C15.2347 12.0976 15.0673 12.0267 14.9259 11.8848L8.99958 5.9389L3.07324 11.8848C2.93187 12.0267 2.76446 12.0976 2.57101 12.0976C2.37756 12.0976 2.21015 12.0267 2.06878 11.8848L0.216099 10.0372C0.0747299 9.89539 0.00404549 9.72556 0.00404549 9.52774C0.00404549 9.32991 0.0747299 9.16008 0.216099 9.01825Z" fill="#FFC629"/>
</svg>
