<svg width="120" height="120" viewBox="0 0 120 120" fill="none" xmlns="http://www.w3.org/2000/svg">
<g id="fast-time 1">
<g id="Layer 2">
<path id="Vector" d="M105.456 35.808C99.2601 29.6275 91.0054 25.9447 82.2672 25.4622C73.529 24.9797 64.919 27.7313 58.0801 33.192H32.8801C32.4027 33.192 31.9449 33.3816 31.6073 33.7192C31.2698 34.0568 31.0801 34.5146 31.0801 34.992C31.0801 35.4694 31.2698 35.9272 31.6073 36.2648C31.9449 36.6024 32.4027 36.792 32.8801 36.792H54.2401C52.246 38.9355 50.5249 41.3176 49.1161 43.884H20.8081C20.3307 43.884 19.8729 44.0736 19.5353 44.4112C19.1978 44.7488 19.0081 45.2066 19.0081 45.684C19.0081 46.1614 19.1978 46.6192 19.5353 46.9568C19.8729 47.2944 20.3307 47.484 20.8081 47.484H47.3881C45.2091 52.8331 44.3569 58.6301 44.9041 64.38H32.9041C32.4267 64.38 31.9689 64.5696 31.6313 64.9072C31.2938 65.2448 31.1041 65.7026 31.1041 66.18C31.1041 66.6574 31.2938 67.1152 31.6313 67.4528C31.9689 67.7904 32.4267 67.98 32.9041 67.98H45.4441C45.9068 70.304 46.6023 72.5754 47.5201 74.76H20.8081C20.3307 74.76 19.8729 74.9496 19.5353 75.2872C19.1978 75.6248 19.0081 76.0826 19.0081 76.56C19.0081 77.0374 19.1978 77.4952 19.5353 77.8328C19.8729 78.1704 20.3307 78.36 20.8081 78.36H49.2841C50.6485 80.8321 52.3087 83.129 54.2281 85.2H16.4401C15.9627 85.2 15.5049 85.3896 15.1673 85.7272C14.8298 86.0648 14.6401 86.5226 14.6401 87C14.6401 87.4774 14.8298 87.9352 15.1673 88.2728C15.5049 88.6104 15.9627 88.8 16.4401 88.8H56.8921C57.2074 88.7961 57.5168 88.7136 57.7921 88.56C64.8547 94.4167 73.9068 97.3188 83.0581 96.6602C92.2095 96.0015 100.753 91.8332 106.904 85.0254C113.055 78.2177 116.338 69.2969 116.069 60.1258C115.799 50.9548 111.997 42.2424 105.456 35.808ZM102.912 83.58C98.4403 88.0482 92.7441 91.0903 86.5436 92.3216C80.3432 93.553 73.9168 92.9184 68.0769 90.4981C62.237 88.0777 57.2459 83.9803 53.7343 78.7238C50.2228 73.4672 48.3486 67.2876 48.3486 60.966C48.3486 54.6444 50.2228 48.4648 53.7343 43.2082C57.2459 37.9517 62.237 33.8543 68.0769 31.4339C73.9168 29.0136 80.3432 28.379 86.5436 29.6104C92.7441 30.8417 98.4403 33.8838 102.912 38.352C108.898 44.3557 112.26 52.4879 112.26 60.966C112.26 69.4441 108.898 77.5763 102.912 83.58Z" fill="#FFC629"/>
<path id="Vector_2" d="M80.3042 34.188C75.0092 34.188 69.8331 35.7581 65.4305 38.6999C61.0279 41.6416 57.5964 45.8228 55.5701 50.7148C53.5438 55.6067 53.0137 60.9897 54.0467 66.1829C55.0797 71.3762 57.6294 76.1465 61.3736 79.8907C65.1177 83.6348 69.888 86.1846 75.0813 87.2176C80.2745 88.2506 85.6575 87.7204 90.5494 85.6941C95.4414 83.6678 99.6226 80.2364 102.564 75.8337C105.506 71.4311 107.076 66.255 107.076 60.96C107.067 53.8625 104.243 47.0585 99.2244 42.0398C94.2057 37.0212 87.4017 34.1975 80.3042 34.188ZM82.1042 84V81.9C82.1042 81.4226 81.9146 80.9648 81.577 80.6272C81.2395 80.2896 80.7816 80.1 80.3042 80.1C79.8268 80.1 79.369 80.2896 79.0314 80.6272C78.6939 80.9648 78.5042 81.4226 78.5042 81.9V84C73.0126 83.5646 67.8555 81.188 63.9569 77.296C60.0583 73.4039 57.6729 68.2508 57.2282 62.76H59.3642C59.8416 62.76 60.2995 62.5703 60.637 62.2328C60.9746 61.8952 61.1642 61.4374 61.1642 60.96C61.1642 60.4826 60.9746 60.0248 60.637 59.6872C60.2995 59.3496 59.8416 59.16 59.3642 59.16H57.2282C57.6624 53.6619 60.0434 48.4989 63.9433 44.599C67.8431 40.6991 73.0061 38.3181 78.5042 37.884V40.02C78.5042 40.4974 78.6939 40.9552 79.0314 41.2928C79.369 41.6303 79.8268 41.82 80.3042 41.82C80.7816 41.82 81.2395 41.6303 81.577 41.2928C81.9146 40.9552 82.1042 40.4974 82.1042 40.02V37.884C87.6024 38.3181 92.7654 40.6991 96.6652 44.599C100.565 48.4989 102.946 53.6619 103.38 59.16H101.244C100.767 59.16 100.309 59.3496 99.9715 59.6872C99.6339 60.0248 99.4442 60.4826 99.4442 60.96C99.4442 61.4374 99.6339 61.8952 99.9715 62.2328C100.309 62.5703 100.767 62.76 101.244 62.76H103.38C102.936 68.2508 100.55 73.4039 96.6516 77.296C92.7529 81.188 87.5958 83.5646 82.1042 84Z" fill="#FFC629"/>
<path id="Vector_3" d="M90.1922 65.1599L82.6442 60.3599L90.4802 44.7599C90.6238 44.3437 90.6099 43.8893 90.4411 43.4827C90.2723 43.0761 89.9604 42.7454 89.5642 42.5532C89.1681 42.3611 88.7153 42.3208 88.2914 42.44C87.8676 42.5591 87.5021 42.8295 87.2642 43.1999L78.6962 60.1559C78.4951 60.5538 78.4488 61.0122 78.5663 61.4423C78.6838 61.8724 78.9567 62.2436 79.3322 62.4839L88.2482 68.1959C88.5352 68.3779 88.8684 68.4737 89.2082 68.4719C89.5974 68.4735 89.9766 68.3489 90.289 68.1168C90.6014 67.8848 90.8302 67.5577 90.941 67.1846C91.0518 66.8115 91.0388 66.4126 90.9038 66.0476C90.7688 65.6825 90.5191 65.3711 90.1922 65.1599ZM26.9762 66.1679C26.9762 65.6905 26.7865 65.2327 26.449 64.8951C26.1114 64.5576 25.6536 64.3679 25.1762 64.3679H6.08418C5.60679 64.3679 5.14895 64.5576 4.81139 64.8951C4.47382 65.2327 4.28418 65.6905 4.28418 66.1679C4.28418 66.6453 4.47382 67.1032 4.81139 67.4407C5.14895 67.7783 5.60679 67.9679 6.08418 67.9679H25.2002C25.6734 67.9616 26.1251 67.7692 26.4575 67.4323C26.7899 67.0954 26.9762 66.6412 26.9762 66.1679ZM14.9042 36.7799H25.2002C25.6776 36.7799 26.1354 36.5903 26.473 36.2527C26.8105 35.9152 27.0002 35.4573 27.0002 34.9799C27.0002 34.5025 26.8105 34.0447 26.473 33.7071C26.1354 33.3696 25.6776 33.1799 25.2002 33.1799H14.9042C14.4268 33.1799 13.969 33.3696 13.6314 33.7071C13.2938 34.0447 13.1042 34.5025 13.1042 34.9799C13.1042 35.4573 13.2938 35.9152 13.6314 36.2527C13.969 36.5903 14.4268 36.7799 14.9042 36.7799ZM12.9482 57.5999H36.6722C37.1496 57.5999 37.6074 57.4103 37.945 57.0727C38.2825 56.7352 38.4722 56.2773 38.4722 55.7999C38.4722 55.3225 38.2825 54.8647 37.945 54.5271C37.6074 54.1896 37.1496 53.9999 36.6722 53.9999H12.9482C12.4708 53.9999 12.013 54.1896 11.6754 54.5271C11.3378 54.8647 11.1482 55.3225 11.1482 55.7999C11.1482 56.2773 11.3378 56.7352 11.6754 57.0727C12.013 57.4103 12.4708 57.5999 12.9482 57.5999Z" fill="#FFC629"/>
</g>
</g>
</svg>
