<svg width="79" height="82" viewBox="0 0 79 82" fill="none" xmlns="http://www.w3.org/2000/svg">
<path d="M23.7586 37.42C16.9486 37.42 11.1086 32.5701 9.87857 25.8801C9.81857 25.5701 9.61857 25.3001 9.34857 25.1501C7.88857 24.3501 6.97858 22.83 6.97858 21.16C6.97858 19.6101 7.75857 18.18 9.06857 17.34C9.42857 17.11 9.64859 16.7401 9.64859 16.3701V8.85005C9.64859 6.25005 11.1786 3.90006 13.5586 2.87006C15.9086 1.85006 19.1986 0.670044 23.7686 0.670044C28.6486 0.670044 32.1086 2.09005 34.2786 3.16005C36.4686 4.23005 37.8786 6.53005 37.8786 9.00005V16.3801C37.8786 16.76 38.0986 17.1201 38.4586 17.3501C39.7686 18.1901 40.5486 19.62 40.5486 21.17C40.5486 22.83 39.6386 24.3601 38.1786 25.16C37.8986 25.31 37.6986 25.59 37.6486 25.89C36.4186 32.58 30.5786 37.4301 23.7686 37.4301L23.7586 37.42ZM23.7586 2.76006C19.5786 2.76006 16.5586 3.84005 14.3886 4.79005C12.7786 5.49005 11.7386 7.09005 11.7386 8.85005V16.3701C11.7386 17.4601 11.1586 18.49 10.1986 19.11C9.49858 19.56 9.06857 20.33 9.06857 21.17C9.06857 22.07 9.55857 22.8901 10.3486 23.3201C11.1886 23.7801 11.7686 24.5801 11.9386 25.5101C12.9886 31.2001 17.9586 35.33 23.7586 35.33C29.5586 35.33 34.5286 31.2001 35.5786 25.5101C35.7486 24.5701 36.3286 23.7701 37.1686 23.3201C37.9586 22.8901 38.4486 22.07 38.4486 21.17C38.4486 20.34 38.0286 19.57 37.3186 19.11C36.3486 18.49 35.7786 17.4701 35.7786 16.3701V8.99005C35.7786 7.31005 34.8286 5.76004 33.3486 5.03004C31.3586 4.05004 28.2086 2.76006 23.7586 2.76006Z" fill="#1D1D1B"/>
<path d="M24.3185 66.0201C18.2485 66.0201 12.9585 65.1601 9.11854 64.2801C8.55854 64.1501 8.19853 63.5901 8.32853 63.0201C8.45853 62.4601 9.01854 62.1001 9.58854 62.2301C15.0785 63.5001 23.6285 64.7101 33.1385 63.2701C33.7085 63.1801 34.2485 63.5801 34.3285 64.1501C34.4185 64.7201 34.0185 65.2601 33.4485 65.3401C30.2785 65.8201 27.2085 66.0101 24.3185 66.0101V66.0201Z" fill="#1D1D1B"/>
<path d="M5.23852 63.2101C5.13852 63.2101 5.03851 63.2001 4.93851 63.1601C2.24851 62.3501 0.708528 61.6801 0.648528 61.6501C0.228528 61.4701 -0.0314672 61.0301 0.0285328 60.5701C0.158533 59.5001 0.288517 58.3201 0.418517 57.1101C0.888517 52.9201 1.36851 48.5901 1.78851 47.2001C2.89851 43.4901 11.4985 38.9501 12.4685 38.4401C12.8385 38.2501 13.2885 38.2901 13.6085 38.5601L20.6685 44.2901C22.1985 45.5301 24.3785 45.5801 25.9685 44.4101L33.9285 38.5301C34.2485 38.2901 34.6785 38.2601 35.0385 38.4401C35.1785 38.5101 38.3785 40.1801 41.2485 42.2801C41.7185 42.6201 41.8185 43.2801 41.4785 43.7401C41.1385 44.2101 40.4785 44.3101 40.0185 43.9701C37.9785 42.4801 35.6885 41.1801 34.6485 40.6101L27.2185 46.0901C24.8585 47.8301 21.6285 47.7601 19.3585 45.9101L12.8385 40.6201C9.42853 42.4601 4.40852 45.7701 3.79852 47.8001C3.43852 49.0101 2.93853 53.4301 2.49853 57.3401C2.39853 58.2601 2.29852 59.1701 2.19852 60.0201C2.87852 60.2801 4.01852 60.7001 5.54852 61.1601C6.09852 61.3301 6.41853 61.9101 6.24853 62.4701C6.10853 62.9201 5.69853 63.2201 5.24853 63.2201L5.23852 63.2101Z" fill="#1D1D1B"/>
<path d="M57.0585 81.1801C51.7185 81.1801 46.6685 79.19 42.7485 75.53C38.6485 71.7001 36.2885 66.5101 36.0985 60.9001C35.9085 55.3001 37.9085 49.9501 41.7385 45.8501C45.5685 41.7501 50.7585 39.39 56.3685 39.2C61.7285 39.02 66.8985 40.8601 70.9285 44.4001C71.3685 44.7801 71.4085 45.4401 71.0285 45.8801C70.6485 46.3201 69.9885 46.3601 69.5485 45.9801C65.9185 42.8001 61.2685 41.1401 56.4485 41.3001C51.3985 41.4701 46.7285 43.6001 43.2785 47.2901C39.8285 50.9801 38.0285 55.7901 38.1985 60.8301C38.3685 65.8801 40.4985 70.55 44.1885 74C47.8785 77.4501 52.6885 79.25 57.7285 79.0801C62.7785 78.9101 67.4485 76.78 70.8985 73.09C74.3485 69.4 76.1485 64.5901 75.9785 59.5501C75.9285 57.9701 75.6785 56.4001 75.2385 54.9001C75.0785 54.3401 75.3985 53.7601 75.9485 53.6001C76.5085 53.4401 77.0885 53.76 77.2485 54.31C77.7385 55.98 78.0085 57.7201 78.0685 59.4701C78.2585 65.0701 76.2585 70.4201 72.4285 74.5201C68.5985 78.6201 63.4085 80.98 57.7985 81.17C57.5585 81.17 57.3085 81.1801 57.0685 81.1801H57.0585Z" fill="#1D1D1B"/>
<path d="M74.6685 51.8201C74.2985 51.8201 73.9285 51.62 73.7485 51.27C73.3285 50.49 72.8585 49.73 72.3285 49.02C71.9885 48.55 72.0885 47.9 72.5585 47.56C73.0285 47.22 73.6785 47.3201 74.0185 47.7901C74.5985 48.5801 75.1285 49.4201 75.5985 50.2901C75.8685 50.8001 75.6785 51.4401 75.1685 51.7101C75.0085 51.7901 74.8385 51.83 74.6785 51.83L74.6685 51.8201Z" fill="#1D1D1B"/>
<path d="M59.3685 71.4901C56.7685 71.4901 53.3685 70.9401 49.7885 68.8401C49.2885 68.5501 49.1185 67.9101 49.4185 67.4101C49.7085 66.9101 50.3485 66.7401 50.8485 67.0401C56.7285 70.4801 62.1085 69.2301 63.2585 68.9001C65.4585 66.4601 66.4085 62.2201 66.4185 62.1801C66.4785 61.9101 66.6385 61.6701 66.8785 61.5201C66.8985 61.5101 67.5985 61.0201 68.1085 59.8201C68.3285 59.3001 67.4785 58.8701 67.3185 58.8001L62.5485 57.1101C62.1585 56.9701 61.8485 56.6301 61.8185 56.2201C61.7885 55.8101 61.9585 55.4501 62.3185 55.2501C62.4485 55.1401 63.2885 54.3301 64.2085 51.7401C64.7685 50.1401 64.0685 48.7701 63.6085 48.5901C63.4585 48.5301 63.1385 48.8701 62.8585 49.5201C61.0885 53.6301 57.7685 55.8301 56.4285 56.5801C54.9685 57.4001 53.8285 58.4101 53.8185 58.4201C53.3885 58.8101 52.7285 58.7701 52.3385 58.3401C51.9485 57.9101 51.9885 57.2501 52.4185 56.8601C52.4685 56.8101 53.7285 55.6801 55.3985 54.7401C56.5585 54.0901 59.4185 52.2001 60.9285 48.6801C61.8485 46.5401 63.3085 46.2201 64.3685 46.6301C65.9685 47.2601 67.1085 49.7901 66.1785 52.4301C65.6485 53.9201 65.1285 54.9401 64.6785 55.6401L68.0685 56.8401C68.0685 56.8401 68.1085 56.8501 68.1285 56.8601C68.2785 56.9201 69.5985 57.5101 70.0785 58.7101C70.3285 59.3301 70.3185 60.0001 70.0385 60.6401C69.5085 61.8801 68.8085 62.6301 68.3785 63.0001C68.0685 64.2301 66.9185 68.1401 64.5885 70.5501C64.4785 70.6701 64.3385 70.7501 64.1885 70.8101C64.0385 70.8601 62.1785 71.5101 59.3785 71.5101L59.3685 71.4901Z" fill="#1D1D1B"/>
<path d="M50.3286 71.83H45.2386C44.6586 71.83 44.1885 71.36 44.1885 70.78V58.68C44.1885 58.1 44.6586 57.63 45.2386 57.63H50.3286C50.9086 57.63 51.3785 58.1 51.3785 58.68V70.78C51.3785 71.36 50.9086 71.83 50.3286 71.83ZM46.2885 69.73H49.2786V59.72H46.2885V69.73Z" fill="#1D1D1B"/>
</svg>
