<svg width="80" height="80" viewBox="0 0 80 80" fill="none" xmlns="http://www.w3.org/2000/svg">
<path d="M44.63 74.05C37.13 74.05 29.63 71.19 23.92 65.48C12.5 54.06 12.5 35.48 23.92 24.05C29.2 18.77 36.22 15.73 43.69 15.49C51.12 15.25 58.29 17.8 63.87 22.67C64.31 23.05 64.35 23.72 63.97 24.15C63.59 24.59 62.92 24.63 62.49 24.25C57.31 19.73 50.66 17.36 43.76 17.58C36.83 17.8 30.32 20.63 25.41 25.53C14.81 36.13 14.81 53.38 25.41 63.98C36.01 74.58 53.26 74.58 63.86 63.98C72.64 55.2 74.37 41.61 68.06 30.94C67.76 30.44 67.93 29.8 68.43 29.5C68.93 29.2 69.57 29.37 69.87 29.87C76.67 41.37 74.81 56.01 65.35 65.47C59.64 71.18 52.14 74.04 44.64 74.04L44.63 74.05Z" fill="#1D1D1B"/>
<path d="M67.11 28.72C66.79 28.72 66.48 28.58 66.27 28.31C65.83 27.73 65.35 27.16 64.86 26.61C64.47 26.18 64.51 25.51 64.94 25.13C65.37 24.74 66.04 24.78 66.42 25.21C66.95 25.8 67.46 26.41 67.94 27.04C68.29 27.5 68.2 28.16 67.74 28.51C67.55 28.66 67.33 28.73 67.1 28.73L67.11 28.72Z" fill="#1D1D1B"/>
<path d="M44.63 79.37C37.51 79.37 30.55 77.18 24.73 73.09L14.42 76.29C14.05 76.41 13.64 76.31 13.37 76.03C13.09 75.75 12.99 75.35 13.11 74.98L16.31 64.67C14.99 62.79 13.85 60.77 12.93 58.67C12.89 58.59 11.86 56.42 8.69 56.42H1.05C0.47 56.42 0 55.95 0 55.37C0 54.79 0.47 54.32 1.05 54.32H8.7C13.28 54.32 14.8 57.69 14.86 57.83C15.79 59.96 16.96 61.99 18.32 63.87C18.52 64.14 18.57 64.48 18.47 64.8L15.71 73.7L24.61 70.94C24.93 70.84 25.27 70.9 25.54 71.09C31.73 75.59 39.36 77.76 47.04 77.19C54.79 76.62 62.1 73.27 67.6 67.76C80.27 55.09 80.27 34.48 67.6 21.81C54.93 9.14002 34.32 9.14002 21.65 21.81C18.72 24.74 16.41 28.14 14.79 31.91C14.47 33.18 13.08 35.4 9.84 35.4H1.05C0.47 35.4 0 34.93 0 34.35C0 33.77 0.47 33.3 1.05 33.3H9.84C12.23 33.3 12.71 31.56 12.76 31.36C12.77 31.29 12.79 31.24 12.82 31.17C14.55 27.12 17.03 23.47 20.17 20.33C33.66 6.84002 55.61 6.84002 69.1 20.33C82.59 33.82 82.59 55.77 69.1 69.26C63.24 75.12 55.46 78.69 47.21 79.3C46.36 79.36 45.5 79.39 44.65 79.39L44.63 79.37Z" fill="#1D1D1B"/>
<path d="M44.6301 48.72C43.6201 48.72 42.6101 48.34 41.8401 47.57C40.3001 46.03 40.3001 43.53 41.8401 41.99C43.3801 40.45 45.8801 40.45 47.4201 41.99C48.9601 43.53 48.9601 46.03 47.4201 47.57C46.6501 48.34 45.6401 48.72 44.6301 48.72ZM44.6301 42.93C44.1601 42.93 43.6801 43.11 43.3301 43.47C42.6101 44.19 42.6101 45.36 43.3301 46.08C44.0501 46.8 45.2201 46.8 45.9401 46.08C46.6601 45.36 46.6601 44.19 45.9401 43.47C45.5801 43.11 45.1101 42.93 44.6401 42.93H44.6301Z" fill="#1D1D1B"/>
<path d="M44.6301 42.92C44.0501 42.92 43.5801 42.45 43.5801 41.87V25.52C43.5801 24.94 44.0501 24.47 44.6301 24.47C45.2101 24.47 45.6801 24.94 45.6801 25.52V41.87C45.6801 42.45 45.2101 42.92 44.6301 42.92Z" fill="#1D1D1B"/>
<path d="M52.0101 53.2C51.7401 53.2 51.4701 53.1 51.2701 52.89L45.9401 47.56C45.5301 47.15 45.5301 46.48 45.9401 46.07C46.3501 45.66 47.0201 45.66 47.4301 46.07L52.7601 51.4C53.1701 51.81 53.1701 52.48 52.7601 52.89C52.5501 53.1 52.2901 53.2 52.0201 53.2H52.0101Z" fill="#1D1D1B"/>
<path d="M50.8301 7.08H38.4301C37.8501 7.08 37.3801 6.61 37.3801 6.03V2.89C37.3801 1.3 38.6801 0 40.2701 0H48.9901C50.5801 0 51.8801 1.3 51.8801 2.89V6.03C51.8801 6.61 51.4101 7.08 50.8301 7.08ZM39.4801 4.98H49.7801V2.89C49.7801 2.46 49.4301 2.1 48.9901 2.1H40.2701C39.8401 2.1 39.4801 2.45 39.4801 2.89V4.98Z" fill="#1D1D1B"/>
<path d="M40.6701 11.76C40.0901 11.76 39.6201 11.29 39.6201 10.71V6.02998C39.6201 5.44998 40.0901 4.97998 40.6701 4.97998C41.2501 4.97998 41.7201 5.44998 41.7201 6.02998V10.71C41.7201 11.29 41.2501 11.76 40.6701 11.76Z" fill="#1D1D1B"/>
<path d="M48.58 11.76C48 11.76 47.53 11.29 47.53 10.71V6.02998C47.53 5.44998 48 4.97998 48.58 4.97998C49.16 4.97998 49.63 5.44998 49.63 6.02998V10.71C49.63 11.29 49.16 11.76 48.58 11.76Z" fill="#1D1D1B"/>
<path d="M71.83 21.83C71.56 21.83 71.29 21.73 71.09 21.52C70.68 21.11 70.68 20.44 71.09 20.03L72.72 18.4L69.55 15.23L66.62 18.16C66.21 18.57 65.54 18.57 65.13 18.16C64.72 17.75 64.72 17.08 65.13 16.67L68.8 13C69.21 12.59 69.88 12.59 70.29 13L74.95 17.66C75.15 17.86 75.26 18.12 75.26 18.4C75.26 18.68 75.15 18.95 74.95 19.14L72.58 21.51C72.37 21.72 72.11 21.82 71.84 21.82L71.83 21.83Z" fill="#1D1D1B"/>
<path d="M6.37 42.11H1.05C0.47 42.11 0 41.64 0 41.06C0 40.48 0.47 40.01 1.05 40.01H6.37C6.95 40.01 7.42 40.48 7.42 41.06C7.42 41.64 6.95 42.11 6.37 42.11Z" fill="#1D1D1B"/>
<path d="M11.6201 42.11H9.41011C8.83011 42.11 8.36011 41.64 8.36011 41.06C8.36011 40.48 8.83011 40.01 9.41011 40.01H11.6201C12.2001 40.01 12.6701 40.48 12.6701 41.06C12.6701 41.64 12.2001 42.11 11.6201 42.11Z" fill="#1D1D1B"/>
<path d="M2.79 49.35H1.05C0.47 49.35 0 48.88 0 48.3C0 47.72 0.47 47.25 1.05 47.25H2.79C3.37 47.25 3.84 47.72 3.84 48.3C3.84 48.88 3.37 49.35 2.79 49.35Z" fill="#1D1D1B"/>
<path d="M11.62 49.35H5.84004C5.26004 49.35 4.79004 48.88 4.79004 48.3C4.79004 47.72 5.26004 47.25 5.84004 47.25H11.62C12.2 47.25 12.67 47.72 12.67 48.3C12.67 48.88 12.2 49.35 11.62 49.35Z" fill="#1D1D1B"/>
</svg>
