<svg width="78" height="71" viewBox="0 0 78 71" fill="none" xmlns="http://www.w3.org/2000/svg">
<path d="M18.4598 14.35C18.2798 14.35 18.0998 14.3 17.9298 14.21C16.1098 13.15 14.3298 12.26 13.6898 11.95L2.97977 12.81C2.61977 12.84 2.26977 12.68 2.04977 12.39C1.82977 12.1 1.77977 11.72 1.91977 11.38L2.63977 9.54L1.21976 8.36C0.979757 8.16 0.839783 7.86 0.839783 7.55V1.05C0.839783 0.47 1.30977 0 1.88977 0H27.0498C27.4198 0 27.7598 0.2 27.9498 0.51L30.8398 5.37L42.7098 6.35C43.2898 6.4 43.7198 6.91 43.6698 7.48C43.6198 8.06 43.1098 8.49 42.5398 8.44L30.1298 7.42C29.7898 7.39 29.4898 7.2 29.3098 6.91L26.4498 2.09H2.93976V7.04L4.55978 8.39C4.90978 8.68 5.02978 9.16 4.86978 9.58L4.47977 10.56L13.7998 9.81C13.9798 9.8 14.1698 9.83 14.3298 9.91C14.4198 9.95 16.6498 11 18.9898 12.38C19.4898 12.67 19.6598 13.32 19.3698 13.82C19.1698 14.15 18.8198 14.34 18.4598 14.34V14.35Z" fill="#1D1D1B"/>
<path d="M70.9097 37.92C70.5097 37.92 70.1197 37.69 69.9497 37.29L68.9097 34.92C68.8097 34.69 68.7897 34.43 68.8697 34.19L69.7397 31.32C68.7397 29.57 64.8297 22.55 63.0497 17.04C61.5297 12.33 60.9597 8.78999 60.7597 7.26999L55.8197 6.40999L55.5997 8.47999C55.5397 9.04999 55.0397 9.45999 54.4697 9.41999L46.7697 8.78999C46.1897 8.73999 45.7597 8.22999 45.8097 7.65999C45.8597 7.07999 46.3697 6.64999 46.9397 6.69999L53.6197 7.24999L53.8497 5.07999C53.8797 4.78999 54.0297 4.52999 54.2597 4.34999C54.4897 4.16999 54.7897 4.09999 55.0697 4.14999L61.8997 5.33999C62.3697 5.41999 62.7297 5.80999 62.7697 6.28999C62.7697 6.32999 63.1197 10.42 65.0497 16.4C66.9897 22.4 71.7397 30.59 71.7897 30.67C71.9397 30.92 71.9697 31.22 71.8897 31.5L70.9997 34.43L71.8797 36.44C72.1097 36.97 71.8797 37.59 71.3397 37.83C71.1997 37.89 71.0597 37.92 70.9197 37.92H70.9097Z" fill="#1D1D1B"/>
<path d="M72.5697 41.7001C72.1697 41.7001 71.7797 41.4701 71.6097 41.0701L71.1297 39.9801C70.8997 39.4501 71.1297 38.8301 71.6697 38.5901C72.1997 38.3601 72.8197 38.5901 73.0597 39.1301L73.5397 40.2201C73.7697 40.7501 73.5397 41.3701 72.9997 41.6101C72.8597 41.6701 72.7197 41.7001 72.5797 41.7001H72.5697Z" fill="#1D1D1B"/>
<path d="M65.3697 70.67C64.3497 70.67 63.4597 70.39 62.7697 69.84C62.0397 69.26 61.1997 68.12 61.3197 65.97C61.3797 64.95 60.6897 63.29 57.1297 61.17L56.9997 61.09C55.5797 60.24 54.7697 55.74 54.6797 55.24C54.5397 55.05 53.8797 54.74 53.3197 54.62C53.0297 54.56 52.7797 54.37 52.6297 54.12L46.9697 44.23C46.8397 44 46.7997 43.72 46.8597 43.46L47.1197 42.39C46.9097 41.8 46.4097 40.41 45.9197 39.3C45.1097 37.47 46.1097 34.58 46.2297 34.25L48.2597 28.87L47.2197 26.09L44.4397 26.69C43.9997 26.79 43.5497 26.59 43.3097 26.2C43.2797 26.16 40.6397 21.74 38.1197 18.33C36.1597 15.68 34.9297 16 34.9197 16C34.9597 15.99 34.9797 15.98 34.9797 15.98L34.1297 14.06C34.3997 13.94 36.8097 13.02 39.8097 17.08C41.8397 19.83 43.8897 23.11 44.7297 24.48L47.6597 23.84C48.1697 23.73 48.6797 24.01 48.8697 24.5L50.3697 28.5C50.4597 28.74 50.4597 29 50.3697 29.24L48.1997 34.98C47.8497 35.95 47.5097 37.68 47.8397 38.44C48.5197 39.97 49.1797 41.91 49.2097 41.99C49.2697 42.18 49.2797 42.38 49.2397 42.58L49.0097 43.54L54.2497 52.69C55.0697 52.94 56.5397 53.57 56.7597 54.86C56.9897 56.26 57.7097 58.83 58.1397 59.32L58.2097 59.36C61.7997 61.49 63.5597 63.75 63.4297 66.08C63.3897 66.77 63.4697 67.7 64.0897 68.19C64.6497 68.63 65.5897 68.69 66.7497 68.35C68.6997 67.78 70.0397 67.51 70.7297 67.39C71.9597 65.26 74.3997 60.36 74.1597 57.44C73.8697 53.78 74.6697 49.82 74.9397 48.63L72.7697 43.68C72.5397 43.15 72.7697 42.53 73.3097 42.29C73.8397 42.06 74.4597 42.29 74.6997 42.83L77.0097 48.1C77.0997 48.31 77.1197 48.55 77.0697 48.78C77.0597 48.83 75.9497 53.33 76.2597 57.27C76.6197 61.72 72.4597 68.61 72.2797 68.9C72.1097 69.18 71.8197 69.36 71.4997 69.4C71.4897 69.4 70.0297 69.57 67.3497 70.36C66.6597 70.56 66.0097 70.66 65.3997 70.66L65.3697 70.67Z" fill="#1D1D1B"/>
<path d="M22.4597 66.4C22.2597 66.4 22.0497 66.34 21.8797 66.22C21.6797 66.09 16.8998 62.87 12.0598 57.46C5.58975 50.23 2.16974 42.53 2.16974 35.19C2.16974 24 11.2697 14.9 22.4597 14.9C33.6497 14.9 42.7497 24 42.7497 35.19C42.7497 42 39.3298 49.53 32.8698 56.97C28.0398 62.53 23.2797 66.05 23.0797 66.2C22.8997 66.34 22.6797 66.4 22.4597 66.4ZM22.4597 17C12.4297 17 4.26974 25.16 4.26974 35.19C4.26974 43.78 9.33975 51.26 13.5898 56.02C17.2698 60.14 20.9997 63 22.4297 64.04C25.6297 61.51 40.6497 48.92 40.6497 35.18C40.6497 25.15 32.4897 16.99 22.4597 16.99V17Z" fill="#1D1D1B"/>
<path d="M22.4597 47.8901C15.4597 47.8901 9.7597 42.1901 9.7597 35.1901C9.7597 28.1901 15.4597 22.4901 22.4597 22.4901C24.7797 22.4901 27.0497 23.1201 29.0297 24.3201C29.5297 24.6201 29.6897 25.2701 29.3797 25.7601C29.0797 26.2601 28.4297 26.4201 27.9397 26.1101C26.2897 25.1101 24.3997 24.5901 22.4597 24.5901C16.6197 24.5901 11.8697 29.3401 11.8697 35.1801C11.8697 41.0201 16.6197 45.7801 22.4597 45.7801C28.2997 45.7801 33.0597 41.0301 33.0597 35.1801C33.0597 33.7901 32.7997 32.4401 32.2697 31.1601C32.0497 30.6201 32.3097 30.0101 32.8397 29.7901C33.3797 29.5701 33.9897 29.8301 34.2097 30.3601C34.8397 31.8901 35.1497 33.5101 35.1497 35.1701C35.1497 42.1701 29.4497 47.8701 22.4497 47.8701L22.4597 47.8901Z" fill="#1D1D1B"/>
<path d="M31.5297 28.93C31.2197 28.93 30.9198 28.8 30.7098 28.54C30.5198 28.31 30.3198 28.08 30.1198 27.87C29.7198 27.45 29.7298 26.78 30.1498 26.38C30.5698 25.98 31.2398 25.99 31.6398 26.41C31.8898 26.67 32.1298 26.94 32.3498 27.22C32.7098 27.67 32.6397 28.33 32.1897 28.7C31.9997 28.86 31.7597 28.93 31.5297 28.93Z" fill="#1D1D1B"/>
<path d="M21.4998 39.94C21.2198 39.94 20.9498 39.83 20.7598 39.63L18.5998 37.47C18.1898 37.06 18.1898 36.39 18.5998 35.98C19.0098 35.57 19.6798 35.57 20.0898 35.98L21.5098 37.4L26.7898 32.12C27.1998 31.71 27.8698 31.71 28.2798 32.12C28.6898 32.53 28.6898 33.2 28.2798 33.61L22.2498 39.64C22.0498 39.84 21.7898 39.95 21.5098 39.95L21.4998 39.94Z" fill="#1D1D1B"/>
</svg>
