<svg width="81" height="81" viewBox="0 0 81 81" fill="none" xmlns="http://www.w3.org/2000/svg">
<path d="M31.87 63.3602C23.78 63.3602 15.69 60.2802 9.52003 54.1202C-2.79997 41.8002 -2.79997 21.7502 9.52003 9.43019C21.84 -2.88981 41.89 -2.88981 54.21 9.43019C54.62 9.84019 54.62 10.5102 54.21 10.9202C53.8 11.3302 53.13 11.3302 52.72 10.9202C41.22 -0.579824 22.5 -0.579824 11 10.9202C-0.49999 22.4202 -0.49999 41.1402 11 52.6402C22.5 64.1402 41.22 64.1402 52.72 52.6402C57.03 48.3302 59.87 42.8802 60.92 36.8902C61.94 31.0302 61.2 25.0802 58.78 19.6902C58.54 19.1602 58.78 18.5402 59.31 18.3002C59.84 18.0602 60.46 18.3002 60.7 18.8302C63.3 24.6102 64.09 30.9902 62.99 37.2602C61.87 43.6802 58.83 49.5102 54.21 54.1302C48.05 60.2902 39.96 63.3702 31.86 63.3702L31.87 63.3602Z" fill="#1D1D1B"/>
<path d="M57.4901 16.1803C57.1501 16.1803 56.8101 16.0103 56.6101 15.7003C56.2401 15.1403 55.8501 14.5803 55.4501 14.0403C55.1001 13.5803 55.19 12.9203 55.66 12.5703C56.13 12.2203 56.78 12.3103 57.13 12.7803C57.56 13.3603 57.98 13.9503 58.38 14.5603C58.7 15.0503 58.56 15.7003 58.07 16.0103C57.89 16.1303 57.69 16.1803 57.5 16.1803H57.4901Z" fill="#1D1D1B"/>
<path d="M31.87 57.2302C25.35 57.2302 18.83 54.7501 13.86 49.7801C10.32 46.2401 7.93003 41.8001 6.92003 36.9201C6.80003 36.3501 7.17003 35.8001 7.74003 35.6801C8.31003 35.5601 8.86002 35.9301 8.98002 36.5001C9.90002 40.9701 12.1 45.0501 15.34 48.3001C24.45 57.4101 39.27 57.4101 48.38 48.3001C52.79 43.8901 55.22 38.0201 55.22 31.7801C55.22 25.5401 52.79 19.6702 48.38 15.2602C39.27 6.15015 24.45 6.15015 15.34 15.2602C11.27 19.3302 8.85001 24.7301 8.53001 30.4701C8.50001 31.0501 8.00003 31.5001 7.42003 31.4601C6.84003 31.4301 6.40004 30.9301 6.43004 30.3501C6.78004 24.0901 9.41002 18.2001 13.85 13.7701C23.78 3.84013 39.93 3.84013 49.86 13.7701C54.67 18.5801 57.32 24.9701 57.32 31.7801C57.32 38.5901 54.67 44.9802 49.86 49.7902C44.9 54.7502 38.37 57.2401 31.85 57.2401L31.87 57.2302Z" fill="#1D1D1B"/>
<path d="M35.79 42.9702H27.7C25.43 42.9702 23.39 41.6102 22.5 39.5202C22.27 38.9902 22.52 38.3702 23.06 38.1402C23.59 37.9102 24.21 38.1602 24.44 38.7002C25 40.0202 26.28 40.8702 27.71 40.8702H35.8C37.76 40.8702 39.35 39.2802 39.35 37.3202C39.35 35.3602 37.76 33.7702 35.8 33.7702H28.07C24.95 33.7702 22.42 31.2402 22.42 28.1202C22.42 25.0002 24.95 22.4702 28.07 22.4702H36.16C38.43 22.4702 40.47 23.8302 41.36 25.9202C41.59 26.4502 41.34 27.0702 40.8 27.3002C40.27 27.5302 39.65 27.2802 39.42 26.7402C38.86 25.4202 37.58 24.5702 36.15 24.5702H28.06C26.1 24.5702 24.51 26.1602 24.51 28.1202C24.51 30.0802 26.1 31.6702 28.06 31.6702H35.79C38.91 31.6702 41.44 34.2002 41.44 37.3202C41.44 40.4402 38.91 42.9702 35.79 42.9702Z" fill="#1D1D1B"/>
<path d="M31.93 47.2302C31.35 47.2302 30.88 46.7602 30.88 46.1802V19.2502C30.88 18.6702 31.35 18.2002 31.93 18.2002C32.51 18.2002 32.98 18.6702 32.98 19.2502V46.1802C32.98 46.7602 32.51 47.2302 31.93 47.2302Z" fill="#1D1D1B"/>
<path d="M57.25 61.9902C56.98 61.9902 56.71 61.8902 56.51 61.6802L51.15 56.3202C50.74 55.9102 50.74 55.2402 51.15 54.8302C51.56 54.4202 52.2301 54.4202 52.6401 54.8302L58 60.1902C58.41 60.6002 58.41 61.2702 58 61.6802C57.79 61.8902 57.53 61.9902 57.26 61.9902H57.25Z" fill="#1D1D1B"/>
<path d="M60.95 58.2803C60.68 58.2803 60.41 58.1803 60.21 57.9703L56.5 54.2603C56.09 53.8503 56.09 53.1803 56.5 52.7703C56.91 52.3603 57.58 52.3603 57.99 52.7703L61.7 56.4803C62.11 56.8903 62.11 57.5603 61.7 57.9703C61.49 58.1803 61.23 58.2803 60.96 58.2803H60.95Z" fill="#1D1D1B"/>
<path d="M74.8201 80.4202C73.4901 80.4202 72.1601 79.9102 71.1501 78.9002L63.7201 71.4702C63.3101 71.0602 63.3101 70.3902 63.7201 69.9802C64.1301 69.5702 64.8001 69.5702 65.2101 69.9802L72.6401 77.4102C73.2201 77.9902 74.0001 78.3102 74.8201 78.3102C75.6401 78.3102 76.4201 77.9902 77.0001 77.4102L77.5001 76.9102C78.0801 76.3302 78.4001 75.5502 78.4001 74.7302C78.4001 73.9102 78.0801 73.1302 77.5001 72.5502L62.6201 57.6702L57.7501 62.5402L62.6201 67.4102C63.0301 67.8202 63.0301 68.4902 62.6201 68.9002C62.2101 69.3102 61.5401 69.3102 61.1301 68.9002L55.5201 63.2902C55.3201 63.0902 55.2101 62.8302 55.2101 62.5502C55.2101 62.2702 55.3201 62.0002 55.5201 61.8102L61.8801 55.4502C62.2901 55.0402 62.9601 55.0402 63.3701 55.4502L78.9901 71.0702C81.0101 73.0902 81.0101 76.3902 78.9901 78.4102L78.4901 78.9102C77.4801 79.9202 76.1501 80.4302 74.8201 80.4302V80.4202Z" fill="#1D1D1B"/>
<path d="M41.29 23.4102C41.02 23.4102 40.7501 23.3102 40.5501 23.1002C40.1401 22.6902 40.1401 22.0202 40.5501 21.6102L48.2401 13.9202C48.6501 13.5102 49.32 13.5102 49.73 13.9202C50.14 14.3302 50.14 15.0002 49.73 15.4102L42.04 23.1002C41.83 23.3102 41.5701 23.4102 41.3001 23.4102H41.29Z" fill="#1D1D1B"/>
<path d="M14.76 49.9402C14.49 49.9402 14.22 49.8402 14.02 49.6302C13.61 49.2202 13.61 48.5501 14.02 48.1401L21 41.1602C21.41 40.7502 22.08 40.7502 22.49 41.1602C22.9 41.5702 22.9 42.2402 22.49 42.6502L15.51 49.6302C15.3 49.8402 15.04 49.9402 14.77 49.9402H14.76Z" fill="#1D1D1B"/>
</svg>
