<svg width="81" height="80" viewBox="0 0 81 80" fill="none" xmlns="http://www.w3.org/2000/svg">
<path d="M40.8937 30.61C35.9837 30.61 31.7737 27.11 30.8837 22.29C30.8637 22.17 30.7837 22.06 30.6737 22C29.5537 21.39 28.8537 20.21 28.8537 18.93C28.8537 17.74 29.4537 16.64 30.4637 15.99C30.6237 15.89 30.7237 15.73 30.7237 15.58V10.33C30.7237 8.39005 31.8737 6.63005 33.6437 5.86005C35.3137 5.13005 37.6537 4.30005 40.8937 4.30005C44.3737 4.30005 46.8337 5.31005 48.3737 6.07005C50.0137 6.87005 51.0637 8.59005 51.0637 10.44V15.59C51.0637 15.74 51.1637 15.9 51.3237 16C52.3337 16.65 52.9337 17.7401 52.9337 18.9401C52.9337 20.22 52.2337 21.39 51.1137 22.01C51.0037 22.07 50.9237 22.18 50.9037 22.3C50.0137 27.12 45.8037 30.6201 40.8937 30.6201V30.61ZM40.8937 6.41005C38.0337 6.41005 35.9637 7.15005 34.4737 7.80005C33.4637 8.24005 32.8137 9.24005 32.8137 10.34V15.59C32.8137 16.46 32.3537 17.2801 31.5837 17.7701C31.1837 18.0301 30.9437 18.4601 30.9437 18.9401C30.9437 19.4501 31.2237 19.92 31.6737 20.16C32.3437 20.5301 32.8137 21.16 32.9437 21.91C33.6537 25.73 36.9837 28.51 40.8837 28.51C44.7837 28.51 48.1137 25.73 48.8237 21.91C48.9637 21.16 49.4237 20.5201 50.0937 20.16C50.5437 19.92 50.8237 19.4501 50.8237 18.9401C50.8237 18.47 50.5837 18.0301 50.1837 17.7701C49.4137 17.2801 48.9537 16.46 48.9537 15.59V10.44C48.9537 9.39005 48.3537 8.42005 47.4337 7.96005C46.0737 7.29005 43.9137 6.41005 40.8737 6.41005H40.8937Z" fill="#1D1D1B"/>
<path d="M25.0536 46.34C25.0536 46.34 24.9736 46.34 24.9336 46.34C24.3536 46.27 23.9436 45.75 24.0136 45.17C24.5236 40.81 24.9436 38.08 25.2536 37.04C26.0536 34.38 31.7436 31.32 32.8736 30.73C33.2436 30.54 33.6936 30.58 34.0236 30.85L38.9536 34.85C39.9136 35.63 41.2736 35.66 42.2636 34.93L47.8236 30.82C48.1436 30.58 48.5736 30.55 48.9336 30.73C50.0636 31.32 55.7536 34.38 56.5536 37.04C56.8536 38.03 57.2336 40.48 57.7136 44.51C57.7836 45.09 57.3736 45.61 56.7936 45.68C56.2136 45.75 55.6936 45.34 55.6236 44.76C55.0136 39.71 54.6836 38.13 54.5336 37.65C54.3036 36.88 52.2936 34.95 48.5336 32.91L43.5036 36.62C41.7436 37.92 39.3236 37.87 37.6236 36.49L33.2336 32.93C29.4936 34.96 27.4936 36.89 27.2636 37.65C27.1036 38.17 26.7536 39.86 26.0936 45.42C26.0336 45.95 25.5736 46.35 25.0536 46.35V46.34Z" fill="#1D1D1B"/>
<path d="M14.6936 21.77C10.6136 21.77 7.1136 18.86 6.3736 14.85C6.3736 14.81 6.3336 14.77 6.3036 14.75C5.3236 14.22 4.7236 13.2 4.7236 12.09C4.7236 11.05 5.2436 10.1 6.1136 9.54C6.1736 9.5 6.2336 9.44 6.2336 9.37V5.1C6.2336 3.44 7.2136 1.95 8.7236 1.29C10.1036 0.69 12.0236 0 14.6936 0C17.5636 0 19.5836 0.83 20.8636 1.46C22.2636 2.15 23.1636 3.61 23.1636 5.18V9.37C23.1636 9.44 23.2236 9.5 23.2836 9.54C24.1536 10.1 24.6836 11.05 24.6836 12.09C24.6836 13.2 24.0736 14.22 23.1036 14.75C23.0636 14.77 23.0436 14.81 23.0336 14.85C22.2936 18.86 18.7936 21.77 14.7136 21.77H14.6936ZM14.6936 2.1C12.4036 2.1 10.7436 2.69 9.5636 3.21C8.8136 3.54 8.3336 4.28 8.3336 5.1V9.37C8.3336 10.15 7.92361 10.87 7.24361 11.31C6.97361 11.48 6.8136 11.77 6.8136 12.09C6.8136 12.43 7.0036 12.74 7.3036 12.91C7.9036 13.24 8.31359 13.81 8.43359 14.47C8.99359 17.48 11.6236 19.67 14.6936 19.67C17.7636 19.67 20.3936 17.48 20.9536 14.47C21.0736 13.8 21.4936 13.23 22.0836 12.91C22.3836 12.75 22.5736 12.43 22.5736 12.09C22.5736 11.77 22.4136 11.48 22.1436 11.31C21.4636 10.87 21.0536 10.15 21.0536 9.37V5.18C21.0536 4.4 20.6136 3.68 19.9336 3.34C18.8436 2.81 17.1236 2.1 14.6936 2.1Z" fill="#1D1D1B"/>
<path d="M21.8236 43.5101C10.2236 43.5101 1.22363 39.73 0.853633 39.57C0.433633 39.39 0.173628 38.96 0.223628 38.5C0.323628 37.5 1.21363 28.7101 1.80363 26.7501C2.12363 25.7001 3.27362 24.5201 5.32362 23.1501C6.72362 22.2201 8.03362 21.5301 8.09362 21.5101C8.46362 21.3201 8.91363 21.3601 9.24363 21.6301L13.2536 24.8801C13.9636 25.4501 14.9636 25.4801 15.7036 24.9401L20.2236 21.6001C20.5436 21.3601 20.9736 21.3301 21.3336 21.5101C21.3936 21.5401 22.6936 22.2201 24.1036 23.1501C26.1536 24.5201 27.3136 25.7001 27.6236 26.7501C27.8336 27.4501 28.0936 29.0201 28.4136 31.5401C28.4836 32.1201 28.0836 32.6401 27.5036 32.7201C26.9336 32.7901 26.4036 32.3901 26.3236 31.8101C25.9236 28.7001 25.7036 27.6801 25.6036 27.3601C25.4036 26.6901 23.5836 25.1401 20.9336 23.6801L16.9536 26.6201C15.4536 27.7301 13.3836 27.6801 11.9336 26.5101L8.46362 23.7001C5.82362 25.1501 4.02362 26.6901 3.82362 27.3601C3.41362 28.7301 2.72362 34.85 2.40362 37.93C4.73362 38.8001 12.5036 41.4201 21.8336 41.4201C22.4136 41.4201 22.8836 41.8901 22.8836 42.4701C22.8836 43.0501 22.4136 43.5201 21.8336 43.5201L21.8236 43.5101Z" fill="#1D1D1B"/>
<path d="M66.3438 21.77C62.2638 21.77 58.7638 18.86 58.0238 14.85C58.0238 14.81 57.9838 14.77 57.9538 14.75C56.9738 14.22 56.3737 13.2 56.3737 12.09C56.3737 11.05 56.8938 10.1 57.7738 9.54C57.8338 9.5 57.8938 9.44 57.8938 9.37V5.18C57.8938 3.6 58.7938 2.14 60.1938 1.46C61.4738 0.83 63.4938 0 66.3638 0C69.0438 0 70.9637 0.69 72.3337 1.29C73.8437 1.95 74.8238 3.45 74.8238 5.1V9.37C74.8238 9.44 74.8838 9.5 74.9438 9.54C75.8138 10.1 76.3438 11.05 76.3438 12.09C76.3438 13.2 75.7338 14.22 74.7638 14.75C74.7238 14.77 74.7038 14.81 74.6938 14.85C73.9538 18.86 70.4537 21.77 66.3737 21.77H66.3438ZM66.3438 2.1C63.9137 2.1 62.1938 2.81 61.1038 3.34C60.4238 3.68 59.9837 4.4 59.9837 5.18V9.37C59.9837 10.15 59.5738 10.87 58.8938 11.31C58.6238 11.48 58.4637 11.77 58.4637 12.09C58.4637 12.43 58.6538 12.74 58.9538 12.91C59.5538 13.24 59.9638 13.81 60.0838 14.47C60.6438 17.48 63.2738 19.67 66.3438 19.67C69.4137 19.67 72.0438 17.48 72.6038 14.47C72.7238 13.8 73.1438 13.23 73.7338 12.91C74.0338 12.75 74.2238 12.43 74.2238 12.09C74.2238 11.77 74.0638 11.48 73.7938 11.31C73.1138 10.87 72.7038 10.15 72.7038 9.37V5.1C72.7038 4.28 72.2238 3.54 71.4738 3.21C70.2838 2.69 68.6237 2.1 66.3438 2.1Z" fill="#1D1D1B"/>
<path d="M59.2236 43.51C58.6436 43.51 58.1736 43.04 58.1736 42.46C58.1736 41.88 58.6436 41.41 59.2236 41.41C61.5036 41.41 63.8535 41.25 66.2135 40.95C66.7935 40.87 67.3136 41.28 67.3936 41.86C67.4636 42.44 67.0636 42.96 66.4836 43.04C64.0336 43.36 61.5836 43.52 59.2236 43.52V43.51Z" fill="#1D1D1B"/>
<path d="M69.5536 42.5301C69.0536 42.5301 68.6136 42.1801 68.5236 41.6701C68.4136 41.1001 68.7936 40.5501 69.3636 40.4401C69.9336 40.3301 70.5136 40.2201 71.0836 40.1001C71.6536 39.9801 72.2136 40.3401 72.3336 40.9101C72.4536 41.4801 72.0936 42.0401 71.5236 42.1601C70.9336 42.2901 70.3336 42.4101 69.7536 42.5201C69.6936 42.5301 69.6236 42.5401 69.5636 42.5401L69.5536 42.5301Z" fill="#1D1D1B"/>
<path d="M74.6337 41.3601C74.1737 41.3601 73.7537 41.0501 73.6237 40.5901C73.4737 40.0301 73.7937 39.4501 74.3537 39.3001C76.3337 38.7501 77.8337 38.2301 78.6537 37.9201C78.3337 34.8501 77.6437 28.7201 77.2337 27.3501C77.0337 26.6801 75.2337 25.1401 72.5937 23.6901L69.1237 26.5001C67.6737 27.6801 65.6037 27.7201 64.1037 26.6101L60.1237 23.6701C57.4737 25.1201 55.6537 26.6701 55.4537 27.3501C55.3537 27.6801 55.1337 28.6901 54.7337 31.8001C54.6637 32.3801 54.1337 32.7801 53.5537 32.7101C52.9737 32.6401 52.5737 32.1101 52.6437 31.5301C52.9637 29.0101 53.2236 27.4401 53.4336 26.7401C53.7536 25.6901 54.9037 24.5101 56.9537 23.1401C58.3537 22.2101 59.6637 21.5201 59.7237 21.5001C60.0837 21.3201 60.5137 21.3501 60.8337 21.5901L65.3537 24.9301C66.0837 25.4701 67.0937 25.4501 67.8037 24.8701L71.8137 21.6201C72.1337 21.3601 72.5836 21.3101 72.9636 21.5001C73.0236 21.5301 74.3237 22.2101 75.7337 23.1401C77.7937 24.5101 78.9437 25.6901 79.2537 26.7401C79.8437 28.7001 80.7336 37.5001 80.8336 38.4901C80.8836 38.9501 80.6237 39.3801 80.2037 39.5601C80.1237 39.5901 78.1737 40.4201 74.9237 41.3201C74.8337 41.3501 74.7336 41.3601 74.6436 41.3601H74.6337Z" fill="#1D1D1B"/>
<path d="M41.2137 79.6601C30.2737 79.6601 21.3637 70.7601 21.3637 59.8101C21.3637 48.8601 30.2637 39.9601 41.2137 39.9601C44.0737 39.9601 46.8337 40.5601 49.4237 41.7301C49.9537 41.9701 50.1837 42.5901 49.9437 43.1201C49.7037 43.6501 49.0837 43.8801 48.5537 43.6401C46.2437 42.5901 43.7737 42.0601 41.2137 42.0601C31.4337 42.0601 23.4637 50.0201 23.4637 59.8101C23.4637 69.6001 31.4237 77.5601 41.2137 77.5601C51.0037 77.5601 58.9637 69.6001 58.9637 59.8101C58.9637 54.4801 56.6037 49.4901 52.4837 46.1001C52.0337 45.7301 51.9737 45.0701 52.3437 44.6201C52.7137 44.1701 53.3737 44.1101 53.8237 44.4801C58.4337 48.2701 61.0737 53.8601 61.0737 59.8201C61.0737 70.7601 52.1737 79.6701 41.2237 79.6701L41.2137 79.6601Z" fill="#1D1D1B"/>
<path d="M47.4936 70.52C47.3236 70.52 47.1536 70.48 47.0036 70.4L41.2136 67.36L35.4236 70.4C35.0736 70.59 34.6436 70.56 34.3136 70.32C33.9936 70.08 33.8236 69.69 33.8936 69.29L35.0036 62.85L30.3236 58.29C30.0336 58.01 29.9336 57.59 30.0536 57.21C30.1736 56.83 30.5036 56.55 30.9036 56.49L37.3736 55.55L40.2636 49.69C40.4436 49.33 40.8036 49.1 41.2036 49.1C41.6036 49.1 41.9736 49.33 42.1436 49.69L45.0336 55.55L51.5036 56.49C51.9036 56.55 52.2336 56.83 52.3536 57.21C52.4736 57.59 52.3736 58.01 52.0836 58.29L47.4036 62.85L48.5136 69.29C48.5836 69.68 48.4236 70.08 48.0936 70.32C47.9136 70.45 47.6936 70.52 47.4736 70.52H47.4936ZM41.2136 65.12C41.3836 65.12 41.5536 65.16 41.7036 65.24L46.0936 67.55L45.2536 62.66C45.1936 62.32 45.3036 61.97 45.5536 61.73L49.1036 58.27L44.1936 57.56C43.8536 57.51 43.5536 57.3 43.4036 56.98L41.2136 52.53L39.0236 56.98C38.8736 57.29 38.5736 57.51 38.2336 57.56L33.3236 58.27L36.8736 61.73C37.1236 61.97 37.2336 62.32 37.1736 62.66L36.3336 67.55L40.7236 65.24C40.8736 65.16 41.0436 65.12 41.2136 65.12Z" fill="#1D1D1B"/>
<path d="M24.3837 71.6C24.3837 71.6 24.3437 71.6 24.3337 71.6C17.7337 71.27 12.3137 70.35 8.92369 69.63C5.23369 68.85 3.12369 68.15 3.03369 68.12C2.51369 67.95 2.21369 67.39 2.34369 66.86L4.68369 57.86L2.34369 48.27C2.25369 47.9 2.37369 47.51 2.65369 47.25C2.93369 46.99 3.3337 46.9 3.6937 47.03C3.7137 47.03 5.78369 47.72 9.34369 48.47C9.91369 48.59 10.2737 49.15 10.1537 49.72C10.0337 50.29 9.47369 50.65 8.90369 50.53C7.17369 50.16 5.7937 49.82 4.8037 49.55L6.7737 57.62C6.8137 57.79 6.8137 57.97 6.7737 58.13L4.62369 66.41C7.13369 67.13 14.4737 69 24.4237 69.5C25.0037 69.53 25.4537 70.02 25.4237 70.6C25.3937 71.16 24.9337 71.6 24.3737 71.6H24.3837Z" fill="#1D1D1B"/>
<path d="M14.3037 51.49C14.2537 51.49 14.1937 51.49 14.1437 51.48C13.5537 51.39 12.9637 51.29 12.3737 51.19C11.8037 51.09 11.4137 50.55 11.5137 49.98C11.6137 49.41 12.1537 49.02 12.7237 49.12C13.2937 49.22 13.8737 49.31 14.4537 49.4C15.0237 49.49 15.4237 50.02 15.3337 50.6C15.2537 51.12 14.8037 51.49 14.2937 51.49H14.3037Z" fill="#1D1D1B"/>
<path d="M24.3837 52.5C24.3837 52.5 24.3437 52.5 24.3337 52.5C22.1337 52.39 19.9137 52.21 17.7337 51.96C17.1537 51.89 16.7437 51.37 16.8137 50.8C16.8837 50.22 17.4037 49.81 17.9737 49.88C20.1137 50.13 22.2837 50.31 24.4437 50.41C25.0237 50.44 25.4737 50.93 25.4437 51.51C25.4137 52.07 24.9537 52.51 24.3937 52.51L24.3837 52.5Z" fill="#1D1D1B"/>
<path d="M58.1737 71.6001C57.6137 71.6001 57.1537 71.1601 57.1237 70.6001C57.0937 70.0201 57.5437 69.5301 58.1237 69.5001C68.0737 69.0001 75.4137 67.1301 77.9237 66.4101L75.7737 58.1301C75.7337 57.9601 75.7237 57.7901 75.7737 57.6201L77.7437 49.5501C76.7537 49.8201 75.3737 50.1701 73.6437 50.5301C70.2537 51.2501 64.8237 52.1701 58.2337 52.5001C57.6537 52.5301 57.1637 52.0801 57.1337 51.5001C57.1037 50.9201 57.5537 50.4301 58.1337 50.4001C70.4637 49.7801 78.7937 47.0601 78.8737 47.0301C79.2337 46.9101 79.6337 47.0001 79.9137 47.2501C80.1937 47.5101 80.3137 47.9001 80.2237 48.2701L77.8837 57.8601L80.2237 66.8601C80.3637 67.4001 80.0637 67.9501 79.5337 68.1201C79.4437 68.1501 77.3437 68.8501 73.6437 69.6301C70.2537 70.3501 64.8237 71.2701 58.2337 71.6001C58.2137 71.6001 58.1937 71.6001 58.1837 71.6001H58.1737Z" fill="#1D1D1B"/>
</svg>
