<svg width="81" height="82" viewBox="0 0 81 82" fill="none" xmlns="http://www.w3.org/2000/svg">
<path d="M43.07 77.41H33.67C31.26 77.41 29.3 75.4501 29.3 73.0401V69.16C27.29 68.5601 25.34 67.75 23.49 66.75L20.75 69.4901C19.92 70.3201 18.83 70.7701 17.66 70.7701C16.49 70.7701 15.39 70.3201 14.57 69.4901L7.92 62.8401C6.22 61.1301 6.22 58.3601 7.92 56.66L10.66 53.92C9.67 52.07 8.86 50.12 8.25 48.11H4.37C1.96 48.11 0 46.1501 0 43.7401V34.3401C0 31.9301 1.96 29.97 4.37 29.97H8.25C8.85 27.96 9.66 26.01 10.66 24.16L7.92 21.42C6.22 19.71 6.22 16.9401 7.92 15.2401L14.57 8.59006C15.4 7.76006 16.49 7.31006 17.66 7.31006C18.83 7.31006 19.93 7.76006 20.75 8.59006L23.49 11.33C25.34 10.34 27.29 9.53004 29.3 8.92004V5.04005C29.3 2.63005 31.26 0.670044 33.67 0.670044H43.07C45.48 0.670044 47.44 2.63005 47.44 5.04005V8.92004C49.45 9.52004 51.4 10.33 53.25 11.33L55.99 8.59006C56.82 7.76006 57.91 7.31006 59.08 7.31006C60.25 7.31006 61.35 7.76006 62.17 8.59006L62.71 9.13005C63.12 9.54005 63.12 10.2101 62.71 10.6201C62.3 11.0301 61.63 11.0301 61.22 10.6201L60.68 10.08C60.25 9.65005 59.68 9.42004 59.07 9.42004C58.46 9.42004 57.89 9.66006 57.46 10.0901L54.16 13.39C53.83 13.73 53.31 13.7901 52.9 13.5601C50.76 12.3401 48.47 11.3901 46.1 10.7401C45.64 10.6201 45.33 10.2001 45.33 9.73006V5.06006C45.33 3.81006 44.31 2.79005 43.06 2.79005H33.66C32.41 2.79005 31.39 3.81006 31.39 5.06006V9.73006C31.39 10.2001 31.07 10.6201 30.62 10.7401C28.25 11.3901 25.96 12.3301 23.82 13.5601C23.41 13.7901 22.89 13.73 22.56 13.39L19.26 10.0901C18.83 9.66006 18.26 9.42004 17.65 9.42004C17.04 9.42004 16.47 9.66006 16.04 10.0901L9.39 16.7401C8.5 17.6301 8.5 19.0701 9.39 19.9501L12.69 23.25C13.03 23.59 13.09 24.1001 12.86 24.5101C11.64 26.6501 10.69 28.9401 10.04 31.3101C9.92 31.7701 9.5 32.08 9.03 32.08H4.36C3.11 32.08 2.09 33.1001 2.09 34.3501V43.75C2.09 45 3.11 46.0201 4.36 46.0201H9.03C9.5 46.0201 9.92 46.3401 10.04 46.7901C10.69 49.1601 11.63 51.4501 12.86 53.5901C13.1 54.0001 13.03 54.5201 12.69 54.8501L9.39 58.1501C8.5 59.0401 8.5 60.48 9.39 61.36L16.04 68.0101C16.47 68.4401 17.04 68.6801 17.65 68.6801C18.26 68.6801 18.83 68.4401 19.26 68.0101L22.56 64.7101C22.9 64.3701 23.41 64.3101 23.82 64.5401C25.96 65.7601 28.25 66.71 30.62 67.36C31.08 67.48 31.39 67.9001 31.39 68.3701V73.0401C31.39 74.2901 32.41 75.3101 33.66 75.3101H43.06C44.31 75.3101 45.33 74.2901 45.33 73.0401V68.3701C45.33 67.9001 45.65 67.48 46.1 67.36C47.19 67.06 48.27 66.7 49.32 66.28C49.86 66.06 50.47 66.32 50.69 66.86C50.91 67.4 50.65 68.0101 50.11 68.2301C49.24 68.5801 48.34 68.9 47.43 69.17V73.05C47.43 75.4601 45.47 77.42 43.06 77.42L43.07 77.41Z" fill="#1D1D1B"/>
<path d="M65.2199 14.1601C64.9499 14.1601 64.6799 14.0601 64.4799 13.8501L63.2599 12.6301C62.8499 12.2201 62.8499 11.5501 63.2599 11.1401C63.6699 10.7301 64.3399 10.7301 64.7499 11.1401L65.9699 12.3601C66.3799 12.7701 66.3799 13.4401 65.9699 13.8501C65.7599 14.0601 65.4999 14.1601 65.2299 14.1601H65.2199Z" fill="#1D1D1B"/>
<path d="M66.34 52.0101C66.2 52.0101 66.06 51.9801 65.93 51.9301C65.4 51.7001 65.15 51.0801 65.37 50.5501C65.89 49.3301 66.33 48.0701 66.68 46.7901C66.8 46.3301 67.22 46.0201 67.69 46.0201H72.36C73.61 46.0201 74.63 45.0001 74.63 43.7501V34.3501C74.63 33.1001 73.61 32.0801 72.36 32.0801H67.69C67.22 32.0801 66.8 31.7601 66.68 31.3101C66.03 28.9401 65.09 26.6501 63.86 24.5101C63.62 24.1001 63.69 23.5801 64.03 23.2501L67.33 19.9501C67.76 19.5201 67.99 18.9501 67.99 18.3401C67.99 17.7301 67.75 17.1601 67.33 16.7301C66.92 16.3201 66.92 15.6501 67.33 15.2401C67.74 14.8301 68.41 14.8301 68.82 15.2401C69.65 16.0701 70.1 17.1601 70.1 18.3301C70.1 19.5001 69.65 20.6001 68.82 21.4201L66.08 24.1601C67.07 26.0101 67.88 27.9601 68.49 29.9701H72.37C74.78 29.9701 76.74 31.9301 76.74 34.3401V43.7401C76.74 46.1501 74.78 48.1101 72.37 48.1101H68.49C68.16 49.2201 67.76 50.3101 67.31 51.3701C67.14 51.7701 66.75 52.0101 66.34 52.0101Z" fill="#1D1D1B"/>
<path d="M61.6799 51.7901C61.4099 51.7901 61.1399 51.6901 60.9399 51.4801L60.0199 50.5601C59.6099 50.1501 59.6099 49.4801 60.0199 49.0701C60.4299 48.6601 61.0999 48.6601 61.5099 49.0701L62.4299 49.9901C62.8399 50.4001 62.8399 51.0701 62.4299 51.4801C62.2199 51.6901 61.9599 51.7901 61.6899 51.7901H61.6799Z" fill="#1D1D1B"/>
<path d="M71.2599 81.1802C68.7799 81.1802 66.4499 80.2202 64.7099 78.4802L42.9799 56.7502C36.6999 58.3802 30.0299 56.5802 25.4199 51.9802C20.6699 47.2302 18.8999 40.2702 20.8199 33.8102C20.9299 33.4502 21.2099 33.1802 21.5699 33.0902C21.9299 33.0002 22.3099 33.1002 22.5699 33.3702L29.9099 40.7102C31.2599 42.0602 33.0499 42.8002 34.9699 42.8002C36.8899 42.8002 38.6899 42.0602 40.0299 40.7102C42.8199 37.9202 42.8199 33.3802 40.0299 30.5902L32.6899 23.2502C32.4299 22.9902 32.3199 22.6102 32.4099 22.2502C32.4999 21.8902 32.7699 21.6102 33.1299 21.5002C39.5799 19.5802 46.5399 21.3502 51.2999 26.1002C55.8999 30.7002 57.6999 37.3802 56.0699 43.6602L59.0199 46.6102C59.4299 47.0202 59.4299 47.6902 59.0199 48.1002C58.6099 48.5102 57.9399 48.5102 57.5299 48.1002L54.1399 44.7102C53.8699 44.4402 53.7699 44.0402 53.8799 43.6702C55.5799 37.9602 54.0199 31.8002 49.8099 27.5902C46.0399 23.8202 40.6899 22.1702 35.4999 23.1002L41.5099 29.1102C45.1199 32.7202 45.1199 38.5902 41.5099 42.2102C37.8999 45.8202 32.0299 45.8202 28.4099 42.2102L22.3999 36.2002C21.4699 41.3802 23.1199 46.7302 26.8899 50.5102C31.0999 54.7202 37.2599 56.2802 42.9699 54.5802C43.3399 54.4702 43.7399 54.5802 44.0099 54.8402L66.1699 77.0002C68.9599 79.7902 73.4999 79.7902 76.2899 77.0002C77.6399 75.6502 78.3799 73.8602 78.3799 71.9402C78.3799 70.0202 77.6399 68.2202 76.2899 66.8802L63.2899 53.8802C62.8799 53.4702 62.8799 52.8002 63.2899 52.3902C63.6999 51.9802 64.3699 51.9802 64.7799 52.3902L77.7799 65.3902C79.5199 67.1302 80.4799 69.4602 80.4799 71.9402C80.4799 74.4202 79.5199 76.7402 77.7799 78.4902C76.0399 80.2302 73.7099 81.1902 71.2299 81.1902L71.2599 81.1802Z" fill="#1D1D1B"/>
<path d="M67.0099 70.5902C66.2099 70.5902 65.4699 70.2802 64.9099 69.7202L50.3099 55.1202C49.7499 54.5602 49.4399 53.8102 49.4399 53.0202C49.4399 52.2302 49.7499 51.4802 50.3099 50.9202C51.4699 49.7602 53.3499 49.7602 54.5099 50.9202L69.1099 65.5202C70.2699 66.6802 70.2699 68.5602 69.1099 69.7202C68.5499 70.2802 67.7999 70.5902 67.0099 70.5902ZM52.4099 52.1602C52.1799 52.1602 51.9599 52.2502 51.7999 52.4102C51.6399 52.5702 51.5499 52.7902 51.5499 53.0202C51.5499 53.2502 51.6399 53.4702 51.7999 53.6302L66.3999 68.2302C66.5599 68.3902 66.7799 68.4802 67.0099 68.4802C67.2399 68.4802 67.4599 68.3902 67.6199 68.2302C67.9599 67.8902 67.9599 67.3402 67.6199 67.0002L53.0199 52.4002C52.8599 52.2402 52.6399 52.1502 52.4099 52.1502V52.1602Z" fill="#1D1D1B"/>
<path d="M23.4 31.5801C23.22 31.5801 23.05 31.5401 22.88 31.4401C22.38 31.1501 22.2 30.5101 22.48 30.0101C24.16 27.0401 26.64 24.6101 29.63 22.9701C30.14 22.6901 30.78 22.8801 31.06 23.3901C31.34 23.9001 31.15 24.5401 30.64 24.8201C27.99 26.2701 25.8 28.4301 24.31 31.0601C24.12 31.4001 23.76 31.5901 23.39 31.5901L23.4 31.5801Z" fill="#1D1D1B"/>
</svg>
