<svg width="81" height="80" viewBox="0 0 81 80" fill="none" xmlns="http://www.w3.org/2000/svg">
<path d="M14.1599 55.7301C14.0199 55.7301 13.8699 55.7001 13.7399 55.6401C13.3599 55.4701 13.1099 55.0901 13.1099 54.6801V46.4801C5.30988 42.1701 0.479889 34.0401 0.479889 25.1001C0.479889 20.3601 1.83988 15.7601 4.40988 11.8101C4.72988 11.3201 5.37988 11.1901 5.85988 11.5001C6.34988 11.8201 6.47988 12.4701 6.16988 12.9501C3.81988 16.5601 2.57988 20.7701 2.57988 25.1001C2.57988 33.4701 7.19988 41.0601 14.6399 44.9201C14.9899 45.1001 15.2099 45.4601 15.2099 45.8501V52.2801L20.4799 47.4001C20.7199 47.1801 21.0399 47.0801 21.3599 47.1301C22.9199 47.3801 24.5199 47.4601 26.0899 47.3801C26.6699 47.3501 27.1599 47.7901 27.1899 48.3701C27.2199 48.9501 26.7799 49.4401 26.1999 49.4701C24.6499 49.5501 23.0799 49.4901 21.5399 49.2701L14.8699 55.4401C14.6699 55.6201 14.4199 55.7201 14.1599 55.7201V55.7301Z" fill="#1D1D1B"/>
<path d="M48.2499 26.95C48.2499 26.95 48.2299 26.95 48.2099 26.95C47.6299 26.93 47.1799 26.44 47.1999 25.86C47.1999 25.6 47.2099 25.35 47.2099 25.09C47.2099 12.79 37.1999 2.78004 24.8999 2.78004C18.7299 2.78004 12.7899 5.37004 8.57988 9.88004C8.17988 10.3 7.51989 10.33 7.08989 9.93004C6.65989 9.53004 6.63988 8.87005 7.03988 8.44005C11.6399 3.50005 18.1499 0.670044 24.8999 0.670044C38.3599 0.670044 49.3099 11.62 49.3099 25.08C49.3099 25.36 49.3099 25.64 49.2999 25.92C49.2799 26.49 48.8099 26.94 48.2499 26.94V26.95Z" fill="#1D1D1B"/>
<path d="M59.0698 30.97H57.9198C57.3398 30.97 56.8698 30.5 56.8698 29.92C56.8698 29.34 57.3398 28.87 57.9198 28.87H59.0698C59.6498 28.87 60.1198 29.34 60.1198 29.92C60.1198 30.5 59.6498 30.97 59.0698 30.97Z" fill="#1D1D1B"/>
<path d="M70.5699 79.08C70.3099 79.08 70.05 78.98 69.86 78.8L61.69 71.23H44.1C43.52 71.23 43.05 70.76 43.05 70.18C43.05 69.6 43.52 69.13 44.1 69.13H62.1C62.36 69.13 62.62 69.23 62.81 69.41L69.52 75.63V70.18C69.52 69.6 69.9899 69.13 70.5699 69.13H71.34C74.96 69.13 77.91 66.18 77.91 62.56V37.55C77.91 33.93 74.96 30.98 71.34 30.98H62.34C61.76 30.98 61.29 30.51 61.29 29.93C61.29 29.35 61.76 28.88 62.34 28.88H71.34C76.12 28.88 80.02 32.77 80.02 37.56V62.57C80.02 67.26 76.28 71.09 71.63 71.24V78.05C71.63 78.47 71.38 78.85 71 79.01C70.86 79.07 70.72 79.1 70.58 79.1L70.5699 79.08Z" fill="#1D1D1B"/>
<path d="M41.0198 71.2301H38.0598C33.2798 71.2301 29.3798 67.3401 29.3798 62.5501V37.5401C29.3798 32.7601 33.2698 28.8601 38.0598 28.8601H54.6998C55.2798 28.8601 55.7498 29.3301 55.7498 29.9101C55.7498 30.4901 55.2798 30.9601 54.6998 30.9601H38.0598C34.4398 30.9601 31.4898 33.9101 31.4898 37.5301V62.5401C31.4898 66.1601 34.4398 69.1101 38.0598 69.1101H41.0198C41.5998 69.1101 42.0698 69.5801 42.0698 70.1601C42.0698 70.7401 41.5998 71.2101 41.0198 71.2101V71.2301Z" fill="#1D1D1B"/>
<path d="M54.0299 56.3801C53.4499 56.3801 52.9799 55.9101 52.9799 55.3301V52.7301C52.9799 51.1301 54.0299 49.7101 55.5299 49.2601C57.8299 48.5801 59.3799 46.4401 59.3199 44.0401C59.2399 41.3101 57.0499 39.0601 54.3199 38.9101C52.7699 38.8301 51.2699 39.4301 50.1999 40.5501C49.7999 40.9701 49.1299 40.9901 48.7099 40.5901C48.2899 40.1901 48.2699 39.5201 48.6699 39.1001C50.1599 37.5301 52.2599 36.7001 54.4199 36.8101C58.2299 37.0101 61.2999 40.1601 61.4099 43.9801C61.4999 47.3301 59.3299 50.3301 56.1199 51.2801C55.5099 51.4601 55.0799 52.0601 55.0799 52.7301V55.3301C55.0799 55.9101 54.6099 56.3801 54.0299 56.3801Z" fill="#1D1D1B"/>
<path d="M53.8799 64.35C52.2799 64.35 50.9799 63.05 50.9799 61.45C50.9799 59.85 52.2799 58.55 53.8799 58.55C55.4799 58.55 56.7799 59.85 56.7799 61.45C56.7799 63.05 55.4799 64.35 53.8799 64.35ZM53.8799 60.66C53.4399 60.66 53.0899 61.02 53.0899 61.45C53.0899 61.88 53.4499 62.24 53.8799 62.24C54.3099 62.24 54.6699 61.88 54.6699 61.45C54.6699 61.02 54.3099 60.66 53.8799 60.66Z" fill="#1D1D1B"/>
</svg>
