<svg width="76" height="74" viewBox="0 0 76 74" fill="none" xmlns="http://www.w3.org/2000/svg">
<path d="M45.23 73.2231C43.91 73.2231 42.59 72.7131 41.31 72.2131C40.11 71.7531 38.98 71.3131 37.96 71.3131C36.94 71.3131 35.81 71.7531 34.61 72.2131C32.99 72.8431 31.32 73.4931 29.66 73.1131C27.93 72.7231 26.68 71.3831 25.47 70.0831C24.62 69.1731 23.82 68.3131 22.95 67.8931C22.05 67.4631 20.86 67.3631 19.6 67.2631C17.85 67.1231 16.05 66.9831 14.69 65.8931C14.08 65.4031 13.58 64.7431 13.16 63.8631C12.93 63.3731 13.13 62.7931 13.62 62.5631C14.11 62.3331 14.69 62.5331 14.92 63.0231C15.21 63.6331 15.53 64.0731 15.91 64.3631C16.8 65.0731 18.24 65.1931 19.76 65.3131C21.14 65.4231 22.58 65.5331 23.8 66.1231C25 66.7031 25.96 67.7331 26.9 68.7431C27.95 69.8731 28.95 70.9431 30.09 71.2031C31.17 71.4531 32.5 70.9331 33.91 70.3931C35.22 69.8831 36.58 69.3631 37.97 69.3631C39.36 69.3631 40.71 69.8931 42.03 70.3931C43.44 70.9431 44.76 71.4531 45.85 71.2031C47 70.9431 47.99 69.8731 49.04 68.7431C49.97 67.7431 50.94 66.7031 52.14 66.1231C53.36 65.5331 54.79 65.4231 56.18 65.3131C57.7 65.1931 59.14 65.0831 60.03 64.3631C60.93 63.6431 61.36 62.2631 61.82 60.8031C62.23 59.4831 62.66 58.1131 63.5 57.0631C64.34 56.0131 65.57 55.3031 66.76 54.6031C68.09 53.8331 69.34 53.1031 69.8501 52.0531C70.34 51.0331 70.1301 49.6131 69.91 48.1131C69.7101 46.7331 69.5 45.3031 69.8 43.9731C70.09 42.6931 70.88 41.5231 71.65 40.3931C72.52 39.1131 73.34 37.9031 73.34 36.7031C73.34 35.5031 72.52 34.2931 71.65 33.0131C70.89 31.8831 70.09 30.7231 69.8 29.4331C69.5 28.0931 69.7101 26.6731 69.91 25.2931C70.1301 23.7931 70.34 22.3731 69.8501 21.3531C69.34 20.3031 68.09 19.5731 66.76 18.8031C65.57 18.1131 64.33 17.3931 63.5 16.3531C62.66 15.2931 62.23 13.9331 61.82 12.6131C61.36 11.1531 60.93 9.77308 60.03 9.05308C59.14 8.34308 57.7 8.2231 56.18 8.1031C54.8 7.9931 53.36 7.88307 52.14 7.29307C50.94 6.71307 49.98 5.68307 49.04 4.67307C47.99 3.54307 46.99 2.47308 45.85 2.21308C44.77 1.96308 43.44 2.48308 42.03 3.02308C40.72 3.53308 39.36 4.05308 37.97 4.05308C36.58 4.05308 35.23 3.52308 33.91 3.02308C32.5 2.47308 31.18 1.96308 30.09 2.21308C28.94 2.47308 27.95 3.54307 26.9 4.67307C25.97 5.67307 25 6.71307 23.8 7.29307C22.58 7.88307 21.15 7.9931 19.76 8.1031C18.24 8.2231 16.8 8.33308 15.91 9.05308C15.01 9.77308 14.58 11.1531 14.12 12.6131C13.71 13.9331 13.28 15.3031 12.44 16.3531C11.6 17.4031 10.37 18.1131 9.18004 18.8131C7.85004 19.5831 6.60004 20.3131 6.09004 21.3631C5.60004 22.3831 5.81004 23.8031 6.03004 25.3031C6.23004 26.6831 6.44005 28.1131 6.14005 29.4431C5.85005 30.7231 5.06004 31.8931 4.29004 33.0231C3.42004 34.3031 2.60004 35.5131 2.60004 36.7131C2.60004 37.9131 3.42004 39.1231 4.29004 40.4031C5.05004 41.5331 5.85005 42.6931 6.14005 43.9831C6.44005 45.3231 6.23004 46.7431 6.03004 48.1231C5.81004 49.6231 5.60004 51.0431 6.09004 52.0631C6.60004 53.1131 7.85004 53.8431 9.18004 54.6131C10.37 55.3031 11.61 56.0231 12.44 57.0631C13.07 57.8531 13.45 58.8131 13.72 59.5531C13.9 60.0631 13.63 60.6131 13.12 60.7931C12.61 60.9731 12.06 60.7031 11.88 60.1931C11.57 59.3031 11.27 58.7131 10.92 58.2731C10.31 57.5131 9.29004 56.9131 8.20004 56.2831C6.68004 55.4031 5.10003 54.4831 4.33003 52.9031C3.58003 51.3431 3.84004 49.5631 4.09004 47.8331C4.27004 46.5731 4.45004 45.3831 4.23004 44.4031C4.02004 43.4831 3.36004 42.5131 2.67004 41.4931C1.67004 40.0231 0.640045 38.5031 0.640045 36.7031C0.640045 34.9031 1.67004 33.3831 2.67004 31.9131C3.36004 30.8931 4.02004 29.9231 4.23004 29.0031C4.45004 28.0231 4.28004 26.8331 4.09004 25.5731C3.84004 23.8431 3.57003 22.0631 4.33003 20.5031C5.10003 18.9131 6.67004 18.0031 8.20004 17.1231C9.28004 16.4931 10.31 15.9031 10.92 15.1331C11.53 14.3631 11.89 13.2231 12.26 12.0231C12.78 10.3431 13.32 8.61308 14.69 7.52308C16.05 6.43308 17.86 6.29308 19.6 6.15308C20.86 6.05308 22.05 5.96308 22.95 5.52308C23.82 5.10308 24.62 4.24308 25.47 3.33308C26.68 2.03308 27.92 0.703078 29.66 0.303078C31.33 -0.0769221 33 0.573072 34.61 1.20307C35.81 1.66307 36.94 2.1031 37.96 2.1031C38.98 2.1031 40.11 1.66307 41.31 1.20307C42.93 0.573072 44.6 -0.0769221 46.26 0.303078C47.99 0.693078 49.24 2.03308 50.45 3.33308C51.3 4.24308 52.1 5.10308 52.97 5.52308C53.87 5.95308 55.06 6.05308 56.32 6.15308C58.07 6.29308 59.87 6.43308 61.23 7.52308C62.6 8.61308 63.14 10.3431 63.66 12.0231C64.04 13.2231 64.39 14.3631 65 15.1331C65.61 15.8931 66.6301 16.4931 67.72 17.1231C69.24 18.0031 70.82 18.9231 71.59 20.5031C72.34 22.0631 72.08 23.8431 71.83 25.5731C71.65 26.8331 71.47 28.0231 71.69 29.0031C71.9 29.9231 72.56 30.8931 73.25 31.9131C74.25 33.3831 75.28 34.9031 75.28 36.7031C75.28 38.5031 74.25 40.0231 73.25 41.4931C72.56 42.5131 71.9 43.4831 71.69 44.4031C71.47 45.3831 71.64 46.5731 71.83 47.8331C72.08 49.5631 72.35 51.3431 71.59 52.9031C70.82 54.4931 69.25 55.4031 67.72 56.2831C66.64 56.9131 65.61 57.5031 65 58.2731C64.39 59.0431 64.03 60.1831 63.66 61.3831C63.14 63.0631 62.6 64.7931 61.23 65.8831C59.87 66.9731 58.06 67.1131 56.32 67.2531C55.06 67.3531 53.87 67.4431 52.97 67.8831C52.1 68.3031 51.3 69.1631 50.45 70.0731C49.24 71.3731 48 72.7031 46.26 73.1031C45.92 73.1831 45.57 73.2131 45.23 73.2131V73.2231Z" fill="#1D1D1B"/>
<path d="M37.9602 64.4231C22.6902 64.4231 10.2602 51.9931 10.2602 36.7231C10.2602 21.4531 22.6902 9.02307 37.9602 9.02307C43.9902 9.02307 49.7202 10.9231 54.5302 14.5231C54.9602 14.8431 55.0502 15.4531 54.7302 15.8831C54.4102 16.3131 53.8002 16.4031 53.3702 16.0831C48.9002 12.7331 43.5702 10.9731 37.9702 10.9731C23.7702 10.9731 12.2202 22.5231 12.2202 36.7231C12.2202 50.9231 23.7702 62.4731 37.9702 62.4731C52.1702 62.4731 63.7202 50.9231 63.7202 36.7231C63.7202 32.2031 62.5302 27.7631 60.2902 23.8631C60.0202 23.3931 60.1802 22.8031 60.6502 22.5331C61.1202 22.2631 61.7102 22.4231 61.9802 22.8931C64.4002 27.0831 65.6702 31.8631 65.6702 36.7231C65.6702 51.9931 53.2402 64.4231 37.9702 64.4231H37.9602Z" fill="#1D1D1B"/>
<path d="M58.72 20.8631C58.44 20.8631 58.16 20.7431 57.96 20.5031C57.44 19.8631 56.88 19.2431 56.31 18.6531C55.93 18.2731 55.94 17.6531 56.32 17.2731C56.7 16.8931 57.32 16.9031 57.7 17.2831C58.32 17.9131 58.92 18.5831 59.48 19.2731C59.82 19.6931 59.76 20.3031 59.34 20.6431C59.16 20.7931 58.94 20.8631 58.73 20.8631H58.72Z" fill="#1D1D1B"/>
<path d="M26.4102 46.1831C26.2502 46.1831 26.1002 46.1432 25.9602 46.0732L21.9802 43.9831L18.0002 46.0732C17.6702 46.2432 17.2702 46.2131 16.9702 46.0031C16.6702 45.7831 16.5202 45.4131 16.5802 45.0531L17.3402 40.6231L14.1202 37.4831C13.8502 37.2231 13.7602 36.8331 13.8702 36.4831C13.9802 36.1331 14.2902 35.8732 14.6602 35.8232L19.1102 35.1731L21.1002 31.1431C21.2602 30.8131 21.6002 30.6031 21.9702 30.6031C22.3402 30.6031 22.6802 30.8131 22.8402 31.1431L24.8302 35.1731L29.2802 35.8232C29.6502 35.8732 29.9502 36.1331 30.0702 36.4831C30.1802 36.8331 30.0902 37.2231 29.8202 37.4831L26.6002 40.6231L27.3602 45.0531C27.4202 45.4231 27.2702 45.7931 26.9702 46.0031C26.8002 46.1231 26.6002 46.1931 26.4002 46.1931L26.4102 46.1831ZM21.9802 41.9031C22.1402 41.9031 22.2902 41.9431 22.4302 42.0131L25.1202 43.4231L24.6102 40.4331C24.5602 40.1131 24.6602 39.7932 24.8902 39.5732L27.0602 37.4531L24.0602 37.0131C23.7402 36.9631 23.4702 36.7631 23.3302 36.4831L21.9902 33.7631L20.6502 36.4831C20.5102 36.7731 20.2302 36.9731 19.9202 37.0131L16.9202 37.4531L19.0902 39.5732C19.3202 39.7932 19.4202 40.1231 19.3702 40.4331L18.8602 43.4231L21.5502 42.0131C21.6902 41.9431 21.8502 41.9031 22.0002 41.9031H21.9802Z" fill="#1D1D1B"/>
<path d="M49.5101 46.1831C49.3101 46.1831 49.1101 46.1231 48.9401 45.9931C48.6401 45.7731 48.4901 45.4031 48.5501 45.0431L49.3101 40.6131L46.0901 37.4731C45.8201 37.2131 45.7301 36.8231 45.8401 36.4731C45.9501 36.1231 46.2601 35.8631 46.6301 35.8131L51.0801 35.1631L53.0701 31.1331C53.2301 30.8031 53.5701 30.5931 53.9401 30.5931C54.3101 30.5931 54.6501 30.8031 54.8101 31.1331L56.8001 35.1631L61.2501 35.8131C61.6201 35.8631 61.9201 36.1231 62.0401 36.4731C62.1501 36.8231 62.0601 37.2131 61.7901 37.4731L58.5701 40.6131L59.3301 45.0431C59.3901 45.4131 59.2401 45.7831 58.9401 45.9931C58.6401 46.2131 58.2401 46.2431 57.9101 46.0631L53.9301 43.9731L49.9501 46.0631C49.8101 46.1331 49.6501 46.1731 49.5001 46.1731L49.5101 46.1831ZM48.8601 37.4531L51.0301 39.5732C51.2601 39.7932 51.3601 40.1231 51.3101 40.4331L50.8001 43.4231L53.4901 42.0131C53.7701 41.8631 54.1101 41.8631 54.4001 42.0131L57.0901 43.4231L56.5801 40.4331C56.5301 40.1131 56.6301 39.7932 56.8601 39.5732L59.0301 37.4531L56.0301 37.0131C55.7101 36.9631 55.4401 36.7631 55.3001 36.4831L53.9601 33.7631L52.6201 36.4831C52.4801 36.7731 52.2001 36.9731 51.8901 37.0131L48.8901 37.4531H48.8601Z" fill="#1D1D1B"/>
<path d="M44.7002 42.9232C44.5402 42.9232 44.3902 42.8832 44.2502 42.8132L37.9602 39.5132L31.6702 42.8132C31.3402 42.9832 30.9402 42.9532 30.6402 42.7432C30.3402 42.5232 30.1902 42.1532 30.2502 41.7932L31.4502 34.7932L26.3602 29.8332C26.0902 29.5732 26.0002 29.1832 26.1102 28.8332C26.2202 28.4832 26.5302 28.2232 26.9002 28.1732L33.9302 27.1532L37.0702 20.7832C37.2302 20.4532 37.5702 20.2432 37.9402 20.2432C38.3102 20.2432 38.6502 20.4532 38.8102 20.7832L42.1802 27.6132C42.4202 28.0932 42.2202 28.6832 41.7402 28.9232C41.2602 29.1632 40.6702 28.9632 40.4302 28.4832L37.9302 23.4232L35.4302 28.4832C35.2902 28.7732 35.0102 28.9732 34.7002 29.0132L29.1202 29.8232L33.1602 33.7632C33.3902 33.9832 33.4902 34.3132 33.4402 34.6232L32.4902 40.1832L37.4802 37.5632C37.7602 37.4132 38.1002 37.4132 38.3902 37.5632L43.3802 40.1832L42.4302 34.6232C42.3802 34.3032 42.4802 33.9832 42.7102 33.7632L46.7502 29.8232L44.0602 29.4332C43.5302 29.3532 43.1602 28.8632 43.2402 28.3332C43.3202 27.8032 43.8102 27.4332 44.3402 27.5132L48.9802 28.1832C49.3502 28.2332 49.6502 28.4932 49.7702 28.8432C49.8802 29.1932 49.7902 29.5832 49.5202 29.8432L44.4302 34.8032L45.6302 41.8032C45.6902 42.1732 45.5402 42.5432 45.2402 42.7532C45.0702 42.8732 44.8702 42.9432 44.6702 42.9432L44.7002 42.9232Z" fill="#1D1D1B"/>
</svg>
