<svg width="74" height="80" viewBox="0 0 74 80" fill="none" xmlns="http://www.w3.org/2000/svg">
<path d="M57.1802 57.4001H45.3702C44.7902 57.4001 44.3202 56.9302 44.3202 56.3502C44.3202 55.7702 44.7902 55.3002 45.3702 55.3002H56.1202V52.5502C56.1202 52.1102 55.7602 51.7502 55.3202 51.7502H18.3102C17.8702 51.7502 17.5102 52.1102 17.5102 52.5502V55.3002H41.7702C42.3502 55.3002 42.8202 55.7702 42.8202 56.3502C42.8202 56.9302 42.3502 57.4001 41.7702 57.4001H16.4602C15.8802 57.4001 15.4102 56.9302 15.4102 56.3502V52.5502C15.4102 50.9502 16.7102 49.6501 18.3102 49.6501H55.3202C56.9202 49.6501 58.2202 50.9502 58.2202 52.5502V56.3502C58.2202 56.9302 57.7502 57.4001 57.1702 57.4001H57.1802Z" fill="#1D1D1B"/>
<path d="M51.3001 49.1602C50.7601 49.1602 50.3001 48.7402 50.2501 48.1902L48.6401 28.0302C48.4901 26.1502 46.9001 24.6802 45.0101 24.6802H28.6101C26.7201 24.6802 25.1301 26.1502 24.9801 28.0302L23.3701 48.1902C23.3201 48.7702 22.8101 49.2002 22.2401 49.1502C21.6601 49.1002 21.2301 48.6002 21.2801 48.0202L22.8901 27.8602C23.1301 24.8902 25.6401 22.5702 28.6201 22.5702H45.0201C47.9901 22.5702 50.5101 24.8902 50.7501 27.8602L52.3601 48.0202C52.4101 48.6002 51.9701 49.1102 51.4001 49.1502C51.3701 49.1502 51.3401 49.1502 51.3201 49.1502L51.3001 49.1602Z" fill="#1D1D1B"/>
<path d="M36.82 20.2402C36.24 20.2402 35.77 19.7702 35.77 19.1902V16.3602C35.77 15.7802 36.24 15.3102 36.82 15.3102C37.4 15.3102 37.87 15.7802 37.87 16.3602V19.1902C37.87 19.7702 37.4 20.2402 36.82 20.2402Z" fill="#1D1D1B"/>
<path d="M22.4602 23.9202C22.1902 23.9202 21.9202 23.8202 21.7202 23.6102L18.0402 19.9302C17.6302 19.5202 17.6302 18.8502 18.0402 18.4402C18.4502 18.0302 19.1202 18.0302 19.5302 18.4402L23.2102 22.1202C23.6202 22.5302 23.6202 23.2002 23.2102 23.6102C23.0002 23.8202 22.7402 23.9202 22.4702 23.9202H22.4602Z" fill="#1D1D1B"/>
<path d="M51.1801 23.9202C50.9101 23.9202 50.6401 23.8202 50.4401 23.6102C50.0301 23.2002 50.0301 22.5302 50.4401 22.1202L54.1201 18.4402C54.5301 18.0302 55.2001 18.0302 55.6101 18.4402C56.0201 18.8502 56.0201 19.5202 55.6101 19.9302L51.9301 23.6102C51.7201 23.8202 51.4601 23.9202 51.1901 23.9202H51.1801Z" fill="#1D1D1B"/>
<path d="M28.2701 46.3502C27.8801 46.3502 27.5001 46.1302 27.3201 45.7502C27.0701 45.2302 27.3001 44.6002 27.8201 44.3502C30.2901 43.1802 31.8901 40.6602 31.8901 37.9202C31.8901 35.4102 30.5401 33.0502 28.3701 31.7802C27.8701 31.4902 27.7001 30.8402 27.9901 30.3402C28.2801 29.8402 28.9301 29.6702 29.4301 29.9602C32.2401 31.6102 33.9901 34.6502 33.9901 37.9102C33.9901 41.4502 31.9201 44.7202 28.7201 46.2402C28.5701 46.3102 28.4201 46.3402 28.2701 46.3402V46.3502Z" fill="#1D1D1B"/>
<path d="M45.3701 46.3502C45.2201 46.3502 45.0701 46.3202 44.9201 46.2502C41.7201 44.7302 39.6501 41.4603 39.6501 37.9203C39.6501 34.6603 41.4001 31.6202 44.2101 29.9702C44.7101 29.6802 45.3601 29.8402 45.6501 30.3502C45.9401 30.8502 45.7801 31.5003 45.2701 31.7903C43.1001 33.0603 41.7501 35.4102 41.7501 37.9302C41.7501 40.6602 43.3501 43.1903 45.8201 44.3603C46.3401 44.6103 46.5701 45.2403 46.3201 45.7603C46.1401 46.1403 45.7601 46.3603 45.3701 46.3603V46.3502Z" fill="#1D1D1B"/>
<path d="M39.54 75.3802C38.96 75.3802 38.49 74.9102 38.49 74.3302C38.49 73.7502 38.96 73.2802 39.54 73.2802C49.98 73.2802 57.49 70.9002 61.86 66.2002C66.08 61.6702 65.76 56.4802 65.75 56.4302C65.75 56.4002 65.75 56.3802 65.75 56.3502V31.2402C65.75 25.9702 64.3 20.7902 61.56 16.2802C61.26 15.7802 61.42 15.1402 61.91 14.8402C62.41 14.5402 63.05 14.7002 63.35 15.1902C66.29 20.0302 67.85 25.5802 67.85 31.2402V56.3202C67.89 56.9302 68.09 62.5602 63.43 67.6002C58.65 72.7702 50.61 75.3902 39.53 75.3902L39.54 75.3802Z" fill="#1D1D1B"/>
<path d="M60.0101 13.3203C59.7101 13.3203 59.4001 13.1903 59.2001 12.9403C58.6701 12.2903 58.1001 11.6503 57.5101 11.0503C57.1001 10.6303 57.1101 9.97025 57.5301 9.56025C57.9501 9.15025 58.6101 9.16027 59.0201 9.58027C59.6501 10.2303 60.2601 10.9103 60.8301 11.6003C61.2001 12.0503 61.1301 12.7103 60.6801 13.0803C60.4801 13.2403 60.2501 13.3203 60.0101 13.3203Z" fill="#1D1D1B"/>
<path d="M6.83003 56.1602C6.25003 56.1602 5.78003 55.6902 5.78003 55.1102V31.2302C5.78003 22.9702 9.02003 15.1802 14.9 9.31018C20.78 3.43018 28.57 0.190186 36.82 0.190186C43.83 0.190186 50.45 2.49019 55.98 6.85019C56.44 7.21019 56.51 7.8702 56.15 8.3302C55.79 8.7902 55.13 8.86018 54.67 8.50018C49.52 4.44018 43.34 2.29019 36.81 2.29019C29.11 2.29019 21.85 5.31019 16.37 10.7902C10.89 16.2702 7.87003 23.5302 7.87003 31.2302V55.1102C7.87003 55.6902 7.40003 56.1602 6.82003 56.1602H6.83003Z" fill="#1D1D1B"/>
<path d="M4.07 57.8401C1.82 57.8401 0 56.0101 0 53.7701V36.8401C0 34.5901 1.83 32.7701 4.07 32.7701C4.65 32.7701 5.12 33.2401 5.12 33.8201C5.12 34.4001 4.65 34.8701 4.07 34.8701C2.98 34.8701 2.1 35.7501 2.1 36.8401V53.7701C2.1 54.8601 2.98 55.7401 4.07 55.7401C4.69 55.7401 5.28 55.4401 5.66 54.9301C6 54.4601 6.66 54.3601 7.13 54.7101C7.6 55.0601 7.7 55.7101 7.35 56.1801C6.58 57.2201 5.36 57.8401 4.07 57.8401Z" fill="#1D1D1B"/>
<path d="M69.57 57.8401C68.28 57.8401 67.06 57.2201 66.29 56.1801C65.95 55.7101 66.04 55.0501 66.51 54.7101C66.98 54.3701 67.64 54.4601 67.98 54.9301C68.35 55.4401 68.95 55.7401 69.57 55.7401C70.66 55.7401 71.54 54.8601 71.54 53.7701V36.8401C71.54 35.7501 70.66 34.8701 69.57 34.8701C68.99 34.8701 68.52 34.4001 68.52 33.8201C68.52 33.2401 68.99 32.7701 69.57 32.7701C71.82 32.7701 73.64 34.6001 73.64 36.8401V53.7701C73.64 56.0201 71.81 57.8401 69.57 57.8401Z" fill="#1D1D1B"/>
<path d="M35.84 79.0902H25.72C23.1 79.0902 20.96 76.9602 20.96 74.3302C20.96 71.7002 23.09 69.5702 25.72 69.5702H35.84C38.46 69.5702 40.6 71.7002 40.6 74.3302C40.6 76.9602 38.47 79.0902 35.84 79.0902ZM25.72 71.6802C24.26 71.6802 23.07 72.8702 23.07 74.3302C23.07 75.7902 24.26 76.9802 25.72 76.9802H35.84C37.3 76.9802 38.5 75.7902 38.5 74.3302C38.5 72.8702 37.31 71.6802 35.84 71.6802H25.72Z" fill="#1D1D1B"/>
<path d="M36.82 14.4002C36.24 14.4002 35.77 13.9303 35.77 13.3503V12.6902C35.77 12.1102 36.24 11.6403 36.82 11.6403C37.4 11.6403 37.87 12.1102 37.87 12.6902V13.3503C37.87 13.9303 37.4 14.4002 36.82 14.4002Z" fill="#1D1D1B"/>
</svg>
