<svg width="80" height="81" viewBox="0 0 80 81" fill="none" xmlns="http://www.w3.org/2000/svg">
<g id="heart (1) 1">
<path id="Vector" d="M40.0199 12.1499C45.504 8.64332 52.216 7.74619 58.4024 9.69285C63.7831 11.3661 68.2573 15.2097 70.7848 20.3299C73.7403 26.5358 74.1426 33.6866 71.9025 40.1958C69.8406 46.188 66.4602 51.6202 62.0201 56.0765C59.1088 59.0687 55.9717 61.8238 52.6377 64.3164L52.4612 64.4663C51.3535 65.212 49.864 64.9191 49.1082 63.8071C48.724 63.27 48.5697 62.5973 48.6805 61.9424C48.7914 61.2875 49.1579 60.7063 49.6965 60.3313C52.8249 57.974 55.7745 55.3798 58.5201 52.5707C62.4741 48.6796 65.4936 43.9116 67.3436 38.6377C69.1231 33.3824 68.763 27.62 66.3436 22.6371C64.3968 18.7172 60.9665 15.7743 56.8436 14.487C51.5847 12.8118 45.8555 13.8273 41.4611 17.2137C40.5875 17.873 39.3935 17.873 38.5199 17.2137C34.1276 13.8226 28.396 12.8066 23.1375 14.487C18.9869 15.7459 15.5224 18.6799 13.5492 22.6072C11.1845 27.5864 10.8462 33.3157 12.608 38.5478C14.4659 43.8091 17.4846 48.5656 21.4316 52.4509C27.2637 58.1479 33.6948 63.1722 40.6082 67.4327C41.4875 68.054 41.8742 69.1814 41.566 70.2255C41.2579 71.2695 40.3251 71.9927 39.2552 72.0171C38.773 72.02 38.3012 71.8737 37.9023 71.5976C30.7005 67.1603 24.0029 61.9248 17.9316 55.9866C13.4668 51.545 10.0739 46.109 8.01975 40.1059C5.85703 33.6057 6.30098 26.4984 9.25505 20.3299C11.7826 15.2097 16.2568 11.3661 21.6375 9.69285C27.8239 7.74619 34.5359 8.64332 40.0199 12.1499ZM52.9612 22.0079C57.3468 23.4183 60.4684 27.3787 60.873 32.0457L60.8919 32.4368C60.8762 32.9562 60.6989 33.461 60.3805 33.8755C59.9824 34.3937 59.397 34.7275 58.7554 34.8023C57.4084 34.9796 56.1735 34.016 55.9906 32.6449C55.8677 29.8759 54.0576 27.481 51.4612 26.6522C50.4959 26.0382 50.0671 24.8319 50.4228 23.7306C50.7785 22.6293 51.8266 21.918 52.9612 22.0079Z" fill="#FFC629"/>
</g>
</svg>
