<svg width="26" height="26" viewBox="0 0 26 26" fill="none" xmlns="http://www.w3.org/2000/svg">
<g clip-path="url(#clip0_57_124)">
<path d="M12.9965 8.66531C10.6094 8.66531 8.66141 10.6134 8.66141 13.0005C8.66141 15.3876 10.6094 17.3357 12.9965 17.3357C15.3836 17.3357 17.3316 15.3876 17.3316 13.0005C17.3316 10.6134 15.3836 8.66531 12.9965 8.66531ZM25.9986 13.0005C25.9986 11.2053 26.0148 9.42632 25.914 7.63436C25.8132 5.55296 25.3384 3.70571 23.8164 2.18368C22.2911 0.658399 20.4472 0.186831 18.3658 0.0860127C16.5706 -0.0148054 14.7917 0.00145563 12.9998 0.00145563C11.2046 0.00145563 9.42566 -0.0148054 7.63373 0.0860127C5.55237 0.186831 3.70515 0.661652 2.18315 2.18368C0.657899 3.70896 0.186339 5.55296 0.0855228 7.63436C-0.0152934 9.42958 0.000967329 11.2085 0.000967329 13.0005C0.000967329 14.7924 -0.0152934 16.5747 0.0855228 18.3666C0.186339 20.448 0.661151 22.2953 2.18315 23.8173C3.7084 25.3426 5.55237 25.8141 7.63373 25.915C9.42891 26.0158 11.2078 25.9995 12.9998 25.9995C14.7949 25.9995 16.5739 26.0158 18.3658 25.915C20.4472 25.8141 22.2944 25.3393 23.8164 23.8173C25.3416 22.292 25.8132 20.448 25.914 18.3666C26.0181 16.5747 25.9986 14.7957 25.9986 13.0005ZM12.9965 19.6707C9.30533 19.6707 6.32637 16.6917 6.32637 13.0005C6.32637 9.30925 9.30533 6.33023 12.9965 6.33023C16.6877 6.33023 19.6666 9.30925 19.6666 13.0005C19.6666 16.6917 16.6877 19.6707 12.9965 19.6707ZM19.9398 7.61485C19.078 7.61485 18.382 6.91888 18.382 6.05705C18.382 5.19521 19.078 4.49924 19.9398 4.49924C20.8016 4.49924 21.4976 5.19521 21.4976 6.05705C21.4979 6.26169 21.4577 6.46438 21.3795 6.6535C21.3013 6.84261 21.1866 7.01445 21.0419 7.15915C20.8972 7.30386 20.7254 7.4186 20.5363 7.49679C20.3471 7.57499 20.1445 7.61511 19.9398 7.61485Z" fill="white"/>
</g>
<defs>
<clipPath id="clip0_57_124">
<rect width="26" height="26" fill="white" transform="translate(0 0.000488281)"/>
</clipPath>
</defs>
</svg>
