<svg width="90" height="90" viewBox="0 0 90 90" fill="none" xmlns="http://www.w3.org/2000/svg">
<g id="insurance-paper 1">
<g id="Approved Sign Insurance">
<path id="Vector" d="M82.9688 28.125H66.0938C65.7208 28.125 65.3631 27.9768 65.0994 27.7131C64.8357 27.4494 64.6875 27.0917 64.6875 26.7188V23.9062C64.6875 21.2955 65.7246 18.7917 67.5707 16.9457C69.4167 15.0996 71.9205 14.0625 74.5312 14.0625C77.142 14.0625 79.6458 15.0996 81.4918 16.9457C83.3379 18.7917 84.375 21.2955 84.375 23.9062V26.7188C84.375 27.0917 84.2268 27.4494 83.9631 27.7131C83.6994 27.9768 83.3417 28.125 82.9688 28.125ZM67.5 25.3125H81.5625V23.9062C81.5625 22.0414 80.8217 20.253 79.5031 18.9344C78.1845 17.6158 76.3961 16.875 74.5312 16.875C72.6664 16.875 70.878 17.6158 69.5594 18.9344C68.2408 20.253 67.5 22.0414 67.5 23.9062V25.3125ZM57.6562 75.9375H15.4688C12.858 75.9375 10.3542 74.9004 8.50817 73.0543C6.66211 71.2083 5.625 68.7045 5.625 66.0938V63.2812C5.625 62.9083 5.77316 62.5506 6.03688 62.2869C6.3006 62.0232 6.65829 61.875 7.03125 61.875H49.2188C49.5917 61.875 49.9494 62.0232 50.2131 62.2869C50.4768 62.5506 50.625 62.9083 50.625 63.2812V66.0938C50.625 67.9586 51.3658 69.747 52.6844 71.0656C54.003 72.3842 55.7914 73.125 57.6562 73.125C58.0292 73.125 58.3869 73.2732 58.6506 73.5369C58.9143 73.8006 59.0625 74.1583 59.0625 74.5312C59.0625 74.9042 58.9143 75.2619 58.6506 75.5256C58.3869 75.7893 58.0292 75.9375 57.6562 75.9375ZM8.4375 64.6875V66.0938C8.4375 67.9586 9.17829 69.747 10.4969 71.0656C11.8155 72.3842 13.6039 73.125 15.4688 73.125H50.7797C49.842 72.2095 49.0965 71.116 48.587 69.9086C48.0774 68.7012 47.8141 67.4043 47.8125 66.0938V64.6875H8.4375Z" fill="#FFC629"/>
<path id="Vector_2" d="M57.6562 75.9375C55.0455 75.9375 52.5417 74.9004 50.6957 73.0543C48.8496 71.2083 47.8125 68.7045 47.8125 66.0938V64.6875H23.9062C23.5333 64.6875 23.1756 64.5393 22.9119 64.2756C22.6482 64.0119 22.5 63.6542 22.5 63.2812V23.9062C22.5 21.2955 23.5371 18.7917 25.3832 16.9457C27.2292 15.0996 29.733 14.0625 32.3438 14.0625H74.5312C74.9042 14.0625 75.2619 14.2107 75.5256 14.4744C75.7893 14.7381 75.9375 15.0958 75.9375 15.4688C75.9375 15.8417 75.7893 16.1994 75.5256 16.4631C75.2619 16.7268 74.9042 16.875 74.5312 16.875C72.6664 16.875 70.878 17.6158 69.5594 18.9344C68.2408 20.253 67.5 22.0414 67.5 23.9062V43.3828C67.5117 43.6984 67.4167 44.0088 67.2305 44.2639C67.0443 44.519 66.7776 44.704 66.4734 44.7891L59.0625 46.8422V57.8531C59.0552 60.2504 59.5933 62.6178 60.6361 64.7764C61.6788 66.935 63.1989 68.8281 65.0812 70.3125C65.2299 70.4236 65.3531 70.5651 65.4428 70.7276C65.5325 70.89 65.5866 71.0697 65.6016 71.2547C65.6235 71.439 65.6087 71.6259 65.558 71.8045C65.5073 71.9831 65.4217 72.1499 65.3062 72.2953C65.0915 72.5616 64.8614 72.8151 64.6172 73.0547C63.7082 73.9757 62.624 74.7053 61.4284 75.2004C60.2329 75.6955 58.9502 75.9462 57.6562 75.9375ZM25.3125 61.875H49.2188C49.5917 61.875 49.9494 62.0232 50.2131 62.2869C50.4768 62.5506 50.625 62.9083 50.625 63.2812V66.0938C50.6233 67.4323 51.0037 68.7436 51.7215 69.8735C52.4393 71.0033 53.4648 71.9048 54.6773 72.4719C55.8898 73.039 57.239 73.2482 58.5664 73.075C59.8937 72.9017 61.144 72.3531 62.1703 71.4938C60.2972 69.7504 58.8045 67.6389 57.7858 65.2917C56.767 62.9444 56.2441 60.4119 56.25 57.8531V45.7875C56.2383 45.4719 56.3333 45.1615 56.5195 44.9064C56.7057 44.6513 56.9724 44.4663 57.2766 44.3812L64.6875 42.3281V23.9062C64.6807 22.6113 64.9335 21.328 65.4311 20.1324C65.9286 18.9368 66.6608 17.8531 67.5844 16.9453V16.875H32.3438C30.4789 16.875 28.6905 17.6158 27.3719 18.9344C26.0533 20.253 25.3125 22.0414 25.3125 23.9062V61.875Z" fill="#FFC629"/>
<path id="Vector_3" d="M57.6562 29.5312H32.3438C31.9708 29.5312 31.6131 29.3831 31.3494 29.1194C31.0857 28.8556 30.9375 28.498 30.9375 28.125C30.9375 27.752 31.0857 27.3944 31.3494 27.1306C31.6131 26.8669 31.9708 26.7188 32.3438 26.7188H57.6562C58.0292 26.7188 58.3869 26.8669 58.6506 27.1306C58.9143 27.3944 59.0625 27.752 59.0625 28.125C59.0625 28.498 58.9143 28.8556 58.6506 29.1194C58.3869 29.3831 58.0292 29.5312 57.6562 29.5312ZM57.6562 37.9688H32.3438C31.9708 37.9688 31.6131 37.8206 31.3494 37.5569C31.0857 37.2931 30.9375 36.9355 30.9375 36.5625C30.9375 36.1895 31.0857 35.8319 31.3494 35.5681C31.6131 35.3044 31.9708 35.1562 32.3438 35.1562H57.6562C58.0292 35.1562 58.3869 35.3044 58.6506 35.5681C58.9143 35.8319 59.0625 36.1895 59.0625 36.5625C59.0625 36.9355 58.9143 37.2931 58.6506 37.5569C58.3869 37.8206 58.0292 37.9688 57.6562 37.9688ZM52.0312 46.4062H32.3438C31.9708 46.4062 31.6131 46.2581 31.3494 45.9944C31.0857 45.7306 30.9375 45.373 30.9375 45C30.9375 44.627 31.0857 44.2694 31.3494 44.0056C31.6131 43.7419 31.9708 43.5938 32.3438 43.5938H52.0312C52.4042 43.5938 52.7619 43.7419 53.0256 44.0056C53.2893 44.2694 53.4375 44.627 53.4375 45C53.4375 45.373 53.2893 45.7306 53.0256 45.9944C52.7619 46.2581 52.4042 46.4062 52.0312 46.4062ZM52.0312 54.8438H32.3438C31.9708 54.8438 31.6131 54.6956 31.3494 54.4319C31.0857 54.1681 30.9375 53.8105 30.9375 53.4375C30.9375 53.0645 31.0857 52.7069 31.3494 52.4431C31.6131 52.1794 31.9708 52.0312 32.3438 52.0312H52.0312C52.4042 52.0312 52.7619 52.1794 53.0256 52.4431C53.2893 52.7069 53.4375 53.0645 53.4375 53.4375C53.4375 53.8105 53.2893 54.1681 53.0256 54.4319C52.7619 54.6956 52.4042 54.8438 52.0312 54.8438ZM70.3125 75.9375C70.1868 75.958 70.0585 75.958 69.9328 75.9375C65.9958 74.8212 62.53 72.4517 60.0609 69.1883C57.5917 65.9248 56.2538 61.9454 56.25 57.8531V45.7875C56.2383 45.4719 56.3333 45.1615 56.5195 44.9064C56.7057 44.6513 56.9724 44.4663 57.2766 44.3812L69.9328 40.7812C70.1811 40.7116 70.4439 40.7116 70.6922 40.7812L83.3484 44.3812C83.6526 44.4663 83.9193 44.6513 84.1055 44.9064C84.2917 45.1615 84.3867 45.4719 84.375 45.7875V57.8531C84.3689 61.9448 83.0301 65.9231 80.5613 69.1861C78.0925 72.4491 74.6281 74.8191 70.6922 75.9375C70.5665 75.958 70.4382 75.958 70.3125 75.9375ZM59.0625 46.8422V57.8531C59.0552 60.2504 59.5933 62.6178 60.6361 64.7764C61.6788 66.935 63.1989 68.8281 65.0812 70.3125C66.6344 71.5679 68.4087 72.5218 70.3125 73.125C73.5595 72.1105 76.3995 70.0894 78.4219 67.3541C80.4443 64.6188 81.5442 61.3111 81.5625 57.9094V46.8562L70.3125 43.5938L59.0625 46.8422Z" fill="#FFC629"/>
<path id="Vector_4" d="M68.9061 63.2813C68.7211 63.2823 68.5376 63.2469 68.3663 63.1769C68.1949 63.1069 68.0391 63.0038 67.9077 62.8735L64.3921 59.3578C64.261 59.2267 64.157 59.0711 64.086 58.8997C64.015 58.7284 63.9785 58.5448 63.9785 58.3594C63.9785 58.174 64.015 57.9904 64.086 57.819C64.157 57.6477 64.261 57.4921 64.3921 57.361C64.5232 57.2298 64.6789 57.1258 64.8502 57.0549C65.0215 56.9839 65.2051 56.9474 65.3905 56.9474C65.5759 56.9474 65.7596 56.9839 65.9309 57.0549C66.1022 57.1258 66.2578 57.2298 66.389 57.361L68.9061 59.8922L74.939 53.8453C75.2038 53.5805 75.5629 53.4318 75.9374 53.4318C76.3119 53.4318 76.671 53.5805 76.9358 53.8453C77.2006 54.1101 77.3494 54.4693 77.3494 54.8438C77.3494 55.2183 77.2006 55.5774 76.9358 55.8422L69.9046 62.8735C69.7732 63.0038 69.6174 63.1069 69.446 63.1769C69.2747 63.2469 69.0912 63.2823 68.9061 63.2813Z" fill="#FFC629"/>
</g>
</g>
</svg>
