<svg width="161" height="127" viewBox="0 0 161 127" fill="none" xmlns="http://www.w3.org/2000/svg">
<g clip-path="url(#clip0_22_882)">
<path d="M137.18 110.9C101.85 151.49 90.92 98.08 52.04 101.43C0.18 105.9 1.8 92.85 0.179998 61.97C-1.82 23.9 13.17 10.15 31 5.21998C66.32 -4.55002 106.66 0.769981 136.18 9.89998C177.52 22.68 157.48 87.57 137.18 110.9Z" fill="#F7C74F"/>
<path d="M82.56 75.63H73.97C71.46 75.63 69.21 74.13 68.23 71.82C67.94 71.13 68.26 70.34 68.95 70.04C69.64 69.75 70.43 70.07 70.73 70.76C71.29 72.07 72.56 72.92 73.98 72.92H82.57C84.52 72.92 86.1 71.34 86.1 69.39C86.1 67.44 84.52 65.86 82.57 65.86H74.36C70.92 65.86 68.12 63.06 68.12 59.62C68.12 56.18 70.92 53.38 74.36 53.38H82.95C85.46 53.38 87.71 54.88 88.69 57.19C88.98 57.88 88.66 58.67 87.97 58.97C87.28 59.26 86.49 58.94 86.19 58.25C85.63 56.94 84.36 56.09 82.94 56.09H74.35C72.4 56.09 70.82 57.67 70.82 59.62C70.82 61.57 72.4 63.15 74.35 63.15H82.56C86 63.15 88.8 65.95 88.8 69.39C88.8 72.83 86 75.63 82.56 75.63Z" fill="#1D1D1B"/>
<path d="M78.45 80.16C77.7 80.16 77.1 79.55 77.1 78.81V50.22C77.1 49.47 77.71 48.87 78.45 48.87C79.19 48.87 79.8 49.48 79.8 50.22V78.81C79.8 79.56 79.19 80.16 78.45 80.16Z" fill="#1D1D1B"/>
<path d="M99.04 92.01H29.95C29.2 92.01 28.6 91.4 28.6 90.66V38.38C28.6 37.63 29.21 37.03 29.95 37.03H51.28C52.03 37.03 52.63 37.64 52.63 38.38C52.63 39.12 52.02 39.73 51.28 39.73H31.3V89.31H99.04C99.79 89.31 100.39 89.92 100.39 90.66C100.39 91.4 99.78 92.01 99.04 92.01Z" fill="#1D1D1B"/>
<path d="M126.96 92.01H105.63C104.88 92.01 104.28 91.4 104.28 90.66C104.28 89.92 104.89 89.31 105.63 89.31H125.61V39.73H74.19C73.44 39.73 72.84 39.12 72.84 38.38C72.84 37.64 73.45 37.03 74.19 37.03H126.96C127.71 37.03 128.31 37.64 128.31 38.38V90.66C128.31 91.41 127.7 92.01 126.96 92.01Z" fill="#1D1D1B"/>
<path d="M109.69 86.37C108.94 86.37 108.34 85.76 108.34 85.02C108.34 78.47 113.32 73.07 119.69 72.39V56.76C113.32 56.08 108.34 50.68 108.34 44.13C108.34 43.38 108.95 42.78 109.69 42.78C110.43 42.78 111.04 43.39 111.04 44.13C111.04 49.64 115.52 54.12 121.03 54.12C121.78 54.12 122.38 54.73 122.38 55.47V73.66C122.38 74.41 121.77 75.01 121.03 75.01C115.52 75.01 111.04 79.49 111.04 85C111.04 85.75 110.43 86.35 109.69 86.35V86.37Z" fill="#1D1D1B"/>
<path d="M46.65 86.3701C45.9 86.3701 45.3 85.76 45.3 85.02C45.3 79.51 40.82 75.03 35.31 75.03C34.56 75.03 33.96 74.42 33.96 73.68V55.4901C33.96 54.7401 34.57 54.14 35.31 54.14C40.82 54.14 45.3 49.6601 45.3 44.1501C45.3 43.4001 45.91 42.8 46.65 42.8C47.39 42.8 48 43.4101 48 44.1501C48 50.7001 43.02 56.1 36.65 56.78V72.4101C43.02 73.0901 48 78.4901 48 85.0401C48 85.7901 47.39 86.39 46.65 86.39V86.3701Z" fill="#1D1D1B"/>
<path d="M67.22 55.05C66.88 55.05 66.54 54.92 66.28 54.67L38.51 27.95C37.97 27.43 37.95 26.57 38.47 26.03C38.99 25.49 39.85 25.47 40.39 25.99L68.16 52.71C68.7 53.23 68.72 54.09 68.2 54.63C67.93 54.91 67.58 55.05 67.22 55.05Z" fill="#1D1D1B"/>
<path d="M117.46 103.4C117.12 103.4 116.78 103.27 116.52 103.02L89.01 76.55C88.47 76.03 88.45 75.17 88.97 74.63C89.49 74.09 90.35 74.07 90.89 74.59L118.4 101.06C118.94 101.58 118.96 102.44 118.44 102.98C118.17 103.26 117.82 103.4 117.46 103.4Z" fill="#1D1D1B"/>
<path d="M69.74 39.72H67.49C66.74 39.72 66.14 39.11 66.14 38.37C66.14 37.63 66.75 37.02 67.49 37.02H69.74C70.49 37.02 71.09 37.63 71.09 38.37C71.09 39.11 70.48 39.72 69.74 39.72Z" fill="#1D1D1B"/>
<path d="M62.97 39.72H57.31C56.56 39.72 55.96 39.11 55.96 38.37C55.96 37.63 56.57 37.02 57.31 37.02H62.97C63.72 37.02 64.32 37.63 64.32 38.37C64.32 39.11 63.71 39.72 62.97 39.72Z" fill="#1D1D1B"/>
</g>
<defs>
<clipPath id="clip0_22_882">
<rect width="160.32" height="126.2" fill="white"/>
</clipPath>
</defs>
</svg>
