<svg width="149" height="138" viewBox="0 0 149 138" fill="none" xmlns="http://www.w3.org/2000/svg">
<g clip-path="url(#clip0_25_954)">
<path d="M15.85 30.21C-24.68 65.61 24.3 66.23 32.59 104.36C43.64 155.23 69.76 131.93 100.59 134.36C138.59 137.36 148.74 118.92 148.18 100.43C147.08 63.79 142.03 44.87 124.59 19.36C100.17 -16.36 46.59 3.35999 15.85 30.21Z" fill="#F7C74F"/>
<path d="M92.98 99.85C92.62 99.85 92.28 99.71 92.02 99.45L75.43 82.86C74.9 82.33 74.9 81.47 75.43 80.94C75.96 80.41 76.82 80.41 77.35 80.94L93.49 97.08L99.32 96.47L99.56 91.08L95.78 87.3H90.34C89.61 87.3 89.01 86.73 88.99 86L88.83 81.9H85.19C84.46 81.9 83.86 81.32 83.84 80.6L83.64 75.36L80.6 72.32C80.2 71.92 80.09 71.32 80.32 70.8C82.74 65.45 81.57 59.07 77.43 54.92C71.9 49.39 62.9 49.39 57.37 54.92C54.69 57.6 53.22 61.16 53.22 64.95C53.22 68.74 54.7 72.3 57.37 74.98C61.54 79.15 67.72 80.31 73.12 77.93C73.8 77.63 74.6 77.93 74.91 78.62C75.21 79.3 74.91 80.1 74.22 80.41C67.79 83.24 60.43 81.86 55.46 76.9C52.27 73.71 50.51 69.47 50.51 64.95C50.51 60.43 52.27 56.2 55.46 53C62.05 46.41 72.76 46.41 79.35 53C84.07 57.72 85.54 64.86 83.16 71.04L85.94 73.82C86.18 74.06 86.32 74.39 86.34 74.73L86.51 79.2H90.15C90.88 79.2 91.48 79.77 91.5 80.5L91.66 84.6H96.36C96.72 84.6 97.06 84.74 97.32 85L101.92 89.6C102.19 89.87 102.33 90.24 102.32 90.62L102 97.77C101.97 98.44 101.45 98.99 100.79 99.06L93.16 99.86C93.16 99.86 93.07 99.86 93.02 99.86L92.98 99.85Z" fill="#1D1D1B"/>
<path d="M63.04 65.74C61.68 65.74 60.41 65.21 59.45 64.25C57.47 62.27 57.47 59.05 59.45 57.07C61.43 55.09 64.65 55.09 66.63 57.07C68.61 59.05 68.61 62.27 66.63 64.25C65.67 65.21 64.4 65.74 63.04 65.74ZM63.04 58.3C62.43 58.3 61.83 58.53 61.37 58.99C60.45 59.91 60.45 61.41 61.37 62.34C61.82 62.79 62.41 63.03 63.04 63.03C63.67 63.03 64.27 62.78 64.71 62.34C65.63 61.42 65.63 59.92 64.71 58.99C64.25 58.53 63.64 58.3 63.04 58.3Z" fill="#1D1D1B"/>
<path d="M77.37 124.02C77.2 124.02 77.03 123.99 76.86 123.92C71.42 121.7 66.43 118.93 62.03 115.69C61.43 115.25 61.3 114.4 61.74 113.8C62.18 113.2 63.03 113.07 63.63 113.51C67.85 116.62 72.65 119.27 77.88 121.41C78.57 121.69 78.91 122.48 78.62 123.18C78.41 123.71 77.9 124.02 77.37 124.02Z" fill="#1D1D1B"/>
<path d="M58.9 112.8C58.58 112.8 58.27 112.69 58.01 112.47C43.88 100.12 38.84 83.89 37.11 72.45C35.23 60.09 36.66 50.76 36.72 50.37C36.82 49.72 37.38 49.23 38.04 49.23C45.35 49.15 50.68 46.01 53.87 39.91C56.32 35.23 56.57 30.48 56.57 30.43C56.6 29.81 57.04 29.29 57.65 29.16C64.09 27.83 91.73 27.83 98.17 29.16C98.78 29.29 99.22 29.81 99.25 30.43C99.25 30.48 99.5 35.23 101.95 39.91C105.15 46.01 110.47 49.15 117.78 49.23C118.44 49.23 119 49.72 119.1 50.37C119.15 50.67 120.25 57.87 119.26 68C119.19 68.74 118.52 69.29 117.78 69.22C117.04 69.15 116.49 68.48 116.56 67.74C117.29 60.22 116.82 54.27 116.56 51.9C106.86 51.37 101.93 45.78 99.49 41.08C97.5 37.25 96.84 33.46 96.63 31.65C89.41 30.61 66.39 30.61 59.18 31.65C58.97 33.46 58.31 37.25 56.32 41.08C53.88 45.78 48.96 51.37 39.26 51.9C38.95 54.71 38.34 62.56 39.8 72.13C41.48 83.1 46.31 98.64 59.8 110.43C60.36 110.92 60.42 111.78 59.93 112.34C59.66 112.65 59.29 112.8 58.91 112.8H58.9Z" fill="#1D1D1B"/>
<path d="M62.83 36.15C62.12 36.15 61.53 35.6 61.48 34.89C61.43 34.14 61.99 33.5 62.74 33.44C70.82 32.87 84.99 32.88 93.08 33.44C93.83 33.49 94.39 34.14 94.34 34.89C94.29 35.64 93.64 36.2 92.89 36.15C84.91 35.59 70.91 35.59 62.93 36.15C62.9 36.15 62.87 36.15 62.83 36.15Z" fill="#1D1D1B"/>
<path d="M116.69 77.44C116.6 77.44 116.51 77.44 116.42 77.41C115.69 77.26 115.21 76.55 115.36 75.81C115.59 74.7 115.79 73.56 115.97 72.44C116.09 71.7 116.78 71.2 117.52 71.31C118.26 71.43 118.76 72.12 118.65 72.86C118.47 74.03 118.26 75.2 118.02 76.35C117.89 76.99 117.32 77.44 116.69 77.44Z" fill="#1D1D1B"/>
<path d="M78.44 124.02C77.91 124.02 77.4 123.7 77.19 123.18C76.91 122.49 77.24 121.7 77.93 121.41C88.13 117.25 96.5 111.18 102.8 103.39C107.91 97.07 111.71 89.57 114.09 81.1C114.29 80.38 115.04 79.9601 115.76 80.1601C116.48 80.3601 116.9 81.11 116.7 81.83C114.22 90.65 110.26 98.48 104.91 105.09C98.31 113.25 89.58 119.58 78.96 123.92C78.79 123.99 78.62 124.02 78.45 124.02H78.44Z" fill="#1D1D1B"/>
<path d="M79.4 75.3C79.1 75.3 78.79 75.2 78.54 74.99C77.96 74.51 77.88 73.66 78.35 73.08L80.49 70.48C80.97 69.9 81.82 69.82 82.4 70.29C82.98 70.77 83.06 71.62 82.59 72.2L80.45 74.8C80.18 75.13 79.79 75.29 79.4 75.29V75.3Z" fill="#1D1D1B"/>
<path d="M77.37 118.39C77.17 118.39 76.97 118.35 76.79 118.26C62.52 111.53 53.63 100.24 53.56 100.13C53.14 99.5101 53.31 98.6701 53.94 98.2501C54.56 97.8401 55.39 98.0001 55.81 98.6101C55.97 98.8201 64.35 109.22 77.43 115.56C79.65 114.68 88.59 110.86 95.49 103.9C96.02 103.37 96.87 103.36 97.41 103.9C97.94 104.43 97.95 105.28 97.41 105.82C89.07 114.23 78.28 118.16 77.82 118.32C77.67 118.37 77.52 118.4 77.36 118.4L77.37 118.39Z" fill="#1D1D1B"/>
</g>
<defs>
<clipPath id="clip0_25_954">
<rect width="148.21" height="137.62" fill="white"/>
</clipPath>
</defs>
</svg>
