<svg width="173" height="138" viewBox="0 0 173 138" fill="none" xmlns="http://www.w3.org/2000/svg">
<g clip-path="url(#clip0_22_905)">
<path d="M8.71 107.17C29.07 156.94 32.36 114.37 84.43 129.85C136.5 145.33 157.02 139.04 169.29 97.7699C176.11 74.8299 172.52 23.4799 150.68 9.81995C107.42 -17.2301 97.71 20.1199 54.7 20.5799C-5.54 21.2299 -7.59 67.3199 8.71 107.17Z" fill="#F7C74F"/>
<path d="M108.99 59.9599H99.63C96.95 59.9599 94.53 58.36 93.48 55.88C93.19 55.19 93.51 54.3999 94.2 54.0999C94.89 53.8099 95.68 54.1299 95.98 54.82C96.61 56.2999 98.04 57.25 99.63 57.25H108.99C111.18 57.25 112.96 55.4699 112.96 53.2799C112.96 51.0899 111.18 49.31 108.99 49.31H100.05C96.37 49.31 93.37 46.32 93.37 42.63C93.37 38.94 96.36 35.95 100.05 35.95H109.41C112.09 35.95 114.51 37.5499 115.56 40.0299C115.85 40.7199 115.53 41.51 114.84 41.81C114.15 42.1 113.36 41.78 113.06 41.09C112.43 39.61 111 38.66 109.41 38.66H100.05C97.86 38.66 96.08 40.44 96.08 42.63C96.08 44.82 97.86 46.5999 100.05 46.5999H108.99C112.67 46.5999 115.67 49.5899 115.67 53.2799C115.67 56.9699 112.68 59.9599 108.99 59.9599Z" fill="#1D1D1B"/>
<path d="M104.51 64.9C103.76 64.9 103.16 64.29 103.16 63.55V32.39C103.16 31.64 103.77 31.04 104.51 31.04C105.25 31.04 105.86 31.65 105.86 32.39V63.55C105.86 64.3 105.25 64.9 104.51 64.9Z" fill="#1D1D1B"/>
<path d="M117.11 108.81H35.46C34.71 108.81 34.11 108.2 34.11 107.46V99.8C34.11 92.29 36.11 84.91 39.89 78.47C43.56 72.22 48.81 66.98 55.08 63.33C55.73 62.95 56.56 63.17 56.93 63.82C57.31 64.47 57.09 65.3 56.44 65.67C50.58 69.09 45.66 73.99 42.23 79.84C38.69 85.87 36.82 92.77 36.82 99.8V106.11H115.76V99.8C115.76 78.04 98.05 60.33 76.29 60.33C71.16 60.33 66.16 61.3 61.45 63.21C60.76 63.49 59.97 63.16 59.68 62.46C59.4 61.77 59.73 60.98 60.43 60.69C65.47 58.64 70.81 57.61 76.29 57.61C99.55 57.61 118.47 76.53 118.47 99.79V107.45C118.47 108.2 117.86 108.8 117.12 108.8L117.11 108.81Z" fill="#1D1D1B"/>
<path d="M48.43 100.45C47.68 100.45 47.08 99.84 47.08 99.1C47.08 82.99 60.18 69.89 76.29 69.89C82.66 69.89 88.72 71.91 93.8 75.72C94.4 76.17 94.52 77.02 94.07 77.62C93.62 78.22 92.77 78.34 92.17 77.89C87.56 74.43 82.06 72.6 76.28 72.6C61.67 72.6 49.78 84.49 49.78 99.1C49.78 99.85 49.17 100.45 48.43 100.45Z" fill="#1D1D1B"/>
<path d="M76.28 65.71C75.53 65.71 74.93 65.1 74.93 64.36V59.56C74.93 58.81 75.54 58.21 76.28 58.21C77.02 58.21 77.63 58.82 77.63 59.56V64.36C77.63 65.11 77.02 65.71 76.28 65.71Z" fill="#1D1D1B"/>
<path d="M47.63 80.4899C47.28 80.4899 46.94 80.3599 46.67 80.0899L43.27 76.6999C42.74 76.1699 42.74 75.3099 43.27 74.7799C43.8 74.2499 44.66 74.2499 45.19 74.7799L48.59 78.1699C49.12 78.6999 49.12 79.5599 48.59 80.0899C48.33 80.3499 47.98 80.4899 47.63 80.4899Z" fill="#1D1D1B"/>
<path d="M104.94 80.4899C104.59 80.4899 104.25 80.3599 103.98 80.0899C103.45 79.5599 103.45 78.6999 103.98 78.1699L107.38 74.7799C107.91 74.2499 108.77 74.2499 109.3 74.7799C109.83 75.3099 109.83 76.1699 109.3 76.6999L105.9 80.0899C105.64 80.3499 105.29 80.4899 104.94 80.4899Z" fill="#1D1D1B"/>
<path d="M76.28 103.97C73.3 103.97 70.88 101.55 70.88 98.57C70.88 95.59 73.3 93.17 76.28 93.17C79.26 93.17 81.68 95.59 81.68 98.57C81.68 101.55 79.26 103.97 76.28 103.97ZM76.28 95.88C74.8 95.88 73.59 97.09 73.59 98.57C73.59 100.05 74.8 101.26 76.28 101.26C77.76 101.26 78.97 100.05 78.97 98.57C78.97 97.09 77.76 95.88 76.28 95.88Z" fill="#1D1D1B"/>
<path d="M80.01 96.19C79.66 96.19 79.32 96.06 79.05 95.79C78.52 95.26 78.52 94.4 79.05 93.87L95.12 77.8C95.65 77.27 96.51 77.27 97.04 77.8C97.57 78.33 97.57 79.19 97.04 79.72L80.97 95.79C80.71 96.05 80.36 96.19 80.01 96.19Z" fill="#1D1D1B"/>
<path d="M78.61 114.75H35.45C34.7 114.75 34.1 114.14 34.1 113.4C34.1 112.66 34.71 112.05 35.45 112.05H78.61C79.36 112.05 79.96 112.66 79.96 113.4C79.96 114.14 79.35 114.75 78.61 114.75Z" fill="#1D1D1B"/>
<path d="M86.93 114.75H83.85C83.1 114.75 82.5 114.14 82.5 113.4C82.5 112.66 83.11 112.05 83.85 112.05H86.93C87.68 112.05 88.28 112.66 88.28 113.4C88.28 114.14 87.67 114.75 86.93 114.75Z" fill="#1D1D1B"/>
<path d="M117.11 114.75H91.92C91.17 114.75 90.57 114.14 90.57 113.4C90.57 112.66 91.18 112.05 91.92 112.05H117.11C117.86 112.05 118.46 112.66 118.46 113.4C118.46 114.14 117.85 114.75 117.11 114.75Z" fill="#1D1D1B"/>
<path d="M40.36 101.15H35.46C34.71 101.15 34.11 100.54 34.11 99.8C34.11 99.06 34.72 98.45 35.46 98.45H40.36C41.11 98.45 41.71 99.06 41.71 99.8C41.71 100.54 41.1 101.15 40.36 101.15Z" fill="#1D1D1B"/>
<path d="M116.51 101.15H111.61C110.86 101.15 110.26 100.54 110.26 99.8C110.26 99.06 110.87 98.45 111.61 98.45H116.51C117.26 98.45 117.86 99.06 117.86 99.8C117.86 100.54 117.25 101.15 116.51 101.15Z" fill="#1D1D1B"/>
<path d="M114.31 73.71C113.77 73.71 113.26 73.39 113.05 72.86C112.77 72.17 113.11 71.38 113.8 71.1C123.3 67.28 129.43 58.2 129.43 47.97C129.43 43.16 128.06 38.49 125.46 34.47C125.05 33.84 125.23 33 125.86 32.6C126.49 32.19 127.33 32.37 127.73 33C130.61 37.46 132.13 42.63 132.13 47.97C132.13 59.32 125.33 69.38 114.8 73.62C114.63 73.69 114.46 73.72 114.3 73.72L114.31 73.71Z" fill="#1D1D1B"/>
<path d="M123.12 30.76C122.77 30.76 122.43 30.63 122.16 30.36C121.6 29.8 121.01 29.26 120.4 28.76C119.82 28.28 119.74 27.43 120.22 26.85C120.7 26.27 121.55 26.19 122.13 26.67C122.8 27.23 123.46 27.83 124.08 28.44C124.61 28.97 124.61 29.83 124.08 30.36C123.82 30.62 123.47 30.76 123.12 30.76Z" fill="#1D1D1B"/>
<path d="M79.02 55.73C78.41 55.73 77.86 55.32 77.71 54.7C77.16 52.51 76.88 50.24 76.88 47.96C76.88 32.72 89.27 20.33 104.51 20.33C109.14 20.33 113.72 21.5 117.76 23.71C118.42 24.07 118.66 24.89 118.3 25.55C117.94 26.21 117.12 26.45 116.46 26.09C112.82 24.1 108.69 23.05 104.51 23.05C90.77 23.05 79.59 34.23 79.59 47.97C79.59 50.03 79.84 52.07 80.34 54.05C80.52 54.78 80.08 55.51 79.35 55.69C79.24 55.72 79.13 55.73 79.02 55.73Z" fill="#1D1D1B"/>
</g>
<defs>
<clipPath id="clip0_22_905">
<rect width="172.4" height="137.59" fill="white"/>
</clipPath>
</defs>
</svg>
