<svg width="26" height="26" viewBox="0 0 26 26" fill="none" xmlns="http://www.w3.org/2000/svg">
<g clip-path="url(#clip0_57_126)">
<path d="M5.09893 0.00732422C2.29707 0.00732422 0.00390625 2.30043 0.00390625 5.10235V20.9131C0.00390625 23.715 2.29702 26.0073 5.09893 26.0073H20.9097C23.7116 26.0073 26.0039 23.715 26.0039 20.9131V5.10235C26.0039 2.30049 23.7116 0.00732422 20.9097 0.00732422H5.09893ZM6.38041 4.29785C7.72385 4.29785 8.55134 5.17979 8.57689 6.33909C8.57689 7.47279 7.72379 8.37953 6.35443 8.37953H6.32922C5.01135 8.37953 4.15956 7.47285 4.15956 6.33909C4.15956 5.17981 5.03713 4.29785 6.38038 4.29785H6.38041ZM17.9575 9.71627C20.5412 9.71627 22.4781 11.405 22.4781 15.0339V21.8086H18.5516V15.4881C18.5516 13.8999 17.9833 12.8163 16.5623 12.8163C15.4775 12.8163 14.831 13.5467 14.5471 14.2522C14.4434 14.5046 14.4179 14.8571 14.4179 15.2102V21.8086H10.4914C10.4914 21.8086 10.5429 11.102 10.4914 9.99335H14.4187V11.6665C14.9405 10.8615 15.8738 9.71625 17.9575 9.71625V9.71627ZM4.39117 9.99421H8.31766V21.8086H4.39117V9.99421Z" fill="white"/>
</g>
<defs>
<clipPath id="clip0_57_126">
<rect width="26" height="26" fill="white" transform="translate(0 0.000488281)"/>
</clipPath>
</defs>
</svg>
