<svg width="69" height="69" viewBox="0 0 69 69" fill="none" xmlns="http://www.w3.org/2000/svg">
<g id="payment (1) 1">
<path id="Vector" d="M27.2227 64.6875C27.5086 64.6875 27.7828 64.5739 27.985 64.3717C28.1872 64.1695 28.3008 63.8953 28.3008 63.6093C28.3008 63.3234 28.1872 63.0492 27.985 62.847C27.7828 62.6448 27.5086 62.5312 27.2227 62.5312H17.5195C17.2336 62.5312 16.9594 62.6448 16.7572 62.847C16.555 63.0492 16.4414 63.3234 16.4414 63.6093C16.4414 63.8953 16.555 64.1695 16.7572 64.3717C16.9594 64.5739 17.2336 64.6875 17.5195 64.6875H27.2227ZM42.8555 30.4112V32.9911C42.8646 32.9933 42.8727 32.9965 42.8819 32.9981C44.93 31.8023 46.5265 29.9645 47.4242 27.7694C48.3219 25.5743 48.4707 23.1443 47.8474 20.8561C47.2241 18.5679 45.8636 16.549 43.9767 15.1124C42.0898 13.6757 39.7817 12.9014 37.4101 12.9095C35.0385 12.9175 32.7358 13.7075 30.8586 15.1569C28.9815 16.6063 27.6347 18.6343 27.027 20.9267C26.4193 23.2191 26.5845 25.648 27.497 27.837C28.4096 30.026 30.0186 31.8529 32.0748 33.0348V30.4371C30.6774 29.3236 29.6604 27.8037 29.1642 26.0873C28.6681 24.3709 28.7173 22.5428 29.305 20.8555C29.8927 19.1683 30.99 17.7053 32.4452 16.6686C33.9004 15.6319 35.6416 15.0728 37.4283 15.0685C39.2149 15.0642 40.9588 15.615 42.419 16.6447C43.8791 17.6743 44.9834 19.1321 45.5792 20.8165C46.175 22.5009 46.233 24.3288 45.7451 26.0475C45.2571 27.7663 44.2474 29.2911 42.8555 30.4112Z" fill="#FFC107"/>
<path id="Vector_2" d="M60.9141 8.625H12.3984C11.5409 8.626 10.7188 8.96708 10.1125 9.57343C9.50615 10.1798 9.16506 11.0019 9.16406 11.8594V35.5781C9.16506 36.4356 9.50615 37.2577 10.1125 37.8641C10.7188 38.4704 11.5409 38.8115 12.3984 38.8125H32.0748V36.6562H19.8817C19.6341 34.471 18.6525 32.4343 17.0974 30.8792C15.5423 29.324 13.5056 28.3425 11.3203 28.0949V19.3426C13.5056 19.095 15.5423 18.1135 17.0974 16.5583C18.6525 15.0032 19.6341 12.9665 19.8817 10.7812H53.4308C53.6784 12.9665 54.66 15.0032 56.2151 16.5583C57.7702 18.1135 59.8069 19.095 61.9922 19.3426V28.0949C59.8069 28.3425 57.7702 29.324 56.2151 30.8792C54.66 32.4343 53.6784 34.471 53.4308 36.6562H48.4348C49.4073 37.1251 50.2155 37.8766 50.7538 38.8125H60.9141C61.7716 38.8115 62.5937 38.4704 63.2 37.8641C63.8064 37.2577 64.1474 36.4356 64.1484 35.5781V11.8594C64.1474 11.0019 63.8064 10.1798 63.2 9.57343C62.5937 8.96708 61.7716 8.626 60.9141 8.625ZM17.7028 36.6562H12.3984C12.1126 36.6558 11.8387 36.5421 11.6366 36.34C11.4345 36.1379 11.3207 35.8639 11.3203 35.5781V30.2738C12.9296 30.5084 14.4202 31.2564 15.5702 32.4064C16.7201 33.5564 17.4681 35.0469 17.7028 36.6562ZM11.3203 17.1637V11.8594C11.3207 11.5736 11.4345 11.2996 11.6366 11.0975C11.8387 10.8954 12.1126 10.7817 12.3984 10.7812H17.7028C17.4681 12.3906 16.7201 13.8811 15.5702 15.0311C14.4202 16.1811 12.9296 16.9291 11.3203 17.1637ZM61.9922 35.5781C61.9918 35.8639 61.878 36.1379 61.6759 36.34C61.4738 36.5421 61.1999 36.6558 60.9141 36.6562H55.6097C55.8444 35.0469 56.5924 33.5564 57.7423 32.4064C58.8923 31.2564 60.3829 30.5084 61.9922 30.2738V35.5781ZM61.9922 17.1637C60.3829 16.9291 58.8923 16.1811 57.7423 15.0311C56.5924 13.8811 55.8444 12.3906 55.6097 10.7812H60.9141C61.1999 10.7817 61.4738 10.8954 61.6759 11.0975C61.878 11.2996 61.9918 11.5736 61.9922 11.8594V17.1637Z" fill="#FFC107"/>
<path id="Vector_3" d="M37.5391 17.2673C37.36 17.2677 37.1882 17.3388 37.0612 17.4652C36.9342 17.5916 36.8623 17.763 36.861 17.9422V18.7594C34.9743 18.9605 34.1484 20.0639 34.1484 21.3404C34.1484 22.769 35.0675 23.4422 36.1451 23.8891C37.0195 23.6624 37.9371 23.662 38.8116 23.888C39.6862 24.1139 40.4888 24.5588 41.1439 25.1807C40.4377 22.466 35.8589 23.0746 35.8589 21.3404C35.8589 20.7674 36.3149 20.2079 37.5391 20.2079C38.2968 20.1996 39.031 20.4701 39.6021 20.9679C39.767 21.148 39.993 21.2604 40.2361 21.2833C40.4422 21.2875 40.6417 21.2099 40.7908 21.0675C40.9399 20.925 41.0265 20.7293 41.0317 20.5232C41.0301 20.3587 40.9786 20.1986 40.884 20.0639C40.55 19.6832 40.1434 19.373 39.688 19.1514C39.2326 18.9298 38.7375 18.8013 38.2318 18.7734V17.9422C38.2308 17.8524 38.212 17.7636 38.1766 17.681C38.1412 17.5985 38.0899 17.5237 38.0255 17.461C37.9612 17.3983 37.8851 17.3489 37.8016 17.3157C37.7182 17.2825 37.629 17.266 37.5391 17.2673Z" fill="#FFC107"/>
<path id="Vector_4" d="M33.6914 66.8438H9.16406C8.59219 66.8438 8.04374 66.6166 7.63936 66.2122C7.23499 65.8078 7.00781 65.2594 7.00781 64.6875V4.3125C7.00781 3.74063 7.23499 3.19218 7.63936 2.7878C8.04374 2.38343 8.59219 2.15625 9.16406 2.15625H16.3368L18.3529 5.90166C18.4453 6.07325 18.5824 6.21659 18.7498 6.31645C18.9171 6.41631 19.1084 6.46894 19.3033 6.46875H29.7525C29.9472 6.46875 30.1382 6.41602 30.3054 6.31617C30.4725 6.21633 30.6095 6.07309 30.7018 5.90166L32.7179 2.15625H39.3516C39.9234 2.15625 40.4719 2.38343 40.8763 2.7878C41.2806 3.19218 41.5078 3.74063 41.5078 4.3125V6.46875H43.6641V4.3125C43.6628 3.16915 43.208 2.07299 42.3995 1.26452C41.5911 0.456048 40.4949 0.00128411 39.3516 0L9.16406 0C8.02071 0.00128411 6.92456 0.456048 6.11608 1.26452C5.30761 2.07299 4.85285 3.16915 4.85156 4.3125V64.6875C4.85299 65.8308 5.3078 66.9269 6.11624 67.7353C6.92468 68.5438 8.02075 68.9986 9.16406 69H33.8801C33.756 68.6541 33.6922 68.2894 33.6914 67.9219V66.8438ZM30.2689 2.15625L29.1083 4.3125H19.9464L18.7858 2.15625H30.2689Z" fill="#FFC107"/>
<path id="Vector_5" d="M50.4024 40.9688C50.0281 40.9696 49.6568 41.0358 49.3054 41.1644C49.2549 40.6784 49.0945 40.2101 48.8365 39.7951C48.5785 39.3801 48.2294 39.0292 47.8159 38.7689C47.4023 38.5086 46.9349 38.3457 46.4491 38.2926C45.9633 38.2394 45.4718 38.2974 45.0117 38.4621V38.2734C45.0132 37.7556 44.89 37.245 44.6525 36.7848C44.4149 36.3247 44.0701 35.9284 43.6471 35.6297C43.2241 35.331 42.7354 35.1385 42.2223 35.0685C41.7092 34.9985 41.1868 35.0532 40.6992 35.2277V29.1094C40.7048 28.6812 40.6252 28.2561 40.4651 27.8589C40.3051 27.4616 40.0677 27.1002 39.7669 26.7954C39.466 26.4906 39.1076 26.2486 38.7125 26.0835C38.3174 25.9183 37.8934 25.8333 37.4651 25.8333C37.0369 25.8333 36.6129 25.9183 36.2177 26.0835C35.8226 26.2486 35.4642 26.4906 35.1634 26.7954C34.8625 27.1002 34.6252 27.4616 34.4651 27.8589C34.3051 28.2561 34.2255 28.6812 34.231 29.1094V45.0096C33.2361 44.0623 32.2465 43.1094 31.2624 42.1509C30.6444 41.5755 29.8319 41.2547 28.9876 41.2528C28.439 41.2567 27.8997 41.3938 27.4158 41.6522C26.9319 41.9106 26.5181 42.2826 26.2098 42.7363C25.7808 43.3951 25.5741 44.1741 25.6201 44.9589C25.6661 45.7437 25.9623 46.4932 26.4653 47.0974L33.4197 55.1623C34.0515 55.9557 34.6048 56.8085 35.0719 57.7088C35.8634 59.2301 36.41 60.8667 36.6918 62.5582C36.4526 62.6113 36.2385 62.7444 36.0851 62.9355C35.9316 63.1266 35.8479 63.3643 35.8477 63.6094V67.9219C35.8477 68.2078 35.9612 68.482 36.1634 68.6842C36.3656 68.8864 36.6399 69 36.9258 69H50.9414C51.2274 69 51.5016 68.8864 51.7038 68.6842C51.906 68.482 52.0195 68.2078 52.0195 67.9219V63.6094C52.0195 63.3234 51.906 63.0492 51.7038 62.847C51.5016 62.6448 51.2274 62.5312 50.9414 62.5312H50.5069C50.7186 61.4086 51.1185 60.3299 51.6896 59.3405C51.727 59.2834 51.7613 59.2244 51.7926 59.1637C53.4265 56.3752 53.6367 52.875 53.6367 50.1328V44.2031C53.6357 43.3456 53.2946 42.5235 52.6883 41.9172C52.0819 41.3108 51.2599 40.9698 50.4024 40.9688ZM49.8633 66.8437H38.0039V64.6875H49.8633V66.8437ZM51.4805 50.1328C51.4805 52.6103 51.3026 55.7547 49.8967 58.1433C49.8795 58.1659 49.8644 58.1902 49.8498 58.215C49.0801 59.5481 48.5612 61.011 48.3189 62.5312H38.868C38.568 60.4998 37.931 58.5327 36.9835 56.711C36.4457 55.6758 35.8078 54.6958 35.079 53.785L28.1251 45.7217C27.9183 45.4808 27.7934 45.1805 27.7683 44.8641C27.7432 44.5477 27.8193 44.2315 27.9854 43.9611C28.0944 43.7939 28.2429 43.656 28.4178 43.5598C28.5926 43.4635 28.7885 43.4117 28.9881 43.4091C29.281 43.4082 29.5636 43.5177 29.7794 43.7158C34.9598 48.7587 34.9598 48.7571 35.7269 48.4348C35.9225 48.3514 36.0893 48.2125 36.2067 48.0352C36.3241 47.8579 36.3869 47.6501 36.3873 47.4375V29.1094C36.3841 28.9658 36.4096 28.823 36.4623 28.6895C36.515 28.5559 36.5939 28.4342 36.6943 28.3315C36.7947 28.2288 36.9146 28.1472 37.047 28.0915C37.1793 28.0358 37.3215 28.0071 37.4651 28.0071C37.6087 28.0071 37.7509 28.0358 37.8833 28.0915C38.0156 28.1472 38.1355 28.2288 38.2359 28.3315C38.3364 28.4342 38.4152 28.5559 38.468 28.6895C38.5207 28.823 38.5462 28.9658 38.543 29.1094V47.9766C38.543 48.2625 38.6566 48.5367 38.8588 48.7389C39.0609 48.9411 39.3352 49.0547 39.6211 49.0547C39.907 49.0547 40.1813 48.9411 40.3835 48.7389C40.5856 48.5367 40.6992 48.2625 40.6992 47.9766V38.2734C40.6992 37.9875 40.8128 37.7133 41.015 37.5111C41.2172 37.3089 41.4914 37.1953 41.7773 37.1953C42.0633 37.1953 42.3375 37.3089 42.5397 37.5111C42.7419 37.7133 42.8555 37.9875 42.8555 38.2734V47.9766C42.8555 48.2625 42.9691 48.5367 43.1713 48.7389C43.3734 48.9411 43.6477 49.0547 43.9336 49.0547C44.2195 49.0547 44.4938 48.9411 44.696 48.7389C44.8981 48.5367 45.0117 48.2625 45.0117 47.9766V41.5078C45.0117 41.2219 45.1253 40.9477 45.3275 40.7455C45.5297 40.5433 45.8039 40.4297 46.0899 40.4297C46.3758 40.4297 46.65 40.5433 46.8522 40.7455C47.0544 40.9477 47.168 41.2219 47.168 41.5078V47.9766C47.168 48.2625 47.2816 48.5367 47.4838 48.7389C47.6859 48.9411 47.9602 49.0547 48.2461 49.0547C48.532 49.0547 48.8063 48.9411 49.0085 48.7389C49.2106 48.5367 49.3242 48.2625 49.3242 47.9766V44.2031C49.3242 43.9172 49.4378 43.643 49.64 43.4408C49.8422 43.2386 50.1164 43.125 50.4024 43.125C50.6883 43.125 50.9625 43.2386 51.1647 43.4408C51.3669 43.643 51.4805 43.9172 51.4805 44.2031V50.1328Z" fill="#FFC107"/>
</g>
</svg>
