<svg width="24" height="24" viewBox="0 0 24 24" fill="none" xmlns="http://www.w3.org/2000/svg">
<g clip-path="url(#clip0_57_114)">
<path fill-rule="evenodd" clip-rule="evenodd" d="M7.448 22.1339C8.888 22.0809 12.969 21.5169 17.243 17.2439C21.516 12.9699 22.079 8.88995 22.133 7.44895C22.213 5.25295 20.531 3.11995 18.588 2.28695C18.354 2.18591 18.0978 2.14745 17.8445 2.17532C17.5911 2.2032 17.3494 2.29646 17.143 2.44595C15.543 3.61195 14.439 5.37595 13.491 6.76295C13.2824 7.06768 13.1932 7.4385 13.2404 7.80474C13.2877 8.17099 13.468 8.50707 13.747 8.74895L15.698 10.1979C15.7923 10.266 15.8586 10.366 15.8847 10.4793C15.9108 10.5926 15.8949 10.7115 15.84 10.8139C15.398 11.6169 14.612 12.8129 13.712 13.7129C12.811 14.6129 11.559 15.4509 10.7 15.9429C10.5923 16.0034 10.4655 16.0203 10.3457 15.9902C10.226 15.96 10.1223 15.8852 10.056 15.7809L8.786 13.8479C8.55251 13.5378 8.20807 13.33 7.82482 13.2681C7.44157 13.2062 7.04924 13.295 6.73 13.5159C5.323 14.4899 3.681 15.5749 2.479 17.1139C2.31737 17.3219 2.21456 17.5694 2.18131 17.8306C2.14807 18.0918 2.1856 18.3572 2.29 18.5989C3.127 20.5519 5.245 22.2149 7.448 22.1339Z" fill="white"/>
</g>
<defs>
<clipPath id="clip0_57_114">
<rect width="24" height="24" fill="white" transform="matrix(-1 0 0 1 24 0.000488281)"/>
</clipPath>
</defs>
</svg>
