<svg width="122" height="75" viewBox="0 0 122 75" fill="none" xmlns="http://www.w3.org/2000/svg">
<g id="team 1" clip-path="url(#clip0_57_1007)">
<path id="Vector" d="M15.6865 86.1311V119.815C15.6865 120.317 15.8859 120.798 16.2408 121.153C16.5957 121.508 17.0771 121.707 17.579 121.707H38.397C38.8989 121.707 39.3803 121.508 39.7352 121.153C40.0902 120.798 40.2896 120.317 40.2896 119.815V86.1311L46.2624 82.1492L47.7424 83.1371V119.974C47.7424 120.476 47.9418 120.957 48.2967 121.312C48.6516 121.667 49.133 121.866 49.6349 121.866H72.3455C72.8474 121.866 73.3288 121.667 73.6837 121.312C74.0386 120.957 74.238 120.476 74.238 119.974V83.1371L75.718 82.1492L81.6909 86.1311V119.815C81.6909 120.317 81.8903 120.798 82.2452 121.153C82.6001 121.508 83.0815 121.707 83.5834 121.707H104.401C104.903 121.707 105.385 121.508 105.74 121.153C106.095 120.798 106.294 120.317 106.294 119.815V86.1311L115.859 79.7532C116.118 79.5803 116.331 79.3462 116.478 79.0716C116.625 78.7969 116.702 78.4902 116.703 78.1786V51.9555C116.706 50.1017 116.124 48.2943 115.04 46.7904C113.956 45.2866 112.425 44.1628 110.666 43.5791L101.089 40.3845V35.6456C102.178 34.6635 103.05 33.4644 103.647 32.1255C104.245 30.7865 104.556 29.3373 104.56 27.871L104.545 25.5394L105.779 18.6467C106.059 17.1138 105.719 15.5695 104.825 14.2939C103.932 13.0183 102.588 12.1742 101.048 11.9206L91.8917 10.3952C90.5013 10.161 89.0735 10.4526 87.8862 11.2131C86.6989 11.9736 85.837 13.1487 85.4684 14.5096C84.315 14.9161 83.3495 15.7294 82.753 16.797C82.1564 17.8645 81.9699 19.1131 82.2284 20.3084L83.3298 25.4334L83.4282 27.8748C83.4282 30.9596 84.7795 33.7152 86.8992 35.6494V40.3883L84.3215 41.2475C83.1749 39.2329 81.326 37.7115 79.1284 36.9742L68.5604 33.4464V28.0716C70.8655 25.9936 72.3455 23.011 72.3455 19.6687L72.3304 17.0949L73.6778 9.57388C73.9731 7.9463 73.6097 6.30357 72.6559 4.95229C71.702 3.60101 70.2826 2.70773 68.6512 2.43521L58.6624 0.769766C57.1719 0.519818 55.6419 0.839085 54.3757 1.66427C53.1095 2.48945 52.1997 3.76029 51.8265 5.22482C50.5893 5.64405 49.5489 6.50245 48.9022 7.63742C48.2556 8.7724 48.0476 10.1051 48.3177 11.3832L49.5214 16.9851L49.6349 19.6687C49.6349 23.011 51.1149 25.9898 53.42 28.0716V33.4464L42.8558 36.9666C40.6582 37.7039 38.8093 39.2253 37.6627 41.2399L35.0851 40.3845V35.6456C36.1739 34.6635 37.0452 33.4644 37.6429 32.1255C38.2407 30.7865 38.5517 29.3373 38.556 27.871L38.5408 25.5394L39.7748 18.6467C40.0549 17.1138 39.7142 15.5695 38.8209 14.2939C37.9277 13.0183 36.584 12.1742 35.0434 11.9206L25.8873 10.3877C24.4964 10.1536 23.0681 10.4457 21.8807 11.2069C20.6934 11.9682 19.8318 13.1442 19.464 14.5059C18.5869 14.8173 17.8129 15.3648 17.227 16.088C16.2694 17.2728 15.8984 18.8133 16.2202 20.3046L17.3216 25.4296L17.4238 27.871C17.4238 30.9559 18.7751 33.7114 20.8948 35.6456V40.3845L11.3185 43.5791C9.5596 44.1638 8.02964 45.2878 6.94589 46.7915C5.86214 48.2951 5.27969 50.102 5.28125 51.9555V78.1786C5.28125 78.8107 5.59542 79.4012 6.12533 79.7532L15.6865 86.1311ZM36.5045 117.922H29.8806V92.0586C29.8806 91.5566 29.6812 91.0752 29.3262 90.7203C28.9713 90.3654 28.4899 90.166 27.988 90.166C27.4861 90.166 27.0047 90.3654 26.6498 90.7203C26.2949 91.0752 26.0955 91.5566 26.0955 92.0586V117.922H19.4716V80.3475H36.5045V117.922ZM40.2896 81.5852V78.1711L42.8483 79.8781L40.2896 81.5852ZM70.4529 118.085H62.8828V89.6967C62.8828 89.1947 62.6834 88.7134 62.3284 88.3584C61.9735 88.0035 61.4921 87.8041 60.9902 87.8041C60.4883 87.8041 60.0069 88.0035 59.652 88.3584C59.2971 88.7134 59.0977 89.1947 59.0977 89.6967V118.085H51.5275V76.9182H70.4529V118.085ZM79.1322 79.8781L81.6909 78.1711V81.5852L79.1322 79.8781ZM102.509 117.922H95.885V92.0586C95.885 91.5566 95.6856 91.0752 95.3307 90.7203C94.9757 90.3654 94.4944 90.166 93.9924 90.166C93.4905 90.166 93.0091 90.3654 92.6542 90.7203C92.2993 91.0752 92.0999 91.5566 92.0999 92.0586V117.922H85.476V80.3475H102.509V117.922ZM85.9226 19.5135C85.8166 19.0063 86.0324 18.643 86.1724 18.4688C86.3125 18.2947 86.6266 18.0033 87.1452 18.0033C88.1899 18.0033 89.0377 17.0532 89.0377 16.0085C89.0377 15.437 89.2762 14.9184 89.7153 14.5475C89.926 14.3656 90.1746 14.2328 90.443 14.1589C90.7115 14.0849 90.993 14.0715 91.2672 14.1198L100.42 15.6452C100.681 15.6866 100.931 15.7801 101.155 15.9201C101.38 16.0601 101.574 16.2438 101.726 16.4601C101.878 16.6765 101.985 16.9213 102.041 17.1798C102.097 17.4384 102.1 17.7056 102.051 17.9654L100.787 25.1722L100.772 26.1072V27.8672C100.772 30.0739 99.6966 32.0157 98.0614 33.2572L98.0538 33.261C97.4721 33.7002 96.8226 34.0416 96.131 34.2716L96.0742 34.2905C94.7198 34.7296 93.2613 34.7296 91.9068 34.2905L91.8501 34.2716C91.1584 34.0416 90.5089 33.7002 89.9272 33.261L89.9197 33.2572C89.081 32.6304 88.3996 31.8171 87.9292 30.8817C87.4589 29.9463 87.2125 28.9143 87.2095 27.8672L87.1982 25.9028L85.9226 19.5135ZM89.386 43.5413C89.7627 43.4158 90.0904 43.1751 90.3227 42.8531C90.555 42.5311 90.6802 42.1442 90.6805 41.7472V37.8939C90.8849 37.9621 91.1044 37.9923 91.3126 38.0491C91.5775 38.1172 91.8349 38.1967 92.1075 38.2459C92.6411 38.3444 93.1824 38.3973 93.7275 38.4087C93.8183 38.4125 93.9016 38.4352 93.9924 38.4352C94.0833 38.4352 94.1665 38.4125 94.2574 38.4087C94.8024 38.3936 95.3437 38.3406 95.8774 38.2459C96.1499 38.1967 96.4073 38.1172 96.6723 38.0491C96.8804 37.9923 97.1 37.9621 97.3044 37.8939V41.7509C97.3047 42.148 97.4298 42.5349 97.6622 42.8569C97.8945 43.1788 98.2222 43.4196 98.5989 43.5451L109.47 47.1712C111.533 47.8601 112.922 49.7829 112.922 51.9593V77.1718L106.298 81.589V57.3682C106.298 56.8663 106.098 56.3849 105.743 56.03C105.389 55.6751 104.907 55.4757 104.405 55.4757C103.903 55.4757 103.422 55.6751 103.067 56.03C102.712 56.3849 102.513 56.8663 102.513 57.3682V76.5662H85.4798V75.0332C85.5214 74.8743 85.5971 74.7266 85.5971 74.5601V45.9486C85.5971 45.5739 85.5517 45.2067 85.51 44.8396L89.386 43.5413ZM52.0233 10.5921C51.8909 9.96753 52.1596 9.51711 52.3337 9.30514C52.5078 9.09318 52.8863 8.73738 53.526 8.73738C54.5707 8.73738 55.4186 7.77975 55.4186 6.73507C55.4186 6.06132 55.7024 5.44814 56.2172 5.00907C56.466 4.79427 56.7594 4.63736 57.0762 4.54966C57.393 4.46195 57.7253 4.44563 58.0492 4.50186L68.0381 6.1673C68.3445 6.21656 68.6378 6.32708 68.9006 6.49227C69.1633 6.65746 69.39 6.87392 69.5672 7.12872C69.7478 7.38267 69.8755 7.67041 69.9424 7.97475C70.0094 8.2791 70.0144 8.59382 69.9571 8.90014L68.5793 16.7277L68.5604 17.7497V19.6687C68.5604 22.1328 67.3605 24.3017 65.5323 25.687L65.5248 25.6908C64.8557 26.1915 64.1089 26.5789 63.3143 26.8377C61.804 27.3297 60.1764 27.3297 58.6662 26.8377L58.6018 26.8188C57.8287 26.5619 57.1026 26.181 56.4519 25.6908L56.4443 25.687C55.5082 24.9869 54.7477 24.0788 54.2228 23.0343C53.6979 21.9899 53.4231 20.8377 53.42 19.6687L53.4087 17.5491L52.0233 10.5921ZM44.0557 40.5586L55.9106 36.607C56.2873 36.4815 56.615 36.2408 56.8473 35.9188C57.0797 35.5968 57.2048 35.2099 57.2051 34.8129V30.3654C57.4549 30.4562 57.7199 30.4979 57.9773 30.5698C58.2877 30.6568 58.5905 30.759 58.9122 30.8158C59.4989 30.9256 60.0969 30.9786 60.695 30.9975C60.7934 30.9975 60.888 31.024 60.9902 31.024C61.0924 31.024 61.187 30.9975 61.2854 30.9937C61.8835 30.9786 62.4778 30.9256 63.0682 30.812C63.39 30.7515 63.6928 30.6493 64.0069 30.566C64.2643 30.4941 64.5255 30.4524 64.7753 30.3616V34.8091C64.7756 35.2061 64.9008 35.593 65.1331 35.915C65.3654 36.237 65.6931 36.4777 66.0698 36.6032L77.9247 40.5548C79.0557 40.9309 80.0396 41.6537 80.7367 42.6205C81.4338 43.5873 81.8087 44.7491 81.8082 45.941V52.0388C81.7381 52.2269 81.6984 52.4249 81.6909 52.6255V73.6176L74.238 78.5912V51.8458C74.238 51.3438 74.0386 50.8625 73.6837 50.5075C73.3288 50.1526 72.8474 49.9532 72.3455 49.9532C71.8436 49.9532 71.3622 50.1526 71.0073 50.5075C70.6523 50.8625 70.4529 51.3438 70.4529 51.8458V73.1331H51.5275V51.8458C51.5275 51.3438 51.3281 50.8625 50.9732 50.5075C50.6183 50.1526 50.1369 49.9532 49.6349 49.9532C49.133 49.9532 48.6516 50.1526 48.2967 50.5075C47.9418 50.8625 47.7424 51.3438 47.7424 51.8458V78.5912L40.2896 73.6214V52.6293C40.282 52.4287 40.2424 52.2306 40.1722 52.0426V45.9448C40.1722 43.4996 41.7317 41.3346 44.0557 40.5586ZM19.922 19.5135C19.816 19.0063 20.0318 18.643 20.1718 18.4688C20.3118 18.2947 20.626 18.0033 21.1446 18.0033C22.1893 18.0033 23.0371 17.0532 23.0371 16.0085C23.0371 15.437 23.2756 14.9184 23.7146 14.5475C23.9254 14.3656 24.174 14.2328 24.4424 14.1589C24.7108 14.0849 24.9923 14.0715 25.2665 14.1198L34.4189 15.649C34.6801 15.6904 34.9304 15.7839 35.1548 15.9239C35.3793 16.0639 35.5733 16.2475 35.7255 16.4639C35.8776 16.6803 35.9848 16.9251 36.0405 17.1836C36.0963 17.4422 36.0996 17.7093 36.0503 17.9692L34.7823 25.176L34.7709 26.1072V27.8672C34.7709 30.0739 33.6959 32.0157 32.0608 33.2572L32.0532 33.261C31.4715 33.7002 30.822 34.0416 30.1304 34.2716L30.0736 34.2905C28.7192 34.7296 27.2606 34.7296 25.9062 34.2905L25.8494 34.2716C25.1578 34.0416 24.5083 33.7002 23.9266 33.261L23.919 33.2572C23.0804 32.6312 22.399 31.8186 21.9286 30.8838C21.4583 29.949 21.2119 28.9175 21.2089 27.871L21.1938 25.9065L19.922 19.5135ZM9.06256 51.9555C9.06256 49.7791 10.4479 47.8563 12.5146 47.1674L23.3853 43.5413C23.762 43.4158 24.0897 43.1751 24.3221 42.8531C24.5544 42.5311 24.6795 42.1442 24.6798 41.7472V37.8939C24.8842 37.9621 25.1 37.9923 25.3082 38.0491C25.5731 38.1172 25.8305 38.1967 26.103 38.2459C26.6367 38.3444 27.178 38.3973 27.7231 38.4087C27.8139 38.4125 27.8972 38.4352 27.988 38.4352C28.0789 38.4352 28.1621 38.4125 28.253 38.4087C28.798 38.3936 29.3393 38.3406 29.873 38.2459C30.1455 38.1967 30.4029 38.1172 30.6679 38.0491C30.8798 37.9923 31.0956 37.9621 31.3 37.8939V41.7509C31.3003 42.148 31.4254 42.5349 31.6578 42.8569C31.8901 43.1788 32.2178 43.4196 32.5945 43.5451L36.4742 44.8396C36.4325 45.2029 36.3871 45.5701 36.3871 45.9448V74.5563C36.3871 74.7228 36.4628 74.8705 36.5045 75.0294V76.5624H19.4716V57.3644C19.4716 56.8625 19.2722 56.3811 18.9172 56.0262C18.5623 55.6713 18.0809 55.4719 17.579 55.4719C17.0771 55.4719 16.5957 55.6713 16.2408 56.0262C15.8859 56.3811 15.6865 56.8625 15.6865 57.3644V81.5852L9.06256 77.168V51.9555Z" fill="#FFC629"/>
</g>
<defs>
<clipPath id="clip0_57_1007">
<rect width="121.123" height="121.123" fill="white" transform="translate(0.428711 0.714355)"/>
</clipPath>
</defs>
</svg>
