<svg width="34" height="34" viewBox="0 0 34 34" fill="none" xmlns="http://www.w3.org/2000/svg">
<g id="youtube 1">
<path id="Vector" d="M32.5835 13.7559C32.6535 11.7282 32.2101 9.71562 31.2943 7.9051C30.6729 7.1622 29.8106 6.66086 28.8576 6.48843C24.9158 6.13076 20.9576 5.98416 17.0001 6.04927C13.057 5.98121 9.11312 6.12307 5.18512 6.47427C4.40853 6.61553 3.68985 6.97979 3.11679 7.5226C1.84179 8.69843 1.70012 10.7101 1.55845 12.4101C1.35291 15.4666 1.35291 18.5336 1.55845 21.5901C1.59944 22.5469 1.7419 23.4967 1.98345 24.4234C2.15427 25.1389 2.49986 25.8009 2.98929 26.3501C3.56625 26.9217 4.30166 27.3066 5.10012 27.4551C8.15433 27.8321 11.2318 27.9883 14.3085 27.9226C19.2668 27.9934 23.616 27.9226 28.7585 27.5259C29.5765 27.3866 30.3326 27.0011 30.926 26.4209C31.3226 26.0241 31.6188 25.5385 31.7901 25.0043C32.2968 23.4496 32.5456 21.8226 32.5268 20.1876C32.5835 19.3943 32.5835 14.6059 32.5835 13.7559ZM13.7985 21.0376V12.2684L22.1851 16.6743C19.8335 17.9776 16.731 19.4509 13.7985 21.0376Z" fill="#FFC629"/>
</g>
</svg>
