<svg width="26" height="26" viewBox="0 0 26 26" fill="none" xmlns="http://www.w3.org/2000/svg">
<g clip-path="url(#clip0_57_128)">
<path d="M12.8373 9.7501C13.1623 9.7501 13.3248 9.4251 13.3248 8.9376V6.6626C13.3248 6.1751 13.1623 5.8501 12.8373 5.8501C12.5123 5.8501 12.3498 6.1751 12.3498 6.6626V8.9376C12.3498 9.4251 12.5123 9.7501 12.8373 9.7501ZM11.5373 19.3376C11.3748 19.6626 11.0498 19.8251 10.8873 19.8251C10.7248 19.8251 10.7248 19.8251 10.7248 19.6626V15.2751H9.7498V19.5001C9.7498 19.8251 9.7498 20.1501 9.9123 20.3126C10.0748 20.6376 10.2373 20.6376 10.5623 20.6376C10.8873 20.6376 11.2123 20.4751 11.6998 19.9876V20.6376H12.6748V15.2751H11.5373V19.3376ZM6.1748 14.4626H7.3123V20.6376H8.4498V14.4626H9.5873V13.3251H6.1748V14.4626ZM15.2748 15.1126C14.9498 15.1126 14.6248 15.4376 14.2998 15.7626V13.3251H13.3248V20.4751H14.2998V19.9876C14.6248 20.3126 14.9498 20.6376 15.2748 20.6376C15.5998 20.6376 15.9248 20.4751 16.0873 19.9876C16.0873 19.8251 16.2498 19.3376 16.2498 18.8501V16.7376C16.2498 16.2501 16.2498 15.9251 16.0873 15.6001C15.9248 15.4376 15.7623 15.1126 15.2748 15.1126ZM15.2748 19.0126C15.2748 19.5001 15.1123 19.6626 14.7873 19.6626C14.6248 19.6626 14.4623 19.6626 14.2998 19.5001V16.2501C14.4623 16.0876 14.6248 16.0876 14.7873 16.0876C15.1123 16.0876 15.2748 16.4126 15.2748 16.9001V19.0126ZM18.3623 15.1126C17.8748 15.1126 17.5498 15.2751 17.2248 15.6001C17.0623 15.9251 16.8998 16.2501 16.8998 16.9001V18.8501C16.8998 19.5001 17.0623 19.8251 17.2248 20.1501C17.5498 20.4751 17.8748 20.6376 18.3623 20.6376C18.8498 20.6376 19.3373 20.4751 19.4998 19.9876C19.6623 19.8251 19.6623 19.6626 19.6623 19.3376V18.5251H18.6873V19.1751C18.6873 19.5001 18.5248 19.5001 18.1998 19.5001C17.8748 19.5001 17.7123 19.1751 17.7123 18.6876V17.7126H19.6623V16.5751C19.6623 15.9251 19.4998 15.6001 19.3373 15.2751C19.3373 15.4376 18.8498 15.1126 18.3623 15.1126ZM18.8498 17.2251H17.8748V16.7376C17.8748 16.2501 18.0373 15.9251 18.3623 15.9251C18.6873 15.9251 18.8498 16.2501 18.8498 16.7376V17.2251Z" fill="white"/>
<path d="M0 0.000488281V26.0005H26V0.000488281H0ZM15.1125 5.03799H16.0875V9.42549C16.0875 9.58799 16.0875 9.75049 16.25 9.75049C16.4125 9.75049 16.575 9.58799 16.9 9.26299V5.03799H17.875V10.4005H16.9V9.91299C16.575 10.4005 16.0875 10.563 15.7625 10.563C15.4375 10.563 15.275 10.4005 15.1125 10.238C15.1125 10.0755 14.95 9.75049 14.95 9.42549V5.03799H15.1125ZM11.375 6.82549C11.375 6.33799 11.375 5.85049 11.7 5.52549C12.025 5.20049 12.35 5.03799 12.8375 5.03799C13.325 5.03799 13.65 5.20049 13.975 5.52549C14.1375 5.85049 14.3 6.17549 14.3 6.82549V8.77549C14.3 9.42549 14.1375 9.75049 13.975 10.0755C13.65 10.4005 13.325 10.563 12.8375 10.563C12.35 10.563 12.025 10.4005 11.7 10.0755C11.375 9.75049 11.375 9.42549 11.375 8.77549V6.82549ZM8.6125 3.25049L9.425 6.17549L10.2375 3.25049H11.375L10.075 7.63799V10.563H8.9375V7.63799C8.775 6.98799 8.6125 6.33799 8.2875 5.20049C7.9625 4.55049 7.8 3.90049 7.475 3.25049H8.6125ZM20.8 20.963C20.6375 21.7755 19.825 22.4255 19.0125 22.588C17.0625 22.7505 14.95 22.7505 13 22.7505C11.05 22.7505 8.9375 22.7505 6.9875 22.588C6.175 22.4255 5.3625 21.938 5.2 20.963C4.875 19.663 4.875 18.363 4.875 17.063C4.875 15.9255 4.875 14.6255 5.2 13.3255C5.3625 12.513 6.175 11.863 6.9875 11.7005C8.9375 11.538 11.05 11.538 13 11.538C14.95 11.538 17.0625 11.538 19.0125 11.7005C19.825 11.863 20.6375 12.3505 20.8 13.3255C21.125 14.6255 21.125 15.9255 21.125 17.063C21.125 18.363 21.125 19.663 20.8 20.963Z" fill="white"/>
</g>
<defs>
<clipPath id="clip0_57_128">
<rect y="0.000488281" width="26" height="26" rx="2" fill="white"/>
</clipPath>
</defs>
</svg>
